<svg width="700" height="700" viewBox="0 0 700 700" fill="none" xmlns="http://www.w3.org/2000/svg">
<g filter="url(#filter0_d_66_2446)">
<rect x="150" y="150" width="400" height="400" rx="6" fill="url(#paint0_linear_66_2446)"/>
</g>
<path d="M197.002 214V195.8H214.604V214H211.484V198.764H200.148V214H197.002ZM218.349 220.5V200.48H221.287V202.144C222.241 200.879 223.853 200.246 226.123 200.246C228.255 200.246 229.798 200.801 230.751 201.91C231.722 203.019 232.207 204.796 232.207 207.24C232.207 209.684 231.722 211.461 230.751 212.57C229.798 213.679 228.255 214.234 226.123 214.234C223.853 214.234 222.241 213.601 221.287 212.336V220.5H218.349ZM222.275 210.464C222.899 211.123 223.905 211.452 225.291 211.452C226.678 211.452 227.683 211.123 228.307 210.464C228.931 209.788 229.243 208.713 229.243 207.24C229.243 205.767 228.931 204.701 228.307 204.042C227.683 203.366 226.678 203.028 225.291 203.028C223.905 203.028 222.899 203.366 222.275 204.042C221.651 204.701 221.339 205.767 221.339 207.24C221.339 208.713 221.651 209.788 222.275 210.464ZM237.58 214H235.006V200.48H237.944V209.242L245.484 200.48H248.058V214H245.094V205.212L237.58 214ZM250.859 207.24C250.859 204.813 251.405 203.045 252.497 201.936C253.589 200.809 255.348 200.246 257.775 200.246C260.202 200.246 261.952 200.801 263.027 201.91C264.102 203.019 264.639 204.796 264.639 207.24C264.639 207.431 264.622 207.734 264.587 208.15H253.901C254.005 209.363 254.369 210.247 254.993 210.802C255.634 211.357 256.57 211.634 257.801 211.634C259.621 211.634 260.791 211.019 261.311 209.788H264.379C264.032 211.435 263.296 212.587 262.169 213.246C261.042 213.905 259.578 214.234 257.775 214.234C255.348 214.234 253.589 213.679 252.497 212.57C251.405 211.461 250.859 209.684 250.859 207.24ZM253.927 205.94H261.649C261.493 204.831 261.103 204.042 260.479 203.574C259.855 203.089 258.962 202.846 257.801 202.846C256.64 202.846 255.738 203.089 255.097 203.574C254.473 204.059 254.083 204.848 253.927 205.94ZM267.455 214V200.48H272.265L276.633 210.906L281.001 200.48H285.811V214H282.873V203.184L278.219 214H275.047L270.393 203.184V214H267.455ZM288.511 214V211.036H289.317C289.733 211.036 290.045 210.889 290.253 210.594C290.478 210.282 290.669 209.632 290.825 208.644C290.998 207.639 291.128 206.148 291.215 204.172L291.397 200.48H302.551V214H299.587V203.236H294.179L294.127 204.432C294.005 206.98 293.763 208.947 293.399 210.334C293.035 211.721 292.541 212.683 291.917 213.22C291.31 213.74 290.487 214 289.447 214H288.511ZM308.597 214H306.023V200.48H308.961V209.242L316.501 200.48H319.075V214H316.111V205.212L308.597 214ZM322.553 214V200.48H327.363L331.731 210.906L336.099 200.48H340.909V214H337.971V203.184L333.317 214H330.145L325.491 203.184V214H322.553ZM344.388 200.48H347.326V204.432H351.07C352.96 204.432 354.329 204.813 355.178 205.576C356.045 206.321 356.478 207.535 356.478 209.216C356.478 210.897 356.045 212.119 355.178 212.882C354.329 213.627 352.968 214 351.096 214H344.388V200.48ZM358.818 214V200.48H361.756V214H358.818ZM350.81 207.214H347.326V211.244H350.836C351.772 211.244 352.448 211.088 352.864 210.776C353.298 210.447 353.514 209.927 353.514 209.216C353.514 208.505 353.298 207.994 352.864 207.682C352.448 207.37 351.764 207.214 350.81 207.214ZM364.558 207.24C364.558 204.813 365.104 203.045 366.196 201.936C367.288 200.809 369.048 200.246 371.474 200.246C373.901 200.246 375.652 200.801 376.726 201.91C377.801 203.019 378.338 204.796 378.338 207.24C378.338 207.431 378.321 207.734 378.286 208.15H367.6C367.704 209.363 368.068 210.247 368.692 210.802C369.334 211.357 370.27 211.634 371.5 211.634C373.32 211.634 374.49 211.019 375.01 209.788H378.078C377.732 211.435 376.995 212.587 375.868 213.246C374.742 213.905 373.277 214.234 371.474 214.234C369.048 214.234 367.288 213.679 366.196 212.57C365.104 211.461 364.558 209.684 364.558 207.24ZM367.626 205.94H375.348C375.192 204.831 374.802 204.042 374.178 203.574C373.554 203.089 372.662 202.846 371.5 202.846C370.339 202.846 369.438 203.089 368.796 203.574C368.172 204.059 367.782 204.848 367.626 205.94ZM196.742 232.48H199.68V243.244H206.57V232.48H209.534V243.244H212.03V250.056H209.092V246H196.742V232.48ZM213.662 239.24C213.662 236.813 214.208 235.045 215.3 233.936C216.392 232.809 218.151 232.246 220.578 232.246C223.004 232.246 224.755 232.801 225.83 233.91C226.904 235.019 227.442 236.796 227.442 239.24C227.442 239.431 227.424 239.734 227.39 240.15H216.704C216.808 241.363 217.172 242.247 217.796 242.802C218.437 243.357 219.373 243.634 220.604 243.634C222.424 243.634 223.594 243.019 224.114 241.788H227.182C226.835 243.435 226.098 244.587 224.972 245.246C223.845 245.905 222.38 246.234 220.578 246.234C218.151 246.234 216.392 245.679 215.3 244.57C214.208 243.461 213.662 241.684 213.662 239.24ZM216.73 237.94H224.452C224.296 236.831 223.906 236.042 223.282 235.574C222.658 235.089 221.765 234.846 220.604 234.846C219.442 234.846 218.541 235.089 217.9 235.574C217.276 236.059 216.886 236.848 216.73 237.94ZM230.258 246V232.48H233.196V237.862H240.346V232.48H243.31V246H240.346V240.618H233.196V246H230.258ZM246.787 232.48H249.725V236.432H253.469C255.358 236.432 256.728 236.813 257.577 237.576C258.444 238.321 258.877 239.535 258.877 241.216C258.877 242.897 258.444 244.119 257.577 244.882C256.728 245.627 255.367 246 253.495 246H246.787V232.48ZM261.217 246V232.48H264.155V246H261.217ZM253.209 239.214H249.725V243.244H253.235C254.171 243.244 254.847 243.088 255.263 242.776C255.696 242.447 255.913 241.927 255.913 241.216C255.913 240.505 255.696 239.994 255.263 239.682C254.847 239.37 254.162 239.214 253.209 239.214Z" fill="white"/>
<path d="M196.428 291V279.1H199.301L203.653 289.062L208.005 279.1H210.878V291H209.11V280.817L204.673 291H202.633L198.196 280.817V291H196.428ZM213.557 291V282.16H215.223V284.88H217.858C219.07 284.88 219.949 285.124 220.493 285.611C221.037 286.098 221.309 286.875 221.309 287.94C221.309 289.005 221.037 289.782 220.493 290.269C219.949 290.756 219.076 291 217.875 291H213.557ZM222.992 291V282.16H224.658V291H222.992ZM217.705 286.444H215.223V289.436H217.722C218.39 289.436 218.878 289.317 219.184 289.079C219.49 288.841 219.643 288.461 219.643 287.94C219.643 287.419 219.49 287.039 219.184 286.801C218.878 286.563 218.385 286.444 217.705 286.444ZM231.802 291V282.16H234.505L237.65 289.317L240.795 282.16H243.498V291H241.832V283.656L238.534 291H236.749L233.468 283.656V291H231.802ZM249.073 291.136C247.894 291.136 247.033 290.926 246.489 290.507C245.945 290.088 245.673 289.413 245.673 288.484C245.673 287.521 245.973 286.835 246.574 286.427C247.186 286.008 248.166 285.798 249.515 285.798H252.524C252.524 284.993 252.32 284.41 251.912 284.047C251.504 283.673 250.852 283.486 249.957 283.486C249.243 283.486 248.693 283.605 248.308 283.843C247.923 284.07 247.662 284.438 247.526 284.948H245.877C246.036 283.928 246.444 283.186 247.101 282.721C247.758 282.256 248.733 282.024 250.025 282.024C251.476 282.024 252.53 282.324 253.187 282.925C253.856 283.514 254.19 284.461 254.19 285.764V291H252.524V289.861C251.855 290.711 250.705 291.136 249.073 291.136ZM247.339 288.416C247.339 288.858 247.509 289.181 247.849 289.385C248.2 289.578 248.739 289.674 249.464 289.674C250.427 289.674 251.147 289.498 251.623 289.147C252.11 288.796 252.411 288.235 252.524 287.464V287.056H249.94C248.206 287.056 247.339 287.509 247.339 288.416ZM258.337 291H256.671V282.16H258.337V285.713H259.986L262.859 282.16H264.899L261.363 286.478L265.12 291H263.063L259.986 287.277H258.337V291ZM270.459 291.136C268.918 291.136 267.796 290.779 267.093 290.065C266.402 289.34 266.056 288.178 266.056 286.58C266.056 284.993 266.402 283.837 267.093 283.112C267.796 282.387 268.918 282.024 270.459 282.024C271.808 282.024 272.828 282.296 273.519 282.84C274.211 283.373 274.636 284.223 274.794 285.39H273.145C272.998 284.767 272.709 284.313 272.278 284.03C271.859 283.735 271.264 283.588 270.493 283.588C269.519 283.588 268.81 283.826 268.368 284.302C267.938 284.767 267.722 285.526 267.722 286.58C267.722 287.623 267.943 288.382 268.385 288.858C268.827 289.334 269.53 289.572 270.493 289.572C271.264 289.572 271.859 289.43 272.278 289.147C272.709 288.852 272.998 288.393 273.145 287.77H274.794C274.636 288.949 274.211 289.804 273.519 290.337C272.828 290.87 271.808 291.136 270.459 291.136ZM278.254 291H276.792V282.16H278.458V288.331L283.813 282.16H285.275V291H283.609V284.829L278.254 291ZM287.799 291V282.16H290.502L293.647 289.317L296.792 282.16H299.495V291H297.829V283.656L294.531 291H292.746L289.465 283.656V291H287.799ZM305.07 291.136C303.891 291.136 303.03 290.926 302.486 290.507C301.942 290.088 301.67 289.413 301.67 288.484C301.67 287.521 301.97 286.835 302.571 286.427C303.183 286.008 304.163 285.798 305.512 285.798H308.521C308.521 284.993 308.317 284.41 307.909 284.047C307.501 283.673 306.849 283.486 305.954 283.486C305.24 283.486 304.69 283.605 304.305 283.843C303.92 284.07 303.659 284.438 303.523 284.948H301.874C302.033 283.928 302.441 283.186 303.098 282.721C303.755 282.256 304.73 282.024 306.022 282.024C307.473 282.024 308.527 282.324 309.184 282.925C309.853 283.514 310.187 284.461 310.187 285.764V291H308.521V289.861C307.852 290.711 306.702 291.136 305.07 291.136ZM303.336 288.416C303.336 288.858 303.506 289.181 303.846 289.385C304.197 289.578 304.736 289.674 305.461 289.674C306.424 289.674 307.144 289.498 307.62 289.147C308.107 288.796 308.408 288.235 308.521 287.464V287.056H305.937C304.203 287.056 303.336 287.509 303.336 288.416ZM312.09 291V289.334H312.617C312.9 289.334 313.116 289.226 313.263 289.011C313.422 288.784 313.552 288.325 313.654 287.634C313.767 286.931 313.858 285.883 313.926 284.489L314.045 282.16H321.236V291H319.57V283.724H315.609L315.575 284.625C315.496 286.325 315.337 287.645 315.099 288.586C314.872 289.515 314.572 290.15 314.198 290.49C313.824 290.83 313.32 291 312.685 291H312.09ZM323.758 282.16H325.424V284.88H328.059C329.272 284.88 330.15 285.124 330.694 285.611C331.238 286.098 331.51 286.875 331.51 287.94C331.51 289.005 331.238 289.782 330.694 290.269C330.15 290.756 329.277 291 328.076 291H323.758V282.16ZM327.906 286.444H325.424V289.436H327.923C328.592 289.436 329.079 289.317 329.385 289.079C329.691 288.841 329.844 288.461 329.844 287.94C329.844 287.419 329.691 287.039 329.385 286.801C329.079 286.563 328.586 286.444 327.906 286.444ZM335.169 291H333.503V282.16H335.169V285.798H340.32V282.16H341.986V291H340.32V287.362H335.169V291ZM345.105 283.112C345.83 282.387 346.981 282.024 348.556 282.024C350.131 282.024 351.276 282.387 351.99 283.112C352.715 283.837 353.078 284.993 353.078 286.58C353.078 288.178 352.721 289.34 352.007 290.065C351.293 290.779 350.143 291.136 348.556 291.136C346.969 291.136 345.819 290.779 345.105 290.065C344.391 289.34 344.034 288.178 344.034 286.58C344.034 284.993 344.391 283.837 345.105 283.112ZM345.7 286.58C345.7 287.623 345.927 288.382 346.38 288.858C346.833 289.334 347.559 289.572 348.556 289.572C349.553 289.572 350.279 289.334 350.732 288.858C351.185 288.382 351.412 287.623 351.412 286.58C351.412 285.526 351.185 284.767 350.732 284.302C350.29 283.826 349.565 283.588 348.556 283.588C347.547 283.588 346.816 283.826 346.363 284.302C345.921 284.767 345.7 285.526 345.7 286.58ZM360.345 283.112C361.071 282.387 362.221 282.024 363.796 282.024C365.372 282.024 366.516 282.387 367.23 283.112C367.956 283.837 368.318 284.993 368.318 286.58C368.318 288.178 367.961 289.34 367.247 290.065C366.533 290.779 365.383 291.136 363.796 291.136C362.21 291.136 361.059 290.779 360.345 290.065C359.631 289.34 359.274 288.178 359.274 286.58C359.274 284.993 359.631 283.837 360.345 283.112ZM360.94 286.58C360.94 287.623 361.167 288.382 361.62 288.858C362.074 289.334 362.799 289.572 363.796 289.572C364.794 289.572 365.519 289.334 365.972 288.858C366.426 288.382 366.652 287.623 366.652 286.58C366.652 285.526 366.426 284.767 365.972 284.302C365.53 283.826 364.805 283.588 363.796 283.588C362.788 283.588 362.057 283.826 361.603 284.302C361.161 284.767 360.94 285.526 360.94 286.58ZM370.359 291V282.16H378.842V291H377.176V283.724H372.025V291H370.359ZM389.219 283.724H385.683V291H384.017V283.724H380.481V282.16H389.219V283.724ZM392.307 291H390.845V282.16H392.511V288.331L397.866 282.16H399.328V291H397.662V284.829L392.307 291ZM401.852 291V282.16H404.555L407.7 289.317L410.845 282.16H413.548V291H411.882V283.656L408.584 291H406.799L403.518 283.656V291H401.852ZM417.525 291H416.063V282.16H417.729V288.331L423.084 282.16H424.546V291H422.88V284.829L417.525 291ZM426.577 288.144H428.243C428.367 288.677 428.634 289.068 429.042 289.317C429.461 289.555 430.079 289.674 430.895 289.674C431.665 289.674 432.232 289.572 432.595 289.368C432.957 289.153 433.139 288.807 433.139 288.331C433.139 287.912 432.997 287.611 432.714 287.43C432.442 287.237 431.983 287.141 431.337 287.141H429.671V285.883H431.235C431.847 285.883 432.289 285.792 432.561 285.611C432.833 285.418 432.969 285.129 432.969 284.744C432.969 284.302 432.793 283.985 432.442 283.792C432.102 283.588 431.563 283.486 430.827 283.486C430.022 283.486 429.421 283.605 429.025 283.843C428.628 284.081 428.373 284.472 428.26 285.016H426.577C426.724 283.962 427.132 283.203 427.801 282.738C428.481 282.262 429.512 282.024 430.895 282.024C432.187 282.024 433.133 282.228 433.734 282.636C434.334 283.033 434.635 283.673 434.635 284.557C434.635 285.486 434.272 286.127 433.547 286.478C434.385 286.807 434.805 287.492 434.805 288.535C434.805 289.442 434.493 290.105 433.87 290.524C433.258 290.932 432.289 291.136 430.963 291.136C429.546 291.136 428.492 290.904 427.801 290.439C427.121 289.963 426.713 289.198 426.577 288.144ZM438.343 291H436.881V282.16H438.547V288.331L443.902 282.16H445.364V291H443.698V284.829L438.343 291ZM447.888 295.25V282.16H449.554V283.401C450.177 282.483 451.277 282.024 452.852 282.024C454.269 282.024 455.294 282.387 455.929 283.112C456.575 283.826 456.898 284.982 456.898 286.58C456.898 288.167 456.575 289.323 455.929 290.048C455.294 290.773 454.269 291.136 452.852 291.136C451.277 291.136 450.177 290.677 449.554 289.759V295.25H447.888ZM450.251 288.875C450.704 289.34 451.424 289.572 452.41 289.572C453.396 289.572 454.11 289.34 454.552 288.875C455.005 288.399 455.232 287.634 455.232 286.58C455.232 285.537 455.005 284.778 454.552 284.302C454.11 283.826 453.396 283.588 452.41 283.588C451.424 283.588 450.704 283.826 450.251 284.302C449.809 284.778 449.588 285.537 449.588 286.58C449.588 287.634 449.809 288.399 450.251 288.875ZM461.55 291L457.861 282.16H459.646L462.434 288.824L465.239 282.16H467.024L461.567 295.25H459.782L461.55 291ZM468.72 290.048C468.017 289.323 467.666 288.167 467.666 286.58C467.666 284.993 468.017 283.837 468.72 283.112C469.434 282.387 470.584 282.024 472.171 282.024C473.746 282.024 474.879 282.387 475.571 283.112C476.273 283.837 476.625 284.993 476.625 286.58C476.625 286.637 476.619 286.722 476.608 286.835C476.608 286.948 476.608 287.033 476.608 287.09H469.366C469.422 287.974 469.677 288.626 470.131 289.045C470.595 289.464 471.281 289.674 472.188 289.674C473.514 289.674 474.358 289.221 474.721 288.314H476.455C476.217 289.357 475.729 290.088 474.993 290.507C474.267 290.926 473.327 291.136 472.171 291.136C470.584 291.136 469.434 290.773 468.72 290.048ZM472.188 283.486C471.338 283.486 470.68 283.673 470.216 284.047C469.762 284.41 469.49 285.005 469.4 285.832H474.959C474.868 284.993 474.596 284.393 474.143 284.03C473.701 283.667 473.049 283.486 472.188 283.486ZM478.667 291V282.16H481.37L484.515 289.317L487.66 282.16H490.363V291H488.697V283.656L485.399 291H483.614L480.333 283.656V291H478.667ZM197.924 312H196.258V303.16H197.924V306.798H203.075V303.16H204.741V312H203.075V308.362H197.924V312ZM210.325 312.136C209.146 312.136 208.285 311.926 207.741 311.507C207.197 311.088 206.925 310.413 206.925 309.484C206.925 308.521 207.225 307.835 207.826 307.427C208.438 307.008 209.418 306.798 210.767 306.798H213.776C213.776 305.993 213.572 305.41 213.164 305.047C212.756 304.673 212.104 304.486 211.209 304.486C210.495 304.486 209.945 304.605 209.56 304.843C209.175 305.07 208.914 305.438 208.778 305.948H207.129C207.288 304.928 207.696 304.186 208.353 303.721C209.01 303.256 209.985 303.024 211.277 303.024C212.728 303.024 213.782 303.324 214.439 303.925C215.108 304.514 215.442 305.461 215.442 306.764V312H213.776V310.861C213.107 311.711 211.957 312.136 210.325 312.136ZM208.591 309.416C208.591 309.858 208.761 310.181 209.101 310.385C209.452 310.578 209.991 310.674 210.716 310.674C211.679 310.674 212.399 310.498 212.875 310.147C213.362 309.796 213.663 309.235 213.776 308.464V308.056H211.192C209.458 308.056 208.591 308.509 208.591 309.416ZM230.962 312H217.923V303.16H219.589V310.436H223.618V303.16H225.284V310.436H229.296V303.16H230.962V312ZM245.965 304.724H242.429V312H240.763V304.724H237.227V303.16H245.965V304.724ZM247.59 316.25V303.16H249.256V304.401C249.879 303.483 250.979 303.024 252.554 303.024C253.971 303.024 254.996 303.387 255.631 304.112C256.277 304.826 256.6 305.982 256.6 307.58C256.6 309.167 256.277 310.323 255.631 311.048C254.996 311.773 253.971 312.136 252.554 312.136C250.979 312.136 249.879 311.677 249.256 310.759V316.25H247.59ZM249.953 309.875C250.406 310.34 251.126 310.572 252.112 310.572C253.098 310.572 253.812 310.34 254.254 309.875C254.707 309.399 254.934 308.634 254.934 307.58C254.934 306.537 254.707 305.778 254.254 305.302C253.812 304.826 253.098 304.588 252.112 304.588C251.126 304.588 250.406 304.826 249.953 305.302C249.511 305.778 249.29 306.537 249.29 307.58C249.29 308.634 249.511 309.399 249.953 309.875ZM261.252 312L257.563 303.16H259.348L262.136 309.824L264.941 303.16H266.726L261.269 316.25H259.484L261.252 312ZM268.546 314.686H266.88V310.436H268.104C268.455 310.198 268.71 309.756 268.869 309.11C269.039 308.464 269.169 307.257 269.26 305.489L269.379 303.16H276.553V310.436H278.202V314.686H276.536V312H268.546V314.686ZM270.093 310.436H274.887V304.724H270.926L270.892 305.625C270.778 308.005 270.512 309.609 270.093 310.436ZM281.285 312.136C280.797 312.136 280.446 312.051 280.231 311.881C280.027 311.711 279.925 311.388 279.925 310.912C279.925 310.481 280.021 310.17 280.214 309.977C280.406 309.784 280.718 309.688 281.149 309.688C281.568 309.688 281.874 309.784 282.067 309.977C282.271 310.17 282.373 310.481 282.373 310.912V311.932C282.373 313.043 282.174 313.847 281.778 314.346C281.381 314.845 280.746 315.094 279.874 315.094V314.312C280.361 314.312 280.718 314.136 280.945 313.785C281.171 313.445 281.285 312.895 281.285 312.136ZM290.144 314.686H288.478V310.436H289.702C290.054 310.198 290.309 309.756 290.467 309.11C290.637 308.464 290.768 307.257 290.858 305.489L290.977 303.16H298.151V310.436H299.8V314.686H298.134V312H290.144V314.686ZM291.691 310.436H296.485V304.724H292.524L292.49 305.625C292.377 308.005 292.111 309.609 291.691 310.436ZM301.166 312V310.334H301.693C301.977 310.334 302.192 310.226 302.339 310.011C302.498 309.784 302.628 309.325 302.73 308.634C302.844 307.931 302.934 306.883 303.002 305.489L303.121 303.16H310.312V312H308.646V304.724H304.685L304.651 305.625C304.572 307.325 304.413 308.645 304.175 309.586C303.949 310.515 303.648 311.15 303.274 311.49C302.9 311.83 302.396 312 301.761 312H301.166ZM312.426 312L314.687 308.94C313.951 308.781 313.412 308.481 313.072 308.039C312.744 307.597 312.579 306.962 312.579 306.135C312.579 305.092 312.851 304.339 313.395 303.874C313.951 303.398 314.835 303.16 316.047 303.16H320.569V312H318.903V309.059H316.591L314.432 312H312.426ZM314.704 305.064C314.398 305.279 314.245 305.636 314.245 306.135C314.245 306.634 314.393 306.985 314.687 307.189C314.993 307.393 315.492 307.495 316.183 307.495H318.903V304.724H316.183C315.503 304.724 315.01 304.837 314.704 305.064ZM335.563 304.724H332.027V312H330.361V304.724H326.825V303.16H335.563V304.724ZM337.651 304.112C338.376 303.387 339.527 303.024 341.102 303.024C342.677 303.024 343.822 303.387 344.536 304.112C345.261 304.837 345.624 305.993 345.624 307.58C345.624 309.178 345.267 310.34 344.553 311.065C343.839 311.779 342.689 312.136 341.102 312.136C339.515 312.136 338.365 311.779 337.651 311.065C336.937 310.34 336.58 309.178 336.58 307.58C336.58 305.993 336.937 304.837 337.651 304.112ZM338.246 307.58C338.246 308.623 338.473 309.382 338.926 309.858C339.379 310.334 340.105 310.572 341.102 310.572C342.099 310.572 342.825 310.334 343.278 309.858C343.731 309.382 343.958 308.623 343.958 307.58C343.958 306.526 343.731 305.767 343.278 305.302C342.836 304.826 342.111 304.588 341.102 304.588C340.093 304.588 339.362 304.826 338.909 305.302C338.467 305.767 338.246 306.526 338.246 307.58ZM347.664 312V303.16H354.243V304.724H349.33V312H347.664ZM356.344 304.112C357.07 303.387 358.22 303.024 359.795 303.024C361.371 303.024 362.515 303.387 363.229 304.112C363.955 304.837 364.317 305.993 364.317 307.58C364.317 309.178 363.96 310.34 363.246 311.065C362.532 311.779 361.382 312.136 359.795 312.136C358.209 312.136 357.058 311.779 356.344 311.065C355.63 310.34 355.273 309.178 355.273 307.58C355.273 305.993 355.63 304.837 356.344 304.112ZM356.939 307.58C356.939 308.623 357.166 309.382 357.619 309.858C358.073 310.334 358.798 310.572 359.795 310.572C360.793 310.572 361.518 310.334 361.971 309.858C362.425 309.382 362.651 308.623 362.651 307.58C362.651 306.526 362.425 305.767 361.971 305.302C361.529 304.826 360.804 304.588 359.795 304.588C358.787 304.588 358.056 304.826 357.602 305.302C357.16 305.767 356.939 306.526 356.939 307.58ZM367.364 312.136C366.876 312.136 366.525 312.051 366.31 311.881C366.106 311.711 366.004 311.388 366.004 310.912C366.004 310.481 366.1 310.17 366.293 309.977C366.485 309.784 366.797 309.688 367.228 309.688C367.647 309.688 367.953 309.784 368.146 309.977C368.35 310.17 368.452 310.481 368.452 310.912V311.932C368.452 313.043 368.253 313.847 367.857 314.346C367.46 314.845 366.825 315.094 365.953 315.094V314.312C366.44 314.312 366.797 314.136 367.024 313.785C367.25 313.445 367.364 312.895 367.364 312.136ZM378.909 308.974C377.481 308.974 376.467 308.696 375.866 308.141C375.266 307.586 374.965 306.679 374.965 305.421V303.16H376.631V305.421C376.631 306.124 376.818 306.634 377.192 306.951C377.578 307.257 378.229 307.41 379.147 307.41C379.691 307.41 380.445 307.353 381.408 307.24V303.16H383.074V312H381.408V308.787C380.536 308.912 379.703 308.974 378.909 308.974ZM393.436 304.724H389.9V312H388.234V304.724H384.698V303.16H393.436V304.724ZM395.524 304.112C396.249 303.387 397.4 303.024 398.975 303.024C400.55 303.024 401.695 303.387 402.409 304.112C403.134 304.837 403.497 305.993 403.497 307.58C403.497 309.178 403.14 310.34 402.426 311.065C401.712 311.779 400.562 312.136 398.975 312.136C397.388 312.136 396.238 311.779 395.524 311.065C394.81 310.34 394.453 309.178 394.453 307.58C394.453 305.993 394.81 304.837 395.524 304.112ZM396.119 307.58C396.119 308.623 396.346 309.382 396.799 309.858C397.252 310.334 397.978 310.572 398.975 310.572C399.972 310.572 400.698 310.334 401.151 309.858C401.604 309.382 401.831 308.623 401.831 307.58C401.831 306.526 401.604 305.767 401.151 305.302C400.709 304.826 399.984 304.588 398.975 304.588C397.966 304.588 397.235 304.826 396.782 305.302C396.34 305.767 396.119 306.526 396.119 307.58ZM409.753 299.386L413.442 299.114V300.678L409.889 300.95C408.915 301.018 408.201 301.256 407.747 301.664C407.294 302.072 407.022 302.769 406.931 303.755C406.886 304.14 406.869 304.577 406.88 305.064C407.005 304.35 407.311 303.834 407.798 303.517C408.297 303.188 409.005 303.024 409.923 303.024C411.465 303.024 412.575 303.381 413.255 304.095C413.947 304.809 414.292 305.959 414.292 307.546C414.292 309.155 413.935 310.323 413.221 311.048C412.519 311.773 411.385 312.136 409.821 312.136C408.733 312.136 407.861 311.955 407.203 311.592C406.557 311.229 406.059 310.572 405.707 309.62C405.356 308.668 405.18 307.353 405.18 305.676C405.18 303.5 405.509 301.942 406.166 301.001C406.835 300.049 408.031 299.511 409.753 299.386ZM407.679 305.302C407.237 305.767 407.016 306.52 407.016 307.563C407.016 308.606 407.237 309.371 407.679 309.858C408.133 310.334 408.847 310.572 409.821 310.572C410.807 310.572 411.521 310.334 411.963 309.858C412.405 309.382 412.626 308.617 412.626 307.563C412.626 306.52 412.405 305.767 411.963 305.302C411.521 304.826 410.807 304.588 409.821 304.588C408.847 304.588 408.133 304.826 407.679 305.302ZM416.328 312V303.16H417.994V305.88H420.629C421.842 305.88 422.72 306.124 423.264 306.611C423.808 307.098 424.08 307.875 424.08 308.94C424.08 310.005 423.808 310.782 423.264 311.269C422.72 311.756 421.848 312 420.646 312H416.328ZM425.763 312V303.16H427.429V312H425.763ZM420.476 307.444H417.994V310.436H420.493C421.162 310.436 421.649 310.317 421.955 310.079C422.261 309.841 422.414 309.461 422.414 308.94C422.414 308.419 422.261 308.039 421.955 307.801C421.649 307.563 421.156 307.444 420.476 307.444ZM434.573 303.16H436.239V310.436H441.22V303.16H442.886V310.436H444.535V314.686H442.869V312H434.573V303.16ZM446.806 311.048C446.103 310.323 445.752 309.167 445.752 307.58C445.752 305.993 446.103 304.837 446.806 304.112C447.52 303.387 448.67 303.024 450.257 303.024C451.832 303.024 452.965 303.387 453.657 304.112C454.359 304.837 454.711 305.993 454.711 307.58C454.711 307.637 454.705 307.722 454.694 307.835C454.694 307.948 454.694 308.033 454.694 308.09H447.452C447.508 308.974 447.763 309.626 448.217 310.045C448.681 310.464 449.367 310.674 450.274 310.674C451.6 310.674 452.444 310.221 452.807 309.314H454.541C454.303 310.357 453.815 311.088 453.079 311.507C452.353 311.926 451.413 312.136 450.257 312.136C448.67 312.136 447.52 311.773 446.806 311.048ZM450.274 304.486C449.424 304.486 448.766 304.673 448.302 305.047C447.848 305.41 447.576 306.005 447.486 306.832H453.045C452.954 305.993 452.682 305.393 452.229 305.03C451.787 304.667 451.135 304.486 450.274 304.486ZM458.419 312H456.753V303.16H458.419V306.798H463.57V303.16H465.236V312H463.57V308.362H458.419V312ZM467.76 312V303.16H469.426V305.88H472.061C473.274 305.88 474.152 306.124 474.696 306.611C475.24 307.098 475.512 307.875 475.512 308.94C475.512 310.005 475.24 310.782 474.696 311.269C474.152 311.756 473.279 312 472.078 312H467.76ZM477.195 312V303.16H478.861V312H477.195ZM471.908 307.444H469.426V310.436H471.925C472.594 310.436 473.081 310.317 473.387 310.079C473.693 309.841 473.846 309.461 473.846 308.94C473.846 308.419 473.693 308.039 473.387 307.801C473.081 307.563 472.588 307.444 471.908 307.444ZM200.474 320.386L204.163 320.114V321.678L200.61 321.95C199.635 322.018 198.921 322.256 198.468 322.664C198.015 323.072 197.743 323.769 197.652 324.755C197.607 325.14 197.59 325.577 197.601 326.064C197.726 325.35 198.032 324.834 198.519 324.517C199.018 324.188 199.726 324.024 200.644 324.024C202.185 324.024 203.296 324.381 203.976 325.095C204.667 325.809 205.013 326.959 205.013 328.546C205.013 330.155 204.656 331.323 203.942 332.048C203.239 332.773 202.106 333.136 200.542 333.136C199.454 333.136 198.581 332.955 197.924 332.592C197.278 332.229 196.779 331.572 196.428 330.62C196.077 329.668 195.901 328.353 195.901 326.676C195.901 324.5 196.23 322.942 196.887 322.001C197.556 321.049 198.751 320.511 200.474 320.386ZM198.4 326.302C197.958 326.767 197.737 327.52 197.737 328.563C197.737 329.606 197.958 330.371 198.4 330.858C198.853 331.334 199.567 331.572 200.542 331.572C201.528 331.572 202.242 331.334 202.684 330.858C203.126 330.382 203.347 329.617 203.347 328.563C203.347 327.52 203.126 326.767 202.684 326.302C202.242 325.826 201.528 325.588 200.542 325.588C199.567 325.588 198.853 325.826 198.4 326.302ZM207.049 333V324.16H208.715V326.88H211.35C212.563 326.88 213.441 327.124 213.985 327.611C214.529 328.098 214.801 328.875 214.801 329.94C214.801 331.005 214.529 331.782 213.985 332.269C213.441 332.756 212.568 333 211.367 333H207.049ZM216.484 333V324.16H218.15V333H216.484ZM211.197 328.444H208.715V331.436H211.214C211.883 331.436 212.37 331.317 212.676 331.079C212.982 330.841 213.135 330.461 213.135 329.94C213.135 329.419 212.982 329.039 212.676 328.801C212.37 328.563 211.877 328.444 211.197 328.444ZM220.084 333V331.334H220.611C220.895 331.334 221.11 331.226 221.257 331.011C221.416 330.784 221.546 330.325 221.648 329.634C221.762 328.931 221.852 327.883 221.92 326.489L222.039 324.16H229.23V333H227.564V325.724H223.603L223.569 326.625C223.49 328.325 223.331 329.645 223.093 330.586C222.867 331.515 222.566 332.15 222.192 332.49C221.818 332.83 221.314 333 220.679 333H220.084ZM233.214 333H231.752V324.16H233.418V330.331L238.773 324.16H240.235V333H238.569V326.829L233.214 333ZM248.292 335.686H246.626V331.436H247.85C248.201 331.198 248.456 330.756 248.615 330.11C248.785 329.464 248.915 328.257 249.006 326.489L249.125 324.16H256.299V331.436H257.948V335.686H256.282V333H248.292V335.686ZM249.839 331.436H254.633V325.724H250.672L250.638 326.625C250.524 329.005 250.258 330.609 249.839 331.436ZM260.321 325.112C261.046 324.387 262.196 324.024 263.772 324.024C265.347 324.024 266.492 324.387 267.206 325.112C267.931 325.837 268.294 326.993 268.294 328.58C268.294 330.178 267.937 331.34 267.223 332.065C266.509 332.779 265.358 333.136 263.772 333.136C262.185 333.136 261.035 332.779 260.321 332.065C259.607 331.34 259.25 330.178 259.25 328.58C259.25 326.993 259.607 325.837 260.321 325.112ZM260.916 328.58C260.916 329.623 261.142 330.382 261.596 330.858C262.049 331.334 262.774 331.572 263.772 331.572C264.769 331.572 265.494 331.334 265.948 330.858C266.401 330.382 266.628 329.623 266.628 328.58C266.628 327.526 266.401 326.767 265.948 326.302C265.506 325.826 264.78 325.588 263.772 325.588C262.763 325.588 262.032 325.826 261.579 326.302C261.137 326.767 260.916 327.526 260.916 328.58ZM274.261 333.136C272.72 333.136 271.598 332.779 270.895 332.065C270.204 331.34 269.858 330.178 269.858 328.58C269.858 326.993 270.204 325.837 270.895 325.112C271.598 324.387 272.72 324.024 274.261 324.024C275.61 324.024 276.63 324.296 277.321 324.84C278.013 325.373 278.438 326.223 278.596 327.39H276.947C276.8 326.767 276.511 326.313 276.08 326.03C275.661 325.735 275.066 325.588 274.295 325.588C273.321 325.588 272.612 325.826 272.17 326.302C271.74 326.767 271.524 327.526 271.524 328.58C271.524 329.623 271.745 330.382 272.187 330.858C272.629 331.334 273.332 331.572 274.295 331.572C275.066 331.572 275.661 331.43 276.08 331.147C276.511 330.852 276.8 330.393 276.947 329.77H278.596C278.438 330.949 278.013 331.804 277.321 332.337C276.63 332.87 275.61 333.136 274.261 333.136ZM288.315 325.724H284.779V333H283.113V325.724H279.577V324.16H288.315V325.724ZM292.712 333L289.023 324.16H290.808L293.596 330.824L296.401 324.16H298.186L292.729 337.25H290.944L292.712 333ZM299.785 333V324.16H308.268V333H306.602V325.724H301.451V333H299.785ZM312.458 333H310.792V324.16H312.458V327.798H317.609V324.16H319.275V333H317.609V329.362H312.458V333ZM321.799 333V324.16H323.465V326.88H326.1C327.313 326.88 328.191 327.124 328.735 327.611C329.279 328.098 329.551 328.875 329.551 329.94C329.551 331.005 329.279 331.782 328.735 332.269C328.191 332.756 327.318 333 326.117 333H321.799ZM331.234 333V324.16H332.9V333H331.234ZM325.947 328.444H323.465V331.436H325.964C326.633 331.436 327.12 331.317 327.426 331.079C327.732 330.841 327.885 330.461 327.885 329.94C327.885 329.419 327.732 329.039 327.426 328.801C327.12 328.563 326.627 328.444 325.947 328.444ZM335.412 333V324.16H338.115L341.26 331.317L344.405 324.16H347.108V333H345.442V325.656L342.144 333H340.359L337.078 325.656V333H335.412ZM351.085 333H349.623V324.16H351.289V330.331L356.644 324.16H358.106V333H356.44V326.829L351.085 333Z" fill="white" fill-opacity="0.9"/>
<g clip-path="url(#clip0_66_2446)">
<path d="M483.204 414.36C467.929 404.989 443.253 404.989 428.067 414.36C412.882 423.731 412.973 438.965 428.248 448.336C443.524 457.707 468.2 457.707 483.385 448.336C498.57 438.917 498.48 423.731 483.204 414.36ZM476.199 429.113C474.888 429.546 473.578 430.027 472.267 430.459C471.454 430.699 470.957 430.747 470.595 430.555C470.414 430.411 470.233 430.219 470.053 429.93C469.194 428.441 467.883 427.143 466.121 426.086C465.895 425.942 465.624 425.798 465.352 425.653C464.765 425.317 464.223 425.077 463.499 424.884C460.969 424.26 458.709 425.269 459.025 426.951C459.161 427.816 459.613 428.585 460.155 429.402C461.059 430.747 462.053 432.093 462.686 433.535C464.81 438.052 460.2 442.521 452.789 442.954C450.122 443.098 447.591 442.762 445.241 441.945C444.202 441.608 443.433 441.608 442.665 442.185C441.897 442.714 441.038 443.194 440.225 443.675C439.501 444.107 438.733 444.155 438.01 443.723C437.468 443.434 436.971 443.098 436.428 442.81C436.067 442.569 435.705 442.377 435.344 442.137C434.575 441.656 434.666 441.176 435.389 440.695C435.976 440.311 436.564 439.974 437.106 439.59C438.417 438.773 438.417 438.725 437.332 437.812C435.976 436.658 434.756 435.457 433.988 434.111C433.4 433.054 433.536 432.814 435.118 432.237C436.293 431.853 437.423 431.42 438.598 431.036C439.456 430.747 439.953 430.699 440.315 430.892C440.541 431.036 440.677 431.228 440.857 431.564C441.626 433.102 442.936 434.448 444.518 435.745C444.789 435.986 445.106 436.178 445.377 436.37C446.235 436.899 447.23 437.283 448.36 437.572C451.297 438.292 453.918 437.043 453.647 435.073C453.557 434.4 453.24 433.823 452.834 433.198C451.839 431.612 450.529 430.123 449.851 428.441C448.766 425.75 449.263 423.299 452.743 421.376C456.72 419.214 461.149 419.07 465.85 420.415C467.793 420.992 467.748 420.992 469.239 420.079C469.736 419.742 470.233 419.454 470.731 419.166C471.86 418.493 472.267 418.493 473.397 419.166C473.759 419.358 474.075 419.598 474.436 419.79C476.832 421.232 476.832 421.232 474.482 422.722C472.809 423.731 472.809 423.731 474.21 424.933C475.295 425.846 476.154 426.807 476.787 427.864C477.284 428.393 477.103 428.825 476.199 429.113ZM503.587 460.735C499.384 463.33 492.559 463.33 488.311 460.735C484.108 458.14 484.063 453.911 488.266 451.316C492.469 448.721 499.293 448.721 503.541 451.316C507.79 453.911 507.835 458.14 503.587 460.735ZM423.141 411.332C418.938 413.928 412.114 413.928 407.866 411.332C403.617 408.737 403.617 404.508 407.821 401.913C412.024 399.318 418.848 399.318 423.096 401.913C427.299 404.508 427.344 408.737 423.141 411.332ZM560.757 440.599L440.315 366.639C433.355 362.362 422.057 362.362 415.142 366.639L350.56 406.527C343.645 410.804 343.69 417.772 350.65 422.049L471.092 496.009C478.052 500.286 489.35 500.286 496.265 496.009L560.802 456.122C567.762 451.844 567.717 444.876 560.757 440.599ZM497.576 481.928C496.807 481.159 495.904 480.438 494.819 479.766C487.769 475.44 476.335 475.44 469.33 479.766C468.787 480.102 468.335 480.438 467.838 480.823L374.332 423.395C375.236 423.01 376.094 422.578 376.908 422.097C383.913 417.772 383.868 410.756 376.817 406.431C376.049 405.95 375.236 405.518 374.377 405.181L412.927 381.345C413.515 381.874 414.193 382.354 414.961 382.835C422.011 387.16 433.445 387.16 440.451 382.835C441.264 382.354 441.942 381.825 442.575 381.249L536.397 438.821C535.132 439.302 534.002 439.83 532.917 440.503C525.912 444.828 525.912 451.892 533.008 456.218C534.093 456.89 535.313 457.419 536.578 457.9L497.576 481.928ZM347.487 436.851C350.56 435.169 355.305 435.409 358.243 437.235L484.153 514.511L552.215 472.413C555.153 470.587 559.989 470.587 562.971 472.413C565.954 474.239 565.954 477.219 563.017 479.045L490.661 523.738C487.136 525.948 481.351 525.948 477.781 523.738L475.25 522.2L473.487 521.095L347.261 443.627C344.187 441.752 344.233 438.629 347.487 436.851ZM563.107 503.217L490.751 547.91C487.226 550.121 481.442 550.121 477.871 547.91L475.386 546.372L473.578 545.267L347.351 467.799C344.278 465.925 344.368 462.801 347.622 461.023C350.65 459.341 355.441 459.582 358.378 461.408L484.244 538.683L552.306 496.634C555.288 494.807 560.079 494.807 563.062 496.634C566.045 498.412 566.09 501.391 563.107 503.217Z" fill="url(#paint1_linear_66_2446)"/>
</g>
<defs>
<filter id="filter0_d_66_2446" x="0" y="0" width="700" height="700" filterUnits="userSpaceOnUse" color-interpolation-filters="sRGB">
<feFlood flood-opacity="0" result="BackgroundImageFix"/>
<feColorMatrix in="SourceAlpha" type="matrix" values="0 0 0 0 0 0 0 0 0 0 0 0 0 0 0 0 0 0 127 0" result="hardAlpha"/>
<feOffset/>
<feGaussianBlur stdDeviation="75"/>
<feComposite in2="hardAlpha" operator="out"/>
<feColorMatrix type="matrix" values="0 0 0 0 0.231373 0 0 0 0 0.372549 0 0 0 0 0.588235 0 0 0 0.35 0"/>
<feBlend mode="normal" in2="BackgroundImageFix" result="effect1_dropShadow_66_2446"/>
<feBlend mode="normal" in="SourceGraphic" in2="effect1_dropShadow_66_2446" result="shape"/>
</filter>
<linearGradient id="paint0_linear_66_2446" x1="194.364" y1="186.697" x2="501.61" y2="547.234" gradientUnits="userSpaceOnUse">
<stop stop-color="#527791"/>
<stop offset="0.519792" stop-color="#325597"/>
<stop offset="0.927909" stop-color="#193895"/>
</linearGradient>
<linearGradient id="paint1_linear_66_2446" x1="364" y1="406" x2="528" y2="536" gradientUnits="userSpaceOnUse">
<stop stop-color="#5577CD"/>
<stop offset="1" stop-color="#5577CD"/>
</linearGradient>
<clipPath id="clip0_66_2446">
<rect width="211" height="211" fill="white" transform="translate(339 339)"/>
</clipPath>
</defs>
</svg>
