<svg width="560" height="560" viewBox="0 0 560 560" fill="none" xmlns="http://www.w3.org/2000/svg">
<g filter="url(#filter0_d_66_2441)">
<rect x="80" y="80" width="400" height="400" rx="6" fill="url(#paint0_linear_66_2441)"/>
<rect x="80.5" y="80.5" width="399" height="399" rx="5.5" stroke="url(#paint1_linear_66_2441)" stroke-opacity="0.2"/>
</g>
<path d="M119.002 146V127.8H129.116C131.144 127.8 132.617 128.181 133.536 128.944C134.455 129.707 134.914 130.929 134.914 132.61C134.914 134.551 134.307 135.877 133.094 136.588C134.706 137.264 135.512 138.737 135.512 141.008C135.512 142.759 135.053 144.033 134.134 144.83C133.215 145.61 131.742 146 129.714 146H119.002ZM122.148 143.036H129.714C130.702 143.036 131.421 142.845 131.872 142.464C132.323 142.065 132.548 141.433 132.548 140.566C132.548 139.717 132.323 139.101 131.872 138.72C131.421 138.321 130.702 138.122 129.714 138.122H122.148V143.036ZM122.148 135.34H129.012C130.087 135.34 130.841 135.167 131.274 134.82C131.725 134.456 131.95 133.867 131.95 133.052C131.95 132.255 131.725 131.674 131.274 131.31C130.823 130.946 130.104 130.764 129.116 130.764H122.148V135.34ZM151.486 146.234C149.129 146.234 147.413 145.679 146.338 144.57C145.263 143.461 144.726 141.684 144.726 139.24C144.726 136.796 145.263 135.019 146.338 133.91C147.413 132.801 149.129 132.246 151.486 132.246C153.583 132.246 155.161 132.671 156.218 133.52C157.275 134.369 157.925 135.721 158.168 137.576H155.23C155.039 136.675 154.649 136.025 154.06 135.626C153.471 135.227 152.63 135.028 151.538 135.028C150.186 135.028 149.207 135.366 148.6 136.042C147.993 136.701 147.69 137.767 147.69 139.24C147.69 140.713 147.993 141.788 148.6 142.464C149.207 143.123 150.186 143.452 151.538 143.452C152.613 143.452 153.445 143.253 154.034 142.854C154.641 142.438 155.039 141.788 155.23 140.904H158.168C157.943 142.741 157.293 144.093 156.218 144.96C155.161 145.809 153.583 146.234 151.486 146.234ZM160.941 152.5V132.48H163.879V134.144C164.833 132.879 166.445 132.246 168.715 132.246C170.847 132.246 172.39 132.801 173.343 133.91C174.314 135.019 174.799 136.796 174.799 139.24C174.799 141.684 174.314 143.461 173.343 144.57C172.39 145.679 170.847 146.234 168.715 146.234C166.445 146.234 164.833 145.601 163.879 144.336V152.5H160.941ZM164.867 142.464C165.491 143.123 166.497 143.452 167.883 143.452C169.27 143.452 170.275 143.123 170.899 142.464C171.523 141.788 171.835 140.713 171.835 139.24C171.835 137.767 171.523 136.701 170.899 136.042C170.275 135.366 169.27 135.028 167.883 135.028C166.497 135.028 165.491 135.366 164.867 136.042C164.243 136.701 163.931 137.767 163.931 139.24C163.931 140.713 164.243 141.788 164.867 142.464ZM178.559 133.91C179.669 132.801 181.437 132.246 183.863 132.246C186.29 132.246 188.058 132.801 189.167 133.91C190.277 135.019 190.831 136.796 190.831 139.24C190.831 141.684 190.277 143.461 189.167 144.57C188.058 145.679 186.29 146.234 183.863 146.234C181.437 146.234 179.669 145.679 178.559 144.57C177.467 143.461 176.921 141.684 176.921 139.24C176.921 136.796 177.467 135.019 178.559 133.91ZM180.821 136.042C180.197 136.701 179.885 137.767 179.885 139.24C179.885 140.713 180.197 141.788 180.821 142.464C181.463 143.123 182.477 143.452 183.863 143.452C185.267 143.452 186.281 143.123 186.905 142.464C187.547 141.788 187.867 140.713 187.867 139.24C187.867 137.767 187.547 136.701 186.905 136.042C186.281 135.366 185.267 135.028 183.863 135.028C182.477 135.028 181.463 135.366 180.821 136.042ZM196.582 146H193.644V132.48H196.582V137.732H198.818L202.978 132.48H206.566L201.288 139.084L206.93 146H203.29L198.818 140.514H196.582V146ZM211.783 146H209.209V132.48H212.147V141.242L219.687 132.48H222.261V146H219.297V137.212L211.783 146ZM238.779 146.234C236.422 146.234 234.706 145.679 233.631 144.57C232.556 143.461 232.019 141.684 232.019 139.24C232.019 136.796 232.556 135.019 233.631 133.91C234.706 132.801 236.422 132.246 238.779 132.246C240.876 132.246 242.454 132.671 243.511 133.52C244.568 134.369 245.218 135.721 245.461 137.576H242.523C242.332 136.675 241.942 136.025 241.353 135.626C240.764 135.227 239.923 135.028 238.831 135.028C237.479 135.028 236.5 135.366 235.893 136.042C235.286 136.701 234.983 137.767 234.983 139.24C234.983 140.713 235.286 141.788 235.893 142.464C236.5 143.123 237.479 143.452 238.831 143.452C239.906 143.452 240.738 143.253 241.327 142.854C241.934 142.438 242.332 141.788 242.523 140.904H245.461C245.236 142.741 244.586 144.093 243.511 144.96C242.454 145.809 240.876 146.234 238.779 146.234ZM249.828 150.056H246.89V143.244H248.814C249.299 142.88 249.655 142.23 249.88 141.294C250.123 140.341 250.305 138.633 250.426 136.172L250.608 132.48H261.762V143.244H264.258V150.056H261.32V146H249.828V150.056ZM252.246 143.244H258.798V135.236H253.364L253.312 136.432C253.156 139.639 252.801 141.909 252.246 143.244ZM271.347 146.234C269.579 146.234 268.279 145.905 267.447 145.246C266.615 144.57 266.199 143.513 266.199 142.074C266.199 140.583 266.649 139.526 267.551 138.902C268.469 138.261 269.951 137.94 271.997 137.94H276.339C276.304 136.865 276.001 136.085 275.429 135.6C274.874 135.097 273.99 134.846 272.777 134.846C271.789 134.846 271.026 135.011 270.489 135.34C269.951 135.652 269.596 136.163 269.423 136.874H266.485C266.727 135.262 267.351 134.092 268.357 133.364C269.362 132.619 270.87 132.246 272.881 132.246C275.134 132.246 276.763 132.705 277.769 133.624C278.791 134.543 279.303 136.016 279.303 138.044V146H276.339V144.466C275.333 145.645 273.669 146.234 271.347 146.234ZM269.137 141.97C269.137 143.079 270.107 143.634 272.049 143.634C273.383 143.634 274.389 143.391 275.065 142.906C275.741 142.421 276.165 141.658 276.339 140.618V140.15H272.777C270.35 140.15 269.137 140.757 269.137 141.97ZM282.064 139.24C282.064 136.813 282.61 135.045 283.702 133.936C284.794 132.809 286.553 132.246 288.98 132.246C291.407 132.246 293.157 132.801 294.232 133.91C295.307 135.019 295.844 136.796 295.844 139.24C295.844 139.431 295.827 139.734 295.792 140.15H285.106C285.21 141.363 285.574 142.247 286.198 142.802C286.839 143.357 287.775 143.634 289.006 143.634C290.826 143.634 291.996 143.019 292.516 141.788H295.584C295.237 143.435 294.501 144.587 293.374 145.246C292.247 145.905 290.783 146.234 288.98 146.234C286.553 146.234 284.794 145.679 283.702 144.57C282.61 143.461 282.064 141.684 282.064 139.24ZM285.132 137.94H292.854C292.698 136.831 292.308 136.042 291.684 135.574C291.06 135.089 290.167 134.846 289.006 134.846C287.845 134.846 286.943 135.089 286.302 135.574C285.678 136.059 285.288 136.848 285.132 137.94ZM298.66 146V132.48H303.47L307.838 142.906L312.206 132.48H317.016V146H314.078V135.184L309.424 146H306.252L301.598 135.184V146H298.66ZM118.742 184.5V164.48H121.68V166.144C122.633 164.879 124.245 164.246 126.516 164.246C128.648 164.246 130.191 164.801 131.144 165.91C132.115 167.019 132.6 168.796 132.6 171.24C132.6 173.684 132.115 175.461 131.144 176.57C130.191 177.679 128.648 178.234 126.516 178.234C124.245 178.234 122.633 177.601 121.68 176.336V184.5H118.742ZM122.668 174.464C123.292 175.123 124.297 175.452 125.684 175.452C127.071 175.452 128.076 175.123 128.7 174.464C129.324 173.788 129.636 172.713 129.636 171.24C129.636 169.767 129.324 168.701 128.7 168.042C128.076 167.366 127.071 167.028 125.684 167.028C124.297 167.028 123.292 167.366 122.668 168.042C122.044 168.701 121.732 169.767 121.732 171.24C121.732 172.713 122.044 173.788 122.668 174.464ZM140.026 178.234C138.258 178.234 136.958 177.905 136.126 177.246C135.294 176.57 134.878 175.513 134.878 174.074C134.878 172.583 135.329 171.526 136.23 170.902C137.149 170.261 138.631 169.94 140.676 169.94H145.018C144.984 168.865 144.68 168.085 144.108 167.6C143.554 167.097 142.67 166.846 141.456 166.846C140.468 166.846 139.706 167.011 139.168 167.34C138.631 167.652 138.276 168.163 138.102 168.874H135.164C135.407 167.262 136.031 166.092 137.036 165.364C138.042 164.619 139.55 164.246 141.56 164.246C143.814 164.246 145.443 164.705 146.448 165.624C147.471 166.543 147.982 168.016 147.982 170.044V178H145.018V176.466C144.013 177.645 142.349 178.234 140.026 178.234ZM137.816 173.97C137.816 175.079 138.787 175.634 140.728 175.634C142.063 175.634 143.068 175.391 143.744 174.906C144.42 174.421 144.845 173.658 145.018 172.618V172.15H141.456C139.03 172.15 137.816 172.757 137.816 173.97ZM157.92 158.682L163.562 158.266V161.048L158.154 161.438C156.854 161.525 155.883 161.828 155.242 162.348C154.6 162.868 154.202 163.735 154.046 164.948C153.959 165.399 153.916 165.997 153.916 166.742C154.124 165.875 154.574 165.243 155.268 164.844C155.961 164.445 156.94 164.246 158.206 164.246C160.546 164.246 162.244 164.801 163.302 165.91C164.359 167.002 164.888 168.761 164.888 171.188C164.888 173.649 164.342 175.443 163.25 176.57C162.158 177.679 160.407 178.234 157.998 178.234C156.316 178.234 154.982 177.957 153.994 177.402C153.006 176.847 152.243 175.851 151.706 174.412C151.186 172.956 150.926 170.954 150.926 168.406C150.926 165.061 151.428 162.651 152.434 161.178C153.439 159.705 155.268 158.873 157.92 158.682ZM154.982 168.016C154.358 168.675 154.046 169.741 154.046 171.214C154.046 172.687 154.358 173.762 154.982 174.438C155.606 175.114 156.611 175.452 157.998 175.452C159.367 175.452 160.364 175.123 160.988 174.464C161.612 173.788 161.924 172.705 161.924 171.214C161.924 169.741 161.612 168.675 160.988 168.016C160.364 167.357 159.367 167.028 157.998 167.028C156.611 167.028 155.606 167.357 154.982 168.016ZM168.657 165.91C169.766 164.801 171.534 164.246 173.961 164.246C176.388 164.246 178.156 164.801 179.265 165.91C180.374 167.019 180.929 168.796 180.929 171.24C180.929 173.684 180.374 175.461 179.265 176.57C178.156 177.679 176.388 178.234 173.961 178.234C171.534 178.234 169.766 177.679 168.657 176.57C167.565 175.461 167.019 173.684 167.019 171.24C167.019 168.796 167.565 167.019 168.657 165.91ZM170.919 168.042C170.295 168.701 169.983 169.767 169.983 171.24C169.983 172.713 170.295 173.788 170.919 174.464C171.56 175.123 172.574 175.452 173.961 175.452C175.365 175.452 176.379 175.123 177.003 174.464C177.644 173.788 177.965 172.713 177.965 171.24C177.965 169.767 177.644 168.701 177.003 168.042C176.379 167.366 175.365 167.028 173.961 167.028C172.574 167.028 171.56 167.366 170.919 168.042ZM195.654 167.236H190.48V178H187.516V167.236H182.316V164.48H195.654V167.236ZM196.585 164.48H199.731L203.709 174.126L207.635 164.48H210.807L202.643 184.5H199.471L202.123 178L196.585 164.48ZM213.46 171.864L213.252 159.8H216.398L216.19 171.864H213.46ZM213.226 174.542C213.555 174.213 214.084 174.048 214.812 174.048C215.54 174.048 216.069 174.213 216.398 174.542C216.745 174.871 216.918 175.4 216.918 176.128C216.918 176.873 216.745 177.411 216.398 177.74C216.069 178.069 215.54 178.234 214.812 178.234C214.084 178.234 213.555 178.069 213.226 177.74C212.897 177.411 212.732 176.873 212.732 176.128C212.732 175.4 212.897 174.871 213.226 174.542Z" fill="white"/>
<path d="M118.428 223V211.1H124.344C125.772 211.1 126.809 211.4 127.455 212.001C128.101 212.602 128.424 213.571 128.424 214.908C128.424 216.245 128.101 217.214 127.455 217.815C126.809 218.416 125.772 218.716 124.344 218.716H120.196V223H118.428ZM120.196 217.05H124.242C125.092 217.05 125.71 216.88 126.095 216.54C126.48 216.2 126.673 215.656 126.673 214.908C126.673 214.16 126.48 213.616 126.095 213.276C125.71 212.936 125.092 212.766 124.242 212.766H120.196V217.05ZM133.188 223.136C132.009 223.136 131.148 222.926 130.604 222.507C130.06 222.088 129.788 221.413 129.788 220.484C129.788 219.521 130.088 218.835 130.689 218.427C131.301 218.008 132.281 217.798 133.63 217.798H136.639C136.639 216.993 136.435 216.41 136.027 216.047C135.619 215.673 134.967 215.486 134.072 215.486C133.358 215.486 132.808 215.605 132.423 215.843C132.038 216.07 131.777 216.438 131.641 216.948H129.992C130.151 215.928 130.559 215.186 131.216 214.721C131.873 214.256 132.848 214.024 134.14 214.024C135.591 214.024 136.645 214.324 137.302 214.925C137.971 215.514 138.305 216.461 138.305 217.764V223H136.639V221.861C135.97 222.711 134.82 223.136 133.188 223.136ZM131.454 220.416C131.454 220.858 131.624 221.181 131.964 221.385C132.315 221.578 132.854 221.674 133.579 221.674C134.542 221.674 135.262 221.498 135.738 221.147C136.225 220.796 136.526 220.235 136.639 219.464V219.056H134.055C132.321 219.056 131.454 219.509 131.454 220.416ZM144.713 223.136C143.172 223.136 142.05 222.779 141.347 222.065C140.656 221.34 140.31 220.178 140.31 218.58C140.31 216.993 140.656 215.837 141.347 215.112C142.05 214.387 143.172 214.024 144.713 214.024C146.062 214.024 147.082 214.296 147.773 214.84C148.465 215.373 148.89 216.223 149.048 217.39H147.399C147.252 216.767 146.963 216.313 146.532 216.03C146.113 215.735 145.518 215.588 144.747 215.588C143.773 215.588 143.064 215.826 142.622 216.302C142.192 216.767 141.976 217.526 141.976 218.58C141.976 219.623 142.197 220.382 142.639 220.858C143.081 221.334 143.784 221.572 144.747 221.572C145.518 221.572 146.113 221.43 146.532 221.147C146.963 220.852 147.252 220.393 147.399 219.77H149.048C148.89 220.949 148.465 221.804 147.773 222.337C147.082 222.87 146.062 223.136 144.713 223.136ZM151.046 223V214.16H159.529V223H157.863V215.724H152.712V223H151.046ZM163.515 223H162.053V214.16H163.719V220.331L169.074 214.16H170.536V223H168.87V216.829L163.515 223ZM176.987 223.136C175.445 223.136 174.323 222.779 173.621 222.065C172.929 221.34 172.584 220.178 172.584 218.58C172.584 216.993 172.929 215.837 173.621 215.112C174.323 214.387 175.445 214.024 176.987 214.024C178.335 214.024 179.355 214.296 180.047 214.84C180.738 215.373 181.163 216.223 181.322 217.39H179.673C179.525 216.767 179.236 216.313 178.806 216.03C178.386 215.735 177.791 215.588 177.021 215.588C176.046 215.588 175.338 215.826 174.896 216.302C174.465 216.767 174.25 217.526 174.25 218.58C174.25 219.623 174.471 220.382 174.913 220.858C175.355 221.334 176.057 221.572 177.021 221.572C177.791 221.572 178.386 221.43 178.806 221.147C179.236 220.852 179.525 220.393 179.673 219.77H181.322C181.163 220.949 180.738 221.804 180.047 222.337C179.355 222.87 178.335 223.136 176.987 223.136ZM183.32 223V214.16H184.986V216.88H187.621C188.833 216.88 189.712 217.124 190.256 217.611C190.8 218.098 191.072 218.875 191.072 219.94C191.072 221.005 190.8 221.782 190.256 222.269C189.712 222.756 188.839 223 187.638 223H183.32ZM192.755 223V214.16H194.421V223H192.755ZM187.468 218.444H184.986V221.436H187.485C188.153 221.436 188.641 221.317 188.947 221.079C189.253 220.841 189.406 220.461 189.406 219.94C189.406 219.419 189.253 219.039 188.947 218.801C188.641 218.563 188.148 218.444 187.468 218.444ZM196.933 223V214.16H201.455C202.577 214.16 203.393 214.347 203.903 214.721C204.413 215.095 204.668 215.696 204.668 216.523C204.668 217.418 204.379 218.047 203.801 218.41C204.651 218.773 205.076 219.487 205.076 220.552C205.076 221.413 204.815 222.037 204.294 222.422C203.772 222.807 202.928 223 201.761 223H196.933ZM201.608 219.141H198.599V221.538H201.608C202.242 221.538 202.701 221.447 202.985 221.266C203.268 221.073 203.41 220.762 203.41 220.331C203.41 219.912 203.268 219.611 202.985 219.43C202.701 219.237 202.242 219.141 201.608 219.141ZM198.599 217.883H201.251C201.874 217.883 202.322 217.792 202.594 217.611C202.866 217.43 203.002 217.141 203.002 216.744C203.002 216.359 202.86 216.075 202.577 215.894C202.305 215.713 201.868 215.622 201.268 215.622H198.599V217.883ZM210.203 223.136C209.024 223.136 208.163 222.926 207.619 222.507C207.075 222.088 206.803 221.413 206.803 220.484C206.803 219.521 207.103 218.835 207.704 218.427C208.316 218.008 209.296 217.798 210.645 217.798H213.654C213.654 216.993 213.45 216.41 213.042 216.047C212.634 215.673 211.982 215.486 211.087 215.486C210.373 215.486 209.823 215.605 209.438 215.843C209.052 216.07 208.792 216.438 208.656 216.948H207.007C207.165 215.928 207.573 215.186 208.231 214.721C208.888 214.256 209.863 214.024 211.155 214.024C212.605 214.024 213.659 214.324 214.317 214.925C214.985 215.514 215.32 216.461 215.32 217.764V223H213.654V221.861C212.985 222.711 211.835 223.136 210.203 223.136ZM208.469 220.416C208.469 220.858 208.639 221.181 208.979 221.385C209.33 221.578 209.868 221.674 210.594 221.674C211.557 221.674 212.277 221.498 212.753 221.147C213.24 220.796 213.54 220.235 213.654 219.464V219.056H211.07C209.336 219.056 208.469 219.509 208.469 220.416ZM218.379 222.048C217.676 221.323 217.325 220.167 217.325 218.58C217.325 216.993 217.676 215.837 218.379 215.112C219.093 214.387 220.243 214.024 221.83 214.024C223.405 214.024 224.539 214.387 225.23 215.112C225.933 215.837 226.284 216.993 226.284 218.58C226.284 218.637 226.278 218.722 226.267 218.835C226.267 218.948 226.267 219.033 226.267 219.09H219.025C219.082 219.974 219.337 220.626 219.79 221.045C220.255 221.464 220.94 221.674 221.847 221.674C223.173 221.674 224.017 221.221 224.38 220.314H226.114C225.876 221.357 225.389 222.088 224.652 222.507C223.927 222.926 222.986 223.136 221.83 223.136C220.243 223.136 219.093 222.773 218.379 222.048ZM221.847 215.486C220.997 215.486 220.34 215.673 219.875 216.047C219.422 216.41 219.15 217.005 219.059 217.832H224.618C224.527 216.993 224.255 216.393 223.802 216.03C223.36 215.667 222.708 215.486 221.847 215.486ZM228.326 223V214.16H231.029L234.174 221.317L237.319 214.16H240.022V223H238.356V215.656L235.058 223H233.273L229.992 215.656V223H228.326ZM248.835 223H247.169V214.16H248.835V217.713H250.484L253.357 214.16H255.397L251.861 218.478L255.618 223H253.561L250.484 219.277H248.835V223ZM260.09 223.136C258.912 223.136 258.05 222.926 257.506 222.507C256.962 222.088 256.69 221.413 256.69 220.484C256.69 219.521 256.991 218.835 257.591 218.427C258.203 218.008 259.184 217.798 260.532 217.798H263.541C263.541 216.993 263.337 216.41 262.929 216.047C262.521 215.673 261.87 215.486 260.974 215.486C260.26 215.486 259.711 215.605 259.325 215.843C258.94 216.07 258.679 216.438 258.543 216.948H256.894C257.053 215.928 257.461 215.186 258.118 214.721C258.776 214.256 259.75 214.024 261.042 214.024C262.493 214.024 263.547 214.324 264.204 214.925C264.873 215.514 265.207 216.461 265.207 217.764V223H263.541V221.861C262.873 222.711 261.722 223.136 260.09 223.136ZM258.356 220.416C258.356 220.858 258.526 221.181 258.866 221.385C259.218 221.578 259.756 221.674 260.481 221.674C261.445 221.674 262.164 221.498 262.64 221.147C263.128 220.796 263.428 220.235 263.541 219.464V219.056H260.957C259.223 219.056 258.356 219.509 258.356 220.416ZM266.773 223L270.19 218.478L266.994 214.16H268.983L271.601 217.713H272.927V214.16H274.593V217.713H275.936L278.554 214.16H280.526L277.33 218.478L280.747 223H278.724L275.919 219.277H274.593V223H272.927V219.277H271.601L268.813 223H266.773ZM283.348 225.686H281.682V221.436H282.906C283.258 221.198 283.513 220.756 283.671 220.11C283.841 219.464 283.972 218.257 284.062 216.489L284.181 214.16H291.355V221.436H293.004V225.686H291.338V223H283.348V225.686ZM284.895 221.436H289.689V215.724H285.728L285.694 216.625C285.581 219.005 285.315 220.609 284.895 221.436ZM294.948 223V214.16H296.614V216.88H299.249C300.462 216.88 301.34 217.124 301.884 217.611C302.428 218.098 302.7 218.875 302.7 219.94C302.7 221.005 302.428 221.782 301.884 222.269C301.34 222.756 300.468 223 299.266 223H294.948ZM304.383 223V214.16H306.049V223H304.383ZM299.096 218.444H296.614V221.436H299.113C299.782 221.436 300.269 221.317 300.575 221.079C300.881 220.841 301.034 220.461 301.034 219.94C301.034 219.419 300.881 219.039 300.575 218.801C300.269 218.563 299.776 218.444 299.096 218.444ZM308.562 223V214.16H310.228V220.331L315.583 214.16H317.045V223H315.379V216.829L310.024 223H308.562ZM309.769 210.488H311.129C311.129 211.009 311.265 211.389 311.537 211.627C311.809 211.865 312.239 211.984 312.829 211.984C313.418 211.984 313.849 211.865 314.121 211.627C314.393 211.389 314.529 211.009 314.529 210.488H315.889C315.889 211.395 315.645 212.063 315.158 212.494C314.67 212.925 313.894 213.14 312.829 213.14C311.775 213.14 310.998 212.925 310.5 212.494C310.012 212.052 309.769 211.383 309.769 210.488ZM325.339 217.39H323.69C323.849 216.223 324.274 215.373 324.965 214.84C325.657 214.296 326.671 214.024 328.008 214.024C329.55 214.024 330.672 214.387 331.374 215.112C332.077 215.837 332.428 216.993 332.428 218.58C332.428 220.178 332.077 221.34 331.374 222.065C330.683 222.779 329.561 223.136 328.008 223.136C326.66 223.136 325.64 222.87 324.948 222.337C324.257 221.793 323.838 220.937 323.69 219.77H325.339C325.487 220.393 325.77 220.852 326.189 221.147C326.62 221.43 327.221 221.572 327.991 221.572C328.864 221.572 329.516 221.385 329.946 221.011C330.388 220.626 330.649 220.025 330.728 219.209H327.277V217.951H330.728C330.649 217.124 330.388 216.523 329.946 216.149C329.516 215.775 328.864 215.588 327.991 215.588C327.221 215.588 326.62 215.735 326.189 216.03C325.77 216.313 325.487 216.767 325.339 217.39ZM342.181 215.724H338.645V223H336.979V215.724H333.443V214.16H342.181V215.724ZM346.734 223.136C345.555 223.136 344.694 222.926 344.15 222.507C343.606 222.088 343.334 221.413 343.334 220.484C343.334 219.521 343.634 218.835 344.235 218.427C344.847 218.008 345.827 217.798 347.176 217.798H350.185C350.185 216.993 349.981 216.41 349.573 216.047C349.165 215.673 348.513 215.486 347.618 215.486C346.904 215.486 346.354 215.605 345.969 215.843C345.584 216.07 345.323 216.438 345.187 216.948H343.538C343.697 215.928 344.105 215.186 344.762 214.721C345.419 214.256 346.394 214.024 347.686 214.024C349.137 214.024 350.191 214.324 350.848 214.925C351.517 215.514 351.851 216.461 351.851 217.764V223H350.185V221.861C349.516 222.711 348.366 223.136 346.734 223.136ZM345 220.416C345 220.858 345.17 221.181 345.51 221.385C345.861 221.578 346.4 221.674 347.125 221.674C348.088 221.674 348.808 221.498 349.284 221.147C349.771 220.796 350.072 220.235 350.185 219.464V219.056H347.601C345.867 219.056 345 219.509 345 220.416ZM354.332 223V214.16H362.815V223H361.149V215.724H355.998V223H354.332ZM369.971 223V214.16H378.454V223H376.788V215.724H371.637V223H369.971ZM381.573 215.112C382.298 214.387 383.448 214.024 385.024 214.024C386.599 214.024 387.744 214.387 388.458 215.112C389.183 215.837 389.546 216.993 389.546 218.58C389.546 220.178 389.189 221.34 388.475 222.065C387.761 222.779 386.61 223.136 385.024 223.136C383.437 223.136 382.287 222.779 381.573 222.065C380.859 221.34 380.502 220.178 380.502 218.58C380.502 216.993 380.859 215.837 381.573 215.112ZM382.168 218.58C382.168 219.623 382.394 220.382 382.848 220.858C383.301 221.334 384.026 221.572 385.024 221.572C386.021 221.572 386.746 221.334 387.2 220.858C387.653 220.382 387.88 219.623 387.88 218.58C387.88 217.526 387.653 216.767 387.2 216.302C386.758 215.826 386.032 215.588 385.024 215.588C384.015 215.588 383.284 215.826 382.831 216.302C382.389 216.767 382.168 217.526 382.168 218.58ZM122.185 244.136C120.644 244.136 119.522 243.779 118.819 243.065C118.128 242.34 117.782 241.178 117.782 239.58C117.782 237.993 118.128 236.837 118.819 236.112C119.522 235.387 120.644 235.024 122.185 235.024C123.534 235.024 124.554 235.296 125.245 235.84C125.936 236.373 126.361 237.223 126.52 238.39H124.871C124.724 237.767 124.435 237.313 124.004 237.03C123.585 236.735 122.99 236.588 122.219 236.588C121.244 236.588 120.536 236.826 120.094 237.302C119.663 237.767 119.448 238.526 119.448 239.58C119.448 240.623 119.669 241.382 120.111 241.858C120.553 242.334 121.256 242.572 122.219 242.572C122.99 242.572 123.585 242.43 124.004 242.147C124.435 241.852 124.724 241.393 124.871 240.77H126.52C126.361 241.949 125.936 242.804 125.245 243.337C124.554 243.87 123.534 244.136 122.185 244.136ZM128.518 248.25V235.16H130.184V236.401C130.807 235.483 131.906 235.024 133.482 235.024C134.898 235.024 135.924 235.387 136.559 236.112C137.205 236.826 137.528 237.982 137.528 239.58C137.528 241.167 137.205 242.323 136.559 243.048C135.924 243.773 134.898 244.136 133.482 244.136C131.906 244.136 130.807 243.677 130.184 242.759V248.25H128.518ZM130.881 241.875C131.334 242.34 132.054 242.572 133.04 242.572C134.026 242.572 134.74 242.34 135.182 241.875C135.635 241.399 135.862 240.634 135.862 239.58C135.862 238.537 135.635 237.778 135.182 237.302C134.74 236.826 134.026 236.588 133.04 236.588C132.054 236.588 131.334 236.826 130.881 237.302C130.439 237.778 130.218 238.537 130.218 239.58C130.218 240.634 130.439 241.399 130.881 241.875ZM140.169 236.112C140.895 235.387 142.045 235.024 143.62 235.024C145.196 235.024 146.34 235.387 147.054 236.112C147.78 236.837 148.142 237.993 148.142 239.58C148.142 241.178 147.785 242.34 147.071 243.065C146.357 243.779 145.207 244.136 143.62 244.136C142.034 244.136 140.883 243.779 140.169 243.065C139.455 242.34 139.098 241.178 139.098 239.58C139.098 237.993 139.455 236.837 140.169 236.112ZM140.764 239.58C140.764 240.623 140.991 241.382 141.444 241.858C141.898 242.334 142.623 242.572 143.62 242.572C144.618 242.572 145.343 242.334 145.796 241.858C146.25 241.382 146.476 240.623 146.476 239.58C146.476 238.526 146.25 237.767 145.796 237.302C145.354 236.826 144.629 236.588 143.62 236.588C142.612 236.588 141.881 236.826 141.427 237.302C140.985 237.767 140.764 238.526 140.764 239.58ZM151.849 244H150.183V235.16H151.849V238.713H153.498L156.371 235.16H158.411L154.875 239.478L158.632 244H156.575L153.498 240.277H151.849V244ZM163.104 244.136C161.925 244.136 161.064 243.926 160.52 243.507C159.976 243.088 159.704 242.413 159.704 241.484C159.704 240.521 160.004 239.835 160.605 239.427C161.217 239.008 162.197 238.798 163.546 238.798H166.555C166.555 237.993 166.351 237.41 165.943 237.047C165.535 236.673 164.883 236.486 163.988 236.486C163.274 236.486 162.724 236.605 162.339 236.843C161.954 237.07 161.693 237.438 161.557 237.948H159.908C160.067 236.928 160.475 236.186 161.132 235.721C161.789 235.256 162.764 235.024 164.056 235.024C165.507 235.024 166.561 235.324 167.218 235.925C167.887 236.514 168.221 237.461 168.221 238.764V244H166.555V242.861C165.886 243.711 164.736 244.136 163.104 244.136ZM161.37 241.416C161.37 241.858 161.54 242.181 161.88 242.385C162.231 242.578 162.77 242.674 163.495 242.674C164.458 242.674 165.178 242.498 165.654 242.147C166.141 241.796 166.442 241.235 166.555 240.464V240.056H163.971C162.237 240.056 161.37 240.509 161.37 241.416ZM170.702 244V235.16H173.405L176.55 242.317L179.695 235.16H182.398V244H180.732V236.656L177.434 244H175.649L172.368 236.656V244H170.702ZM186.052 244.136C185.565 244.136 185.214 244.051 184.998 243.881C184.794 243.711 184.692 243.388 184.692 242.912C184.692 242.481 184.789 242.17 184.981 241.977C185.174 241.784 185.486 241.688 185.916 241.688C186.336 241.688 186.642 241.784 186.834 241.977C187.038 242.17 187.14 242.481 187.14 242.912V243.932C187.14 245.043 186.942 245.847 186.545 246.346C186.149 246.845 185.514 247.094 184.641 247.094V246.312C185.129 246.312 185.486 246.136 185.712 245.785C185.939 245.445 186.052 244.895 186.052 244.136ZM195.473 244H194.011V235.16H195.677V241.331L201.032 235.16H202.494V244H200.828V237.829L195.473 244ZM209.65 244V235.16H218.133V244H216.467V236.724H211.316V244H209.65ZM220.656 248.25V235.16H222.322V236.401C222.946 235.483 224.045 235.024 225.62 235.024C227.037 235.024 228.063 235.387 228.697 236.112C229.343 236.826 229.666 237.982 229.666 239.58C229.666 241.167 229.343 242.323 228.697 243.048C228.063 243.773 227.037 244.136 225.62 244.136C224.045 244.136 222.946 243.677 222.322 242.759V248.25H220.656ZM223.019 241.875C223.473 242.34 224.192 242.572 225.178 242.572C226.164 242.572 226.878 242.34 227.32 241.875C227.774 241.399 228 240.634 228 239.58C228 238.537 227.774 237.778 227.32 237.302C226.878 236.826 226.164 236.588 225.178 236.588C224.192 236.588 223.473 236.826 223.019 237.302C222.577 237.778 222.356 238.537 222.356 239.58C222.356 240.634 222.577 241.399 223.019 241.875ZM233.175 244H231.713V235.16H233.379V241.331L238.734 235.16H240.196V244H238.53V237.829L233.175 244ZM243.621 246.686H241.955V242.436H243.179C243.53 242.198 243.785 241.756 243.944 241.11C244.114 240.464 244.244 239.257 244.335 237.489L244.454 235.16H251.628V242.436H253.277V246.686H251.611V244H243.621V246.686ZM245.168 242.436H249.962V236.724H246.001L245.967 237.625C245.854 240.005 245.587 241.609 245.168 242.436ZM255.633 243.048C254.93 242.323 254.579 241.167 254.579 239.58C254.579 237.993 254.93 236.837 255.633 236.112C256.347 235.387 257.497 235.024 259.084 235.024C260.659 235.024 261.793 235.387 262.484 236.112C263.187 236.837 263.538 237.993 263.538 239.58C263.538 239.637 263.532 239.722 263.521 239.835C263.521 239.948 263.521 240.033 263.521 240.09H256.279C256.336 240.974 256.591 241.626 257.044 242.045C257.509 242.464 258.194 242.674 259.101 242.674C260.427 242.674 261.271 242.221 261.634 241.314H263.368C263.13 242.357 262.643 243.088 261.906 243.507C261.181 243.926 260.24 244.136 259.084 244.136C257.497 244.136 256.347 243.773 255.633 243.048ZM259.101 236.486C258.251 236.486 257.594 236.673 257.129 237.047C256.676 237.41 256.404 238.005 256.313 238.832H261.872C261.781 237.993 261.509 237.393 261.056 237.03C260.614 236.667 259.962 236.486 259.101 236.486ZM265.58 248.25V235.16H267.246V236.401C267.87 235.483 268.969 235.024 270.544 235.024C271.961 235.024 272.987 235.387 273.621 236.112C274.267 236.826 274.59 237.982 274.59 239.58C274.59 241.167 274.267 242.323 273.621 243.048C272.987 243.773 271.961 244.136 270.544 244.136C268.969 244.136 267.87 243.677 267.246 242.759V248.25H265.58ZM267.943 241.875C268.397 242.34 269.116 242.572 270.102 242.572C271.088 242.572 271.802 242.34 272.244 241.875C272.698 241.399 272.924 240.634 272.924 239.58C272.924 238.537 272.698 237.778 272.244 237.302C271.802 236.826 271.088 236.588 270.102 236.588C269.116 236.588 268.397 236.826 267.943 237.302C267.501 237.778 267.28 238.537 267.28 239.58C267.28 240.634 267.501 241.399 267.943 241.875ZM275.539 244L278.956 239.478L275.76 235.16H277.749L280.367 238.713H281.693V235.16H283.359V238.713H284.702L287.32 235.16H289.292L286.096 239.478L289.513 244H287.49L284.685 240.277H283.359V244H281.693V240.277H280.367L277.579 244H275.539ZM292.675 244H291.213V235.16H292.879V241.331L298.234 235.16H299.696V244H298.03V237.829L292.675 244ZM302.22 244V235.16H306.742C307.864 235.16 308.68 235.347 309.19 235.721C309.7 236.095 309.955 236.696 309.955 237.523C309.955 238.418 309.666 239.047 309.088 239.41C309.938 239.773 310.363 240.487 310.363 241.552C310.363 242.413 310.102 243.037 309.581 243.422C309.06 243.807 308.215 244 307.048 244H302.22ZM306.895 240.141H303.886V242.538H306.895C307.53 242.538 307.989 242.447 308.272 242.266C308.555 242.073 308.697 241.762 308.697 241.331C308.697 240.912 308.555 240.611 308.272 240.43C307.989 240.237 307.53 240.141 306.895 240.141ZM303.886 238.883H306.538C307.161 238.883 307.609 238.792 307.881 238.611C308.153 238.43 308.289 238.141 308.289 237.744C308.289 237.359 308.147 237.075 307.864 236.894C307.592 236.713 307.156 236.622 306.555 236.622H303.886V238.883ZM315.49 244.136C314.311 244.136 313.45 243.926 312.906 243.507C312.362 243.088 312.09 242.413 312.09 241.484C312.09 240.521 312.39 239.835 312.991 239.427C313.603 239.008 314.583 238.798 315.932 238.798H318.941C318.941 237.993 318.737 237.41 318.329 237.047C317.921 236.673 317.269 236.486 316.374 236.486C315.66 236.486 315.11 236.605 314.725 236.843C314.34 237.07 314.079 237.438 313.943 237.948H312.294C312.453 236.928 312.861 236.186 313.518 235.721C314.175 235.256 315.15 235.024 316.442 235.024C317.893 235.024 318.947 235.324 319.604 235.925C320.273 236.514 320.607 237.461 320.607 238.764V244H318.941V242.861C318.272 243.711 317.122 244.136 315.49 244.136ZM313.756 241.416C313.756 241.858 313.926 242.181 314.266 242.385C314.617 242.578 315.156 242.674 315.881 242.674C316.844 242.674 317.564 242.498 318.04 242.147C318.527 241.796 318.828 241.235 318.941 240.464V240.056H316.357C314.623 240.056 313.756 240.509 313.756 241.416ZM323.666 243.048C322.963 242.323 322.612 241.167 322.612 239.58C322.612 237.993 322.963 236.837 323.666 236.112C324.38 235.387 325.53 235.024 327.117 235.024C328.692 235.024 329.826 235.387 330.517 236.112C331.22 236.837 331.571 237.993 331.571 239.58C331.571 239.637 331.565 239.722 331.554 239.835C331.554 239.948 331.554 240.033 331.554 240.09H324.312C324.369 240.974 324.624 241.626 325.077 242.045C325.542 242.464 326.227 242.674 327.134 242.674C328.46 242.674 329.304 242.221 329.667 241.314H331.401C331.163 242.357 330.676 243.088 329.939 243.507C329.214 243.926 328.273 244.136 327.117 244.136C325.53 244.136 324.38 243.773 323.666 243.048ZM327.134 236.486C326.284 236.486 325.627 236.673 325.162 237.047C324.709 237.41 324.437 238.005 324.346 238.832H329.905C329.814 237.993 329.542 237.393 329.089 237.03C328.647 236.667 327.995 236.486 327.134 236.486ZM333.613 244V235.16H336.316L339.461 242.317L342.606 235.16H345.309V244H343.643V236.656L340.345 244H338.56L335.279 236.656V244H333.613ZM351.751 244.136C350.21 244.136 349.088 243.779 348.385 243.065C347.694 242.34 347.348 241.178 347.348 239.58C347.348 237.993 347.694 236.837 348.385 236.112C349.088 235.387 350.21 235.024 351.751 235.024C353.1 235.024 354.12 235.296 354.811 235.84C355.503 236.373 355.928 237.223 356.086 238.39H354.437C354.29 237.767 354.001 237.313 353.57 237.03C353.151 236.735 352.556 236.588 351.785 236.588C350.811 236.588 350.102 236.826 349.66 237.302C349.23 237.767 349.014 238.526 349.014 239.58C349.014 240.623 349.235 241.382 349.677 241.858C350.119 242.334 350.822 242.572 351.785 242.572C352.556 242.572 353.151 242.43 353.57 242.147C354.001 241.852 354.29 241.393 354.437 240.77H356.086C355.928 241.949 355.503 242.804 354.811 243.337C354.12 243.87 353.1 244.136 351.751 244.136ZM357.676 244L359.937 240.94C359.201 240.781 358.662 240.481 358.322 240.039C357.994 239.597 357.829 238.962 357.829 238.135C357.829 237.092 358.101 236.339 358.645 235.874C359.201 235.398 360.085 235.16 361.297 235.16H365.819V244H364.153V241.059H361.841L359.682 244H357.676ZM359.954 237.064C359.648 237.279 359.495 237.636 359.495 238.135C359.495 238.634 359.643 238.985 359.937 239.189C360.243 239.393 360.742 239.495 361.433 239.495H364.153V236.724H361.433C360.753 236.724 360.26 236.837 359.954 237.064ZM119.159 267.686H117.493V263.436H118.717C119.068 263.198 119.323 262.756 119.482 262.11C119.652 261.464 119.782 260.257 119.873 258.489L119.992 256.16H127.166V263.436H128.815V267.686H127.149V265H119.159V267.686ZM120.706 263.436H125.5V257.724H121.539L121.505 258.625C121.392 261.005 121.125 262.609 120.706 263.436ZM131.171 264.048C130.468 263.323 130.117 262.167 130.117 260.58C130.117 258.993 130.468 257.837 131.171 257.112C131.885 256.387 133.035 256.024 134.622 256.024C136.197 256.024 137.331 256.387 138.022 257.112C138.725 257.837 139.076 258.993 139.076 260.58C139.076 260.637 139.07 260.722 139.059 260.835C139.059 260.948 139.059 261.033 139.059 261.09H131.817C131.874 261.974 132.129 262.626 132.582 263.045C133.047 263.464 133.732 263.674 134.639 263.674C135.965 263.674 136.809 263.221 137.172 262.314H138.906C138.668 263.357 138.181 264.088 137.444 264.507C136.719 264.926 135.778 265.136 134.622 265.136C133.035 265.136 131.885 264.773 131.171 264.048ZM134.639 257.486C133.789 257.486 133.132 257.673 132.667 258.047C132.214 258.41 131.942 259.005 131.851 259.832H137.41C137.319 258.993 137.047 258.393 136.594 258.03C136.152 257.667 135.5 257.486 134.639 257.486ZM141.787 267.686H140.121V263.436H141.345C141.696 263.198 141.951 262.756 142.11 262.11C142.28 261.464 142.41 260.257 142.501 258.489L142.62 256.16H149.794V263.436H151.443V267.686H149.777V265H141.787V267.686ZM143.334 263.436H148.128V257.724H144.167L144.133 258.625C144.02 261.005 143.753 262.609 143.334 263.436ZM152.809 265V263.334H153.336C153.619 263.334 153.835 263.226 153.982 263.011C154.141 262.784 154.271 262.325 154.373 261.634C154.486 260.931 154.577 259.883 154.645 258.489L154.764 256.16H161.955V265H160.289V257.724H156.328L156.294 258.625C156.215 260.325 156.056 261.645 155.818 262.586C155.591 263.515 155.291 264.15 154.917 264.49C154.543 264.83 154.039 265 153.404 265H152.809ZM167.537 265.136C166.358 265.136 165.497 264.926 164.953 264.507C164.409 264.088 164.137 263.413 164.137 262.484C164.137 261.521 164.437 260.835 165.038 260.427C165.65 260.008 166.63 259.798 167.979 259.798H170.988C170.988 258.993 170.784 258.41 170.376 258.047C169.968 257.673 169.316 257.486 168.421 257.486C167.707 257.486 167.157 257.605 166.772 257.843C166.386 258.07 166.126 258.438 165.99 258.948H164.341C164.499 257.928 164.907 257.186 165.565 256.721C166.222 256.256 167.197 256.024 168.489 256.024C169.939 256.024 170.993 256.324 171.651 256.925C172.319 257.514 172.654 258.461 172.654 259.764V265H170.988V263.861C170.319 264.711 169.169 265.136 167.537 265.136ZM165.803 262.416C165.803 262.858 165.973 263.181 166.313 263.385C166.664 263.578 167.202 263.674 167.928 263.674C168.891 263.674 169.611 263.498 170.087 263.147C170.574 262.796 170.874 262.235 170.988 261.464V261.056H168.404C166.67 261.056 165.803 261.509 165.803 262.416ZM175.135 265V256.16H176.801V262.331L182.156 256.16H183.618V265H181.952V258.829L176.597 265H175.135ZM176.342 252.488H177.702C177.702 253.009 177.838 253.389 178.11 253.627C178.382 253.865 178.813 253.984 179.402 253.984C179.991 253.984 180.422 253.865 180.694 253.627C180.966 253.389 181.102 253.009 181.102 252.488H182.462C182.462 253.395 182.218 254.063 181.731 254.494C181.244 254.925 180.467 255.14 179.402 255.14C178.348 255.14 177.572 254.925 177.073 254.494C176.586 254.052 176.342 253.383 176.342 252.488ZM187.808 265H186.142V256.16H187.808V259.798H192.959V256.16H194.625V265H192.959V261.362H187.808V265ZM197.744 257.112C198.469 256.387 199.619 256.024 201.195 256.024C202.77 256.024 203.915 256.387 204.629 257.112C205.354 257.837 205.717 258.993 205.717 260.58C205.717 262.178 205.36 263.34 204.646 264.065C203.932 264.779 202.781 265.136 201.195 265.136C199.608 265.136 198.458 264.779 197.744 264.065C197.03 263.34 196.673 262.178 196.673 260.58C196.673 258.993 197.03 257.837 197.744 257.112ZM198.339 260.58C198.339 261.623 198.565 262.382 199.019 262.858C199.472 263.334 200.197 263.572 201.195 263.572C202.192 263.572 202.917 263.334 203.371 262.858C203.824 262.382 204.051 261.623 204.051 260.58C204.051 259.526 203.824 258.767 203.371 258.302C202.929 257.826 202.203 257.588 201.195 257.588C200.186 257.588 199.455 257.826 199.002 258.302C198.56 258.767 198.339 259.526 198.339 260.58ZM207.757 265V256.16H212.279C213.401 256.16 214.217 256.347 214.727 256.721C215.237 257.095 215.492 257.696 215.492 258.523C215.492 259.418 215.203 260.047 214.625 260.41C215.475 260.773 215.9 261.487 215.9 262.552C215.9 263.413 215.639 264.037 215.118 264.422C214.597 264.807 213.752 265 212.585 265H207.757ZM212.432 261.141H209.423V263.538H212.432C213.067 263.538 213.526 263.447 213.809 263.266C214.092 263.073 214.234 262.762 214.234 262.331C214.234 261.912 214.092 261.611 213.809 261.43C213.526 261.237 213.067 261.141 212.432 261.141ZM209.423 259.883H212.075C212.698 259.883 213.146 259.792 213.418 259.611C213.69 259.43 213.826 259.141 213.826 258.744C213.826 258.359 213.684 258.075 213.401 257.894C213.129 257.713 212.693 257.622 212.092 257.622H209.423V259.883Z" fill="white" fill-opacity="0.9"/>
<g clip-path="url(#clip0_66_2441)">
<path d="M384.5 291C363.832 291 343.628 297.217 326.443 308.864C309.258 320.512 295.864 337.067 287.955 356.436C280.045 375.805 277.976 397.118 282.008 417.68C286.04 438.242 295.993 457.129 310.607 471.953C325.222 486.778 343.842 496.873 364.113 500.963C384.384 505.053 405.396 502.954 424.49 494.931C443.585 486.908 459.906 473.322 471.389 455.89C482.871 438.459 489 417.965 489 397C489 368.887 477.99 341.926 458.393 322.047C438.795 302.168 412.215 291 384.5 291ZM384.5 476.5C368.999 476.5 353.846 471.837 340.957 463.102C328.069 454.366 318.023 441.95 312.091 427.423C306.159 412.897 304.607 396.912 307.631 381.49C310.655 366.069 318.12 351.903 329.081 340.785C340.041 329.667 354.007 322.095 369.21 319.028C384.413 315.96 400.172 317.534 414.493 323.552C428.814 329.569 441.055 339.758 449.666 352.832C458.278 365.906 462.875 381.276 462.875 397C462.853 418.078 454.588 438.286 439.895 453.19C425.201 468.094 405.279 476.477 384.5 476.5Z" fill="url(#paint2_linear_66_2441)"/>
<path d="M410.756 397H391.031C389.299 397 387.638 396.302 386.413 395.06C385.188 393.817 384.5 392.132 384.5 390.375V370.367C384.501 368.645 384.167 366.939 383.517 365.347C382.868 363.755 381.915 362.308 380.714 361.09C379.513 359.872 378.087 358.906 376.518 358.247C374.949 357.588 373.267 357.249 371.568 357.25H371.307C369.608 357.249 367.926 357.588 366.357 358.247C364.788 358.906 363.362 359.872 362.161 361.09C360.96 362.308 360.007 363.755 359.358 365.347C358.708 366.939 358.374 368.645 358.375 370.367V410.383C358.374 412.105 358.708 413.811 359.358 415.403C360.007 416.995 360.96 418.442 362.161 419.66C363.362 420.878 364.788 421.844 366.357 422.503C367.926 423.162 369.608 423.501 371.307 423.5H410.756C412.454 423.501 414.136 423.162 415.705 422.503C417.275 421.844 418.701 420.878 419.902 419.66C421.103 418.442 422.055 416.995 422.705 415.403C423.354 413.811 423.688 412.105 423.688 410.383V410.118C423.688 408.395 423.354 406.689 422.705 405.097C422.055 403.505 421.103 402.058 419.902 400.84C418.701 399.622 417.275 398.656 415.705 397.997C414.136 397.338 412.454 396.999 410.756 397Z" fill="url(#paint3_linear_66_2441)"/>
</g>
<defs>
<filter id="filter0_d_66_2441" x="0" y="0" width="560" height="560" filterUnits="userSpaceOnUse" color-interpolation-filters="sRGB">
<feFlood flood-opacity="0" result="BackgroundImageFix"/>
<feColorMatrix in="SourceAlpha" type="matrix" values="0 0 0 0 0 0 0 0 0 0 0 0 0 0 0 0 0 0 127 0" result="hardAlpha"/>
<feOffset/>
<feGaussianBlur stdDeviation="40"/>
<feComposite in2="hardAlpha" operator="out"/>
<feColorMatrix type="matrix" values="0 0 0 0 0.172549 0 0 0 0 0.172549 0 0 0 0 0.176471 0 0 0 0.35 0"/>
<feBlend mode="normal" in2="BackgroundImageFix" result="effect1_dropShadow_66_2441"/>
<feBlend mode="normal" in="SourceGraphic" in2="effect1_dropShadow_66_2441" result="shape"/>
</filter>
<linearGradient id="paint0_linear_66_2441" x1="124.364" y1="116.697" x2="431.61" y2="477.234" gradientUnits="userSpaceOnUse">
<stop stop-color="#303134"/>
<stop offset="0.519792" stop-color="#282828"/>
<stop offset="0.927909" stop-color="#282828"/>
</linearGradient>
<linearGradient id="paint1_linear_66_2441" x1="85" y1="87" x2="480" y2="480" gradientUnits="userSpaceOnUse">
<stop stop-color="white"/>
<stop offset="1" stop-color="white" stop-opacity="0"/>
</linearGradient>
<linearGradient id="paint2_linear_66_2441" x1="318" y1="320" x2="458" y2="466" gradientUnits="userSpaceOnUse">
<stop stop-color="#414141"/>
<stop offset="0.728332" stop-color="#262626"/>
</linearGradient>
<linearGradient id="paint3_linear_66_2441" x1="358" y1="357" x2="417" y2="430" gradientUnits="userSpaceOnUse">
<stop stop-color="#404040"/>
<stop offset="1" stop-color="#282828"/>
</linearGradient>
<clipPath id="clip0_66_2441">
<rect width="200" height="189" fill="white" transform="translate(280 291)"/>
</clipPath>
</defs>
</svg>
