<svg width="560" height="560" viewBox="0 0 560 560" fill="none" xmlns="http://www.w3.org/2000/svg">
<g filter="url(#filter0_d_66_2444)">
<rect x="80" y="80" width="400" height="400" rx="6" fill="url(#paint0_linear_66_2444)"/>
<rect x="80.5" y="80.5" width="399" height="399" rx="5.5" stroke="url(#paint1_linear_66_2444)" stroke-opacity="0.2"/>
</g>
<path d="M124.002 146V127.8H127.148V135.21H130.268L136.378 127.8H140.2L132.894 136.64L140.798 146H136.872L130.294 138.148H127.148V146H124.002ZM143.29 133.91C144.399 132.801 146.167 132.246 148.594 132.246C151.021 132.246 152.789 132.801 153.898 133.91C155.007 135.019 155.562 136.796 155.562 139.24C155.562 141.684 155.007 143.461 153.898 144.57C152.789 145.679 151.021 146.234 148.594 146.234C146.167 146.234 144.399 145.679 143.29 144.57C142.198 143.461 141.652 141.684 141.652 139.24C141.652 136.796 142.198 135.019 143.29 133.91ZM145.552 136.042C144.928 136.701 144.616 137.767 144.616 139.24C144.616 140.713 144.928 141.788 145.552 142.464C146.193 143.123 147.207 143.452 148.594 143.452C149.998 143.452 151.012 143.123 151.636 142.464C152.277 141.788 152.598 140.713 152.598 139.24C152.598 137.767 152.277 136.701 151.636 136.042C151.012 135.366 149.998 135.028 148.594 135.028C147.207 135.028 146.193 135.366 145.552 136.042ZM158.375 146V132.48H161.313V137.862H168.463V132.48H171.427V146H168.463V140.618H161.313V146H158.375ZM180.988 146.234C178.631 146.234 176.915 145.679 175.84 144.57C174.765 143.461 174.228 141.684 174.228 139.24C174.228 136.796 174.765 135.019 175.84 133.91C176.915 132.801 178.631 132.246 180.988 132.246C183.085 132.246 184.663 132.671 185.72 133.52C186.777 134.369 187.427 135.721 187.67 137.576H184.732C184.541 136.675 184.151 136.025 183.562 135.626C182.973 135.227 182.132 135.028 181.04 135.028C179.688 135.028 178.709 135.366 178.102 136.042C177.495 136.701 177.192 137.767 177.192 139.24C177.192 140.713 177.495 141.788 178.102 142.464C178.709 143.123 179.688 143.452 181.04 143.452C182.115 143.452 182.947 143.253 183.536 142.854C184.143 142.438 184.541 141.788 184.732 140.904H187.67C187.445 142.741 186.795 144.093 185.72 144.96C184.663 145.809 183.085 146.234 180.988 146.234ZM188.889 132.48H192.035L196.013 142.126L199.939 132.48H203.111L194.947 152.5H191.775L194.427 146L188.889 132.48ZM203.476 146V143.036H204.282C204.698 143.036 205.01 142.889 205.218 142.594C205.443 142.282 205.634 141.632 205.79 140.644C205.963 139.639 206.093 138.148 206.18 136.172L206.362 132.48H217.516V146H214.552V135.236H209.144L209.092 136.432C208.97 138.98 208.728 140.947 208.364 142.334C208 143.721 207.506 144.683 206.882 145.22C206.275 145.74 205.452 146 204.412 146H203.476ZM220.988 146V132.48H223.926V136.432H227.67C229.559 136.432 230.929 136.813 231.778 137.576C232.645 138.321 233.078 139.535 233.078 141.216C233.078 142.897 232.645 144.119 231.778 144.882C230.929 145.627 229.568 146 227.696 146H220.988ZM227.41 139.214H223.926V143.244H227.436C228.372 143.244 229.048 143.088 229.464 142.776C229.897 142.447 230.114 141.927 230.114 141.216C230.114 140.505 229.897 139.994 229.464 139.682C229.048 139.37 228.363 139.214 227.41 139.214ZM246.712 135.236H241.538V146H238.574V135.236H233.374V132.48H246.712V135.236ZM253.419 146.234C251.651 146.234 250.351 145.905 249.519 145.246C248.687 144.57 248.271 143.513 248.271 142.074C248.271 140.583 248.721 139.526 249.623 138.902C250.541 138.261 252.023 137.94 254.069 137.94H258.411C258.376 136.865 258.073 136.085 257.501 135.6C256.946 135.097 256.062 134.846 254.849 134.846C253.861 134.846 253.098 135.011 252.561 135.34C252.023 135.652 251.668 136.163 251.495 136.874H248.557C248.799 135.262 249.423 134.092 250.429 133.364C251.434 132.619 252.942 132.246 254.953 132.246C257.206 132.246 258.835 132.705 259.841 133.624C260.863 134.543 261.375 136.016 261.375 138.044V146H258.411V144.466C257.405 145.645 255.741 146.234 253.419 146.234ZM251.209 141.97C251.209 143.079 252.179 143.634 254.121 143.634C255.455 143.634 256.461 143.391 257.137 142.906C257.813 142.421 258.237 141.658 258.411 140.618V140.15H254.849C252.422 140.15 251.209 140.757 251.209 141.97ZM264.812 132.48H267.75V143.244H274.64V132.48H277.604V143.244H280.1V150.056H277.162V146H264.812V132.48ZM285.236 146H282.662V132.48H285.6V141.242L293.14 132.48H295.714V146H292.75V137.212L285.236 146ZM298.593 146L301.869 141.424C300.829 141.181 300.067 140.713 299.581 140.02C299.096 139.309 298.853 138.339 298.853 137.108C298.853 135.479 299.278 134.3 300.127 133.572C300.994 132.844 302.381 132.48 304.287 132.48H311.281V146H308.343V141.684H305.223L302.129 146H298.593ZM302.441 135.678C302.025 135.973 301.817 136.449 301.817 137.108C301.817 137.767 302.025 138.235 302.441 138.512C302.857 138.772 303.551 138.902 304.521 138.902H308.343V135.236H304.521C303.568 135.236 302.875 135.383 302.441 135.678ZM123.742 178V164.48H136.794V178H133.83V167.236H126.68V178H123.742ZM139.595 171.24C139.595 168.813 140.141 167.045 141.233 165.936C142.325 164.809 144.085 164.246 146.511 164.246C148.938 164.246 150.689 164.801 151.763 165.91C152.838 167.019 153.375 168.796 153.375 171.24C153.375 171.431 153.358 171.734 153.323 172.15H142.637C142.741 173.363 143.105 174.247 143.729 174.802C144.371 175.357 145.307 175.634 146.537 175.634C148.357 175.634 149.527 175.019 150.047 173.788H153.115C152.769 175.435 152.032 176.587 150.905 177.246C149.779 177.905 148.314 178.234 146.511 178.234C144.085 178.234 142.325 177.679 141.233 176.57C140.141 175.461 139.595 173.684 139.595 171.24ZM142.663 169.94H150.385C150.229 168.831 149.839 168.042 149.215 167.574C148.591 167.089 147.699 166.846 146.537 166.846C145.376 166.846 144.475 167.089 143.833 167.574C143.209 168.059 142.819 168.848 142.663 169.94ZM156.191 184.5V164.48H159.129V166.144C160.083 164.879 161.695 164.246 163.965 164.246C166.097 164.246 167.64 164.801 168.593 165.91C169.564 167.019 170.049 168.796 170.049 171.24C170.049 173.684 169.564 175.461 168.593 176.57C167.64 177.679 166.097 178.234 163.965 178.234C161.695 178.234 160.083 177.601 159.129 176.336V184.5H156.191ZM160.117 174.464C160.741 175.123 161.747 175.452 163.133 175.452C164.52 175.452 165.525 175.123 166.149 174.464C166.773 173.788 167.085 172.713 167.085 171.24C167.085 169.767 166.773 168.701 166.149 168.042C165.525 167.366 164.52 167.028 163.133 167.028C161.747 167.028 160.741 167.366 160.117 168.042C159.493 168.701 159.181 169.767 159.181 171.24C159.181 172.713 159.493 173.788 160.117 174.464ZM172.171 171.24C172.171 168.813 172.717 167.045 173.809 165.936C174.901 164.809 176.661 164.246 179.087 164.246C181.514 164.246 183.265 164.801 184.339 165.91C185.414 167.019 185.951 168.796 185.951 171.24C185.951 171.431 185.934 171.734 185.899 172.15H175.213C175.317 173.363 175.681 174.247 176.305 174.802C176.947 175.357 177.883 175.634 179.113 175.634C180.933 175.634 182.103 175.019 182.623 173.788H185.691C185.345 175.435 184.608 176.587 183.481 177.246C182.355 177.905 180.89 178.234 179.087 178.234C176.661 178.234 174.901 177.679 173.809 176.57C172.717 175.461 172.171 173.684 172.171 171.24ZM175.239 169.94H182.961C182.805 168.831 182.415 168.042 181.791 167.574C181.167 167.089 180.275 166.846 179.113 166.846C177.952 166.846 177.051 167.089 176.409 167.574C175.785 168.059 175.395 168.848 175.239 169.94ZM190.361 182.056H187.423V175.244H189.347C189.833 174.88 190.188 174.23 190.413 173.294C190.656 172.341 190.838 170.633 190.959 168.172L191.141 164.48H202.295V175.244H204.791V182.056H201.853V178H190.361V182.056ZM192.779 175.244H199.331V167.236H193.897L193.845 168.432C193.689 171.639 193.334 173.909 192.779 175.244ZM213.735 173.528H216.699C216.872 174.273 217.245 174.811 217.817 175.14C218.406 175.469 219.273 175.634 220.417 175.634C221.474 175.634 222.254 175.495 222.757 175.218C223.259 174.923 223.511 174.464 223.511 173.84C223.511 173.285 223.311 172.887 222.913 172.644C222.531 172.401 221.899 172.28 221.015 172.28H218.545V170.07H220.885C222.462 170.07 223.251 169.559 223.251 168.536C223.251 167.409 222.271 166.846 220.313 166.846C219.203 166.846 218.371 167.011 217.817 167.34C217.262 167.669 216.898 168.207 216.725 168.952H213.787C213.977 167.305 214.601 166.109 215.659 165.364C216.716 164.619 218.319 164.246 220.469 164.246C222.445 164.246 223.892 164.567 224.811 165.208C225.729 165.832 226.189 166.829 226.189 168.198C226.189 169.585 225.686 170.555 224.681 171.11C225.859 171.63 226.449 172.661 226.449 174.204C226.449 175.608 225.972 176.631 225.019 177.272C224.083 177.913 222.601 178.234 220.573 178.234C218.371 178.234 216.733 177.861 215.659 177.116C214.584 176.371 213.943 175.175 213.735 173.528ZM233.944 178.234C232.176 178.234 230.876 177.905 230.044 177.246C229.212 176.57 228.796 175.513 228.796 174.074C228.796 172.583 229.247 171.526 230.148 170.902C231.067 170.261 232.549 169.94 234.594 169.94H238.936C238.902 168.865 238.598 168.085 238.026 167.6C237.472 167.097 236.588 166.846 235.374 166.846C234.386 166.846 233.624 167.011 233.086 167.34C232.549 167.652 232.194 168.163 232.02 168.874H229.082C229.325 167.262 229.949 166.092 230.954 165.364C231.96 164.619 233.468 164.246 235.478 164.246C237.732 164.246 239.361 164.705 240.366 165.624C241.389 166.543 241.9 168.016 241.9 170.044V178H238.936V176.466C237.931 177.645 236.267 178.234 233.944 178.234ZM231.734 173.97C231.734 175.079 232.705 175.634 234.646 175.634C235.981 175.634 236.986 175.391 237.662 174.906C238.338 174.421 238.763 173.658 238.936 172.618V172.15H235.374C232.948 172.15 231.734 172.757 231.734 173.97ZM248.276 178H245.338V164.48H248.276V169.732H250.512L254.672 164.48H258.26L252.982 171.084L258.624 178H254.984L250.512 172.514H248.276V178ZM265.124 178.234C263.356 178.234 262.056 177.905 261.224 177.246C260.392 176.57 259.976 175.513 259.976 174.074C259.976 172.583 260.427 171.526 261.328 170.902C262.247 170.261 263.729 169.94 265.774 169.94H270.116C270.081 168.865 269.778 168.085 269.206 167.6C268.651 167.097 267.767 166.846 266.554 166.846C265.566 166.846 264.803 167.011 264.266 167.34C263.729 167.652 263.373 168.163 263.2 168.874H260.262C260.505 167.262 261.129 166.092 262.134 165.364C263.139 164.619 264.647 164.246 266.658 164.246C268.911 164.246 270.541 164.705 271.546 165.624C272.569 166.543 273.08 168.016 273.08 170.044V178H270.116V176.466C269.111 177.645 267.447 178.234 265.124 178.234ZM262.914 173.97C262.914 175.079 263.885 175.634 265.826 175.634C267.161 175.634 268.166 175.391 268.842 174.906C269.518 174.421 269.943 173.658 270.116 172.618V172.15H266.554C264.127 172.15 262.914 172.757 262.914 173.97ZM275.789 173.528H278.753C278.927 174.273 279.299 174.811 279.871 175.14C280.461 175.469 281.327 175.634 282.471 175.634C283.529 175.634 284.309 175.495 284.811 175.218C285.314 174.923 285.565 174.464 285.565 173.84C285.565 173.285 285.366 172.887 284.967 172.644C284.586 172.401 283.953 172.28 283.069 172.28H280.599V170.07H282.939C284.517 170.07 285.305 169.559 285.305 168.536C285.305 167.409 284.326 166.846 282.367 166.846C281.258 166.846 280.426 167.011 279.871 167.34C279.317 167.669 278.953 168.207 278.779 168.952H275.841C276.032 167.305 276.656 166.109 277.713 165.364C278.771 164.619 280.374 164.246 282.523 164.246C284.499 164.246 285.947 164.567 286.865 165.208C287.784 165.832 288.243 166.829 288.243 168.198C288.243 169.585 287.741 170.555 286.735 171.11C287.914 171.63 288.503 172.661 288.503 174.204C288.503 175.608 288.027 176.631 287.073 177.272C286.137 177.913 284.655 178.234 282.627 178.234C280.426 178.234 278.788 177.861 277.713 177.116C276.639 176.371 275.997 175.175 275.789 173.528ZM292.333 165.91C293.442 164.801 295.21 164.246 297.637 164.246C300.064 164.246 301.832 164.801 302.941 165.91C304.05 167.019 304.605 168.796 304.605 171.24C304.605 173.684 304.05 175.461 302.941 176.57C301.832 177.679 300.064 178.234 297.637 178.234C295.21 178.234 293.442 177.679 292.333 176.57C291.241 175.461 290.695 173.684 290.695 171.24C290.695 168.796 291.241 167.019 292.333 165.91ZM294.595 168.042C293.971 168.701 293.659 169.767 293.659 171.24C293.659 172.713 293.971 173.788 294.595 174.464C295.236 175.123 296.25 175.452 297.637 175.452C299.041 175.452 300.055 175.123 300.679 174.464C301.32 173.788 301.641 172.713 301.641 171.24C301.641 169.767 301.32 168.701 300.679 168.042C300.055 167.366 299.041 167.028 297.637 167.028C296.25 167.028 295.236 167.366 294.595 168.042ZM307.418 178V164.48H312.228L316.596 174.906L320.964 164.48H325.774V178H322.836V167.184L318.182 178H315.01L310.356 167.184V178H307.418Z" fill="white"/>
<path d="M125.196 223H123.428V211.1H125.196V216.217H133.271V211.1H135.039V223H133.271V217.883H125.196V223ZM140.778 223.136C139.599 223.136 138.738 222.926 138.194 222.507C137.65 222.088 137.378 221.413 137.378 220.484C137.378 219.521 137.678 218.835 138.279 218.427C138.891 218.008 139.871 217.798 141.22 217.798H144.229C144.229 216.993 144.025 216.41 143.617 216.047C143.209 215.673 142.557 215.486 141.662 215.486C140.948 215.486 140.398 215.605 140.013 215.843C139.628 216.07 139.367 216.438 139.231 216.948H137.582C137.741 215.928 138.149 215.186 138.806 214.721C139.463 214.256 140.438 214.024 141.73 214.024C143.181 214.024 144.235 214.324 144.892 214.925C145.561 215.514 145.895 216.461 145.895 217.764V223H144.229V221.861C143.56 222.711 142.41 223.136 140.778 223.136ZM139.044 220.416C139.044 220.858 139.214 221.181 139.554 221.385C139.905 221.578 140.444 221.674 141.169 221.674C142.132 221.674 142.852 221.498 143.328 221.147C143.815 220.796 144.116 220.235 144.229 219.464V219.056H141.645C139.911 219.056 139.044 219.509 139.044 220.416ZM161.415 223H148.376V214.16H150.042V221.436H154.071V214.16H155.737V221.436H159.749V214.16H161.415V223ZM165.394 223H163.932V214.16H165.598V220.331L170.953 214.16H172.415V223H170.749V216.829L165.394 223ZM179.571 223V214.16H182.274L185.419 221.317L188.564 214.16H191.267V223H189.601V215.656L186.303 223H184.518L181.237 215.656V223H179.571ZM194.359 222.048C193.657 221.323 193.305 220.167 193.305 218.58C193.305 216.993 193.657 215.837 194.359 215.112C195.073 214.387 196.224 214.024 197.81 214.024C199.386 214.024 200.519 214.387 201.21 215.112C201.913 215.837 202.264 216.993 202.264 218.58C202.264 218.637 202.259 218.722 202.247 218.835C202.247 218.948 202.247 219.033 202.247 219.09H195.005C195.062 219.974 195.317 220.626 195.77 221.045C196.235 221.464 196.921 221.674 197.827 221.674C199.153 221.674 199.998 221.221 200.36 220.314H202.094C201.856 221.357 201.369 222.088 200.632 222.507C199.907 222.926 198.966 223.136 197.81 223.136C196.224 223.136 195.073 222.773 194.359 222.048ZM197.827 215.486C196.977 215.486 196.32 215.673 195.855 216.047C195.402 216.41 195.13 217.005 195.039 217.832H200.598C200.508 216.993 200.236 216.393 199.782 216.03C199.34 215.667 198.689 215.486 197.827 215.486ZM205.973 223H204.307V214.16H205.973V217.798H211.124V214.16H212.79V223H211.124V219.362H205.973V223ZM215.892 222.048C215.189 221.323 214.838 220.167 214.838 218.58C214.838 216.993 215.189 215.837 215.892 215.112C216.606 214.387 217.756 214.024 219.343 214.024C220.918 214.024 222.051 214.387 222.743 215.112C223.445 215.837 223.797 216.993 223.797 218.58C223.797 218.637 223.791 218.722 223.78 218.835C223.78 218.948 223.78 219.033 223.78 219.09H216.538C216.594 219.974 216.849 220.626 217.303 221.045C217.767 221.464 218.453 221.674 219.36 221.674C220.686 221.674 221.53 221.221 221.893 220.314H223.627C223.389 221.357 222.901 222.088 222.165 222.507C221.439 222.926 220.499 223.136 219.343 223.136C217.756 223.136 216.606 222.773 215.892 222.048ZM219.36 215.486C218.51 215.486 217.852 215.673 217.388 216.047C216.934 216.41 216.662 217.005 216.572 217.832H222.131C222.04 216.993 221.768 216.393 221.315 216.03C220.873 215.667 220.221 215.486 219.36 215.486ZM226.508 225.686H224.842V221.436H226.066C226.417 221.198 226.672 220.756 226.831 220.11C227.001 219.464 227.131 218.257 227.222 216.489L227.341 214.16H234.515V221.436H236.164V225.686H234.498V223H226.508V225.686ZM228.055 221.436H232.849V215.724H228.888L228.854 216.625C228.74 219.005 228.474 220.609 228.055 221.436ZM237.292 223L240.709 218.478L237.513 214.16H239.502L242.12 217.713H243.446V214.16H245.112V217.713H246.455L249.073 214.16H251.045L247.849 218.478L251.266 223H249.243L246.438 219.277H245.112V223H243.446V219.277H242.12L239.332 223H237.292ZM253.262 222.048C252.559 221.323 252.208 220.167 252.208 218.58C252.208 216.993 252.559 215.837 253.262 215.112C253.976 214.387 255.126 214.024 256.713 214.024C258.288 214.024 259.421 214.387 260.113 215.112C260.815 215.837 261.167 216.993 261.167 218.58C261.167 218.637 261.161 218.722 261.15 218.835C261.15 218.948 261.15 219.033 261.15 219.09H253.908C253.964 219.974 254.219 220.626 254.673 221.045C255.137 221.464 255.823 221.674 256.73 221.674C258.056 221.674 258.9 221.221 259.263 220.314H260.997C260.759 221.357 260.271 222.088 259.535 222.507C258.809 222.926 257.869 223.136 256.713 223.136C255.126 223.136 253.976 222.773 253.262 222.048ZM256.73 215.486C255.88 215.486 255.222 215.673 254.758 216.047C254.304 216.41 254.032 217.005 253.942 217.832H259.501C259.41 216.993 259.138 216.393 258.685 216.03C258.243 215.667 257.591 215.486 256.73 215.486ZM263.209 227.25V214.16H264.875V215.401C265.499 214.483 266.598 214.024 268.173 214.024C269.59 214.024 270.616 214.387 271.25 215.112C271.896 215.826 272.219 216.982 272.219 218.58C272.219 220.167 271.896 221.323 271.25 222.048C270.616 222.773 269.59 223.136 268.173 223.136C266.598 223.136 265.499 222.677 264.875 221.759V227.25H263.209ZM265.572 220.875C266.026 221.34 266.745 221.572 267.731 221.572C268.717 221.572 269.431 221.34 269.873 220.875C270.327 220.399 270.553 219.634 270.553 218.58C270.553 217.537 270.327 216.778 269.873 216.302C269.431 215.826 268.717 215.588 267.731 215.588C266.745 215.588 266.026 215.826 265.572 216.302C265.13 216.778 264.909 217.537 264.909 218.58C264.909 219.634 265.13 220.399 265.572 220.875ZM274.266 223V214.16H275.932V216.88H278.567C279.779 216.88 280.658 217.124 281.202 217.611C281.746 218.098 282.018 218.875 282.018 219.94C282.018 221.005 281.746 221.782 281.202 222.269C280.658 222.756 279.785 223 278.584 223H274.266ZM283.701 223V214.16H285.367V223H283.701ZM278.414 218.444H275.932V221.436H278.431C279.099 221.436 279.587 221.317 279.893 221.079C280.199 220.841 280.352 220.461 280.352 219.94C280.352 219.419 280.199 219.039 279.893 218.801C279.587 218.563 279.094 218.444 278.414 218.444ZM292.511 223V214.16H297.033C298.155 214.16 298.971 214.347 299.481 214.721C299.991 215.095 300.246 215.696 300.246 216.523C300.246 217.418 299.957 218.047 299.379 218.41C300.229 218.773 300.654 219.487 300.654 220.552C300.654 221.413 300.393 222.037 299.872 222.422C299.351 222.807 298.506 223 297.339 223H292.511ZM297.186 219.141H294.177V221.538H297.186C297.821 221.538 298.28 221.447 298.563 221.266C298.846 221.073 298.988 220.762 298.988 220.331C298.988 219.912 298.846 219.611 298.563 219.43C298.28 219.237 297.821 219.141 297.186 219.141ZM294.177 217.883H296.829C297.452 217.883 297.9 217.792 298.172 217.611C298.444 217.43 298.58 217.141 298.58 216.744C298.58 216.359 298.438 216.075 298.155 215.894C297.883 215.713 297.447 215.622 296.846 215.622H294.177V217.883ZM311.28 223.136C309.738 223.136 308.616 222.779 307.914 222.065C307.222 221.34 306.877 220.178 306.877 218.58C306.877 216.993 307.222 215.837 307.914 215.112C308.616 214.387 309.738 214.024 311.28 214.024C312.628 214.024 313.648 214.296 314.34 214.84C315.031 215.373 315.456 216.223 315.615 217.39H313.966C313.818 216.767 313.529 216.313 313.099 216.03C312.679 215.735 312.084 215.588 311.314 215.588C310.339 215.588 309.631 215.826 309.189 216.302C308.758 216.767 308.543 217.526 308.543 218.58C308.543 219.623 308.764 220.382 309.206 220.858C309.648 221.334 310.35 221.572 311.314 221.572C312.084 221.572 312.679 221.43 313.099 221.147C313.529 220.852 313.818 220.393 313.966 219.77H315.615C315.456 220.949 315.031 221.804 314.34 222.337C313.648 222.87 312.628 223.136 311.28 223.136ZM318.19 222.048C317.488 221.323 317.136 220.167 317.136 218.58C317.136 216.993 317.488 215.837 318.19 215.112C318.904 214.387 320.055 214.024 321.641 214.024C323.217 214.024 324.35 214.387 325.041 215.112C325.744 215.837 326.095 216.993 326.095 218.58C326.095 218.637 326.09 218.722 326.078 218.835C326.078 218.948 326.078 219.033 326.078 219.09H318.836C318.893 219.974 319.148 220.626 319.601 221.045C320.066 221.464 320.752 221.674 321.658 221.674C322.984 221.674 323.829 221.221 324.191 220.314H325.925C325.687 221.357 325.2 222.088 324.463 222.507C323.738 222.926 322.797 223.136 321.641 223.136C320.055 223.136 318.904 222.773 318.19 222.048ZM321.658 215.486C320.808 215.486 320.151 215.673 319.686 216.047C319.233 216.41 318.961 217.005 318.87 217.832H324.429C324.339 216.993 324.067 216.393 323.613 216.03C323.171 215.667 322.52 215.486 321.658 215.486ZM335.859 215.724H332.323V223H330.657V215.724H327.121V214.16H335.859V215.724ZM338.947 223H337.485V214.16H339.151V220.331L344.506 214.16H345.968V223H344.302V216.829L338.947 223ZM357.305 210.964C358.892 210.964 360.042 211.253 360.756 211.831C361.482 212.398 361.844 213.321 361.844 214.602C361.844 215.452 361.686 216.126 361.368 216.625C361.051 217.112 360.541 217.469 359.838 217.696L355.707 219.09C355.311 219.226 355.022 219.419 354.84 219.668C354.67 219.917 354.585 220.263 354.585 220.705V221.436H361.929V223H352.919V220.858C352.919 219.192 353.611 218.132 354.993 217.679L359.073 216.285C359.47 216.149 359.753 215.956 359.923 215.707C360.093 215.458 360.178 215.106 360.178 214.653C360.178 213.916 359.946 213.378 359.481 213.038C359.017 212.698 358.274 212.528 357.254 212.528C356.257 212.528 355.52 212.692 355.044 213.021C354.58 213.35 354.347 213.871 354.347 214.585H352.681C352.681 213.316 353.05 212.398 353.786 211.831C354.523 211.253 355.696 210.964 357.305 210.964ZM363.336 218.886L369.541 211.1H372.091V218.886H374.199V220.45H372.091V223H370.425V220.45H363.336V218.886ZM365.308 218.886H370.425V212.375L365.308 218.886ZM374.56 225.55L382.091 209.4H383.655L376.124 225.55H374.56ZM383.963 212.664V211.1H393.415V212.664L386.955 223H385.051L391.511 212.664H383.963ZM396.231 223.136C395.744 223.136 395.392 223.051 395.177 222.881C394.973 222.711 394.871 222.388 394.871 221.912C394.871 221.481 394.967 221.17 395.16 220.977C395.353 220.784 395.664 220.688 396.095 220.688C396.514 220.688 396.82 220.784 397.013 220.977C397.217 221.17 397.319 221.481 397.319 221.912V222.932C397.319 224.043 397.121 224.847 396.724 225.346C396.327 225.845 395.693 226.094 394.82 226.094V225.312C395.307 225.312 395.664 225.136 395.891 224.785C396.118 224.445 396.231 223.895 396.231 223.136ZM124.72 244H123.258V235.16H124.924V241.331L130.279 235.16H131.741V244H130.075V237.829L124.72 244ZM138.897 244V235.16H145.476V236.724H140.563V244H138.897ZM147.577 236.112C148.302 235.387 149.452 235.024 151.028 235.024C152.603 235.024 153.748 235.387 154.462 236.112C155.187 236.837 155.55 237.993 155.55 239.58C155.55 241.178 155.193 242.34 154.479 243.065C153.765 243.779 152.614 244.136 151.028 244.136C149.441 244.136 148.291 243.779 147.577 243.065C146.863 242.34 146.506 241.178 146.506 239.58C146.506 237.993 146.863 236.837 147.577 236.112ZM148.172 239.58C148.172 240.623 148.398 241.382 148.852 241.858C149.305 242.334 150.03 242.572 151.028 242.572C152.025 242.572 152.75 242.334 153.204 241.858C153.657 241.382 153.884 240.623 153.884 239.58C153.884 238.526 153.657 237.767 153.204 237.302C152.762 236.826 152.036 236.588 151.028 236.588C150.019 236.588 149.288 236.826 148.835 237.302C148.393 237.767 148.172 238.526 148.172 239.58ZM165.311 236.724H161.775V244H160.109V236.724H156.573V235.16H165.311V236.724ZM167.399 236.112C168.124 235.387 169.275 235.024 170.85 235.024C172.425 235.024 173.57 235.387 174.284 236.112C175.009 236.837 175.372 237.993 175.372 239.58C175.372 241.178 175.015 242.34 174.301 243.065C173.587 243.779 172.437 244.136 170.85 244.136C169.263 244.136 168.113 243.779 167.399 243.065C166.685 242.34 166.328 241.178 166.328 239.58C166.328 237.993 166.685 236.837 167.399 236.112ZM167.994 239.58C167.994 240.623 168.221 241.382 168.674 241.858C169.127 242.334 169.853 242.572 170.85 242.572C171.847 242.572 172.573 242.334 173.026 241.858C173.479 241.382 173.706 240.623 173.706 239.58C173.706 238.526 173.479 237.767 173.026 237.302C172.584 236.826 171.859 236.588 170.85 236.588C169.841 236.588 169.11 236.826 168.657 237.302C168.215 237.767 167.994 238.526 167.994 239.58ZM177.412 244V235.16H181.934C183.056 235.16 183.872 235.347 184.382 235.721C184.892 236.095 185.147 236.696 185.147 237.523C185.147 238.418 184.858 239.047 184.28 239.41C185.13 239.773 185.555 240.487 185.555 241.552C185.555 242.413 185.295 243.037 184.773 243.422C184.252 243.807 183.408 244 182.24 244H177.412ZM182.087 240.141H179.078V242.538H182.087C182.722 242.538 183.181 242.447 183.464 242.266C183.748 242.073 183.889 241.762 183.889 241.331C183.889 240.912 183.748 240.611 183.464 240.43C183.181 240.237 182.722 240.141 182.087 240.141ZM179.078 238.883H181.73C182.354 238.883 182.801 238.792 183.073 238.611C183.345 238.43 183.481 238.141 183.481 237.744C183.481 237.359 183.34 237.075 183.056 236.894C182.784 236.713 182.348 236.622 181.747 236.622H179.078V238.883ZM187.622 244V235.16H189.288V237.88H191.923C193.136 237.88 194.014 238.124 194.558 238.611C195.102 239.098 195.374 239.875 195.374 240.94C195.374 242.005 195.102 242.782 194.558 243.269C194.014 243.756 193.142 244 191.94 244H187.622ZM197.057 244V235.16H198.723V244H197.057ZM191.77 239.444H189.288V242.436H191.787C192.456 242.436 192.943 242.317 193.249 242.079C193.555 241.841 193.708 241.461 193.708 240.94C193.708 240.419 193.555 240.039 193.249 239.801C192.943 239.563 192.45 239.444 191.77 239.444ZM205.867 244V235.16H214.35V244H212.684V236.724H207.533V244H205.867ZM217.469 236.112C218.195 235.387 219.345 235.024 220.92 235.024C222.496 235.024 223.64 235.387 224.354 236.112C225.08 236.837 225.442 237.993 225.442 239.58C225.442 241.178 225.085 242.34 224.371 243.065C223.657 243.779 222.507 244.136 220.92 244.136C219.334 244.136 218.183 243.779 217.469 243.065C216.755 242.34 216.398 241.178 216.398 239.58C216.398 237.993 216.755 236.837 217.469 236.112ZM218.064 239.58C218.064 240.623 218.291 241.382 218.744 241.858C219.198 242.334 219.923 242.572 220.92 242.572C221.918 242.572 222.643 242.334 223.096 241.858C223.55 241.382 223.776 240.623 223.776 239.58C223.776 238.526 223.55 237.767 223.096 237.302C222.654 236.826 221.929 236.588 220.92 236.588C219.912 236.588 219.181 236.826 218.727 237.302C218.285 237.767 218.064 238.526 218.064 239.58ZM227.483 244V235.16H230.186L233.331 242.317L236.476 235.16H239.179V244H237.513V236.656L234.215 244H232.43L229.149 236.656V244H227.483ZM242.289 236.112C243.014 235.387 244.164 235.024 245.74 235.024C247.315 235.024 248.46 235.387 249.174 236.112C249.899 236.837 250.262 237.993 250.262 239.58C250.262 241.178 249.905 242.34 249.191 243.065C248.477 243.779 247.326 244.136 245.74 244.136C244.153 244.136 243.003 243.779 242.289 243.065C241.575 242.34 241.218 241.178 241.218 239.58C241.218 237.993 241.575 236.837 242.289 236.112ZM242.884 239.58C242.884 240.623 243.11 241.382 243.564 241.858C244.017 242.334 244.742 242.572 245.74 242.572C246.737 242.572 247.462 242.334 247.916 241.858C248.369 241.382 248.596 240.623 248.596 239.58C248.596 238.526 248.369 237.767 247.916 237.302C247.474 236.826 246.748 236.588 245.74 236.588C244.731 236.588 244 236.826 243.547 237.302C243.105 237.767 242.884 238.526 242.884 239.58ZM255.889 240.974C254.461 240.974 253.447 240.696 252.846 240.141C252.245 239.586 251.945 238.679 251.945 237.421V235.16H253.611V237.421C253.611 238.124 253.798 238.634 254.172 238.951C254.557 239.257 255.209 239.41 256.127 239.41C256.671 239.41 257.425 239.353 258.388 239.24V235.16H260.054V244H258.388V240.787C257.515 240.912 256.682 240.974 255.889 240.974ZM262.562 235.16H264.228V237.88H266.863C268.075 237.88 268.954 238.124 269.498 238.611C270.042 239.098 270.314 239.875 270.314 240.94C270.314 242.005 270.042 242.782 269.498 243.269C268.954 243.756 268.081 244 266.88 244H262.562V235.16ZM266.71 239.444H264.228V242.436H266.727C267.395 242.436 267.883 242.317 268.189 242.079C268.495 241.841 268.648 241.461 268.648 240.94C268.648 240.419 268.495 240.039 268.189 239.801C267.883 239.563 267.39 239.444 266.71 239.444ZM276.939 244V235.16H281.461C282.583 235.16 283.399 235.347 283.909 235.721C284.419 236.095 284.674 236.696 284.674 237.523C284.674 238.418 284.385 239.047 283.807 239.41C284.657 239.773 285.082 240.487 285.082 241.552C285.082 242.413 284.821 243.037 284.3 243.422C283.778 243.807 282.934 244 281.767 244H276.939ZM281.614 240.141H278.605V242.538H281.614C282.248 242.538 282.707 242.447 282.991 242.266C283.274 242.073 283.416 241.762 283.416 241.331C283.416 240.912 283.274 240.611 282.991 240.43C282.707 240.237 282.248 240.141 281.614 240.141ZM278.605 238.883H281.257C281.88 238.883 282.328 238.792 282.6 238.611C282.872 238.43 283.008 238.141 283.008 237.744C283.008 237.359 282.866 237.075 282.583 236.894C282.311 236.713 281.874 236.622 281.274 236.622H278.605V238.883ZM290.209 244.136C289.03 244.136 288.169 243.926 287.625 243.507C287.081 243.088 286.809 242.413 286.809 241.484C286.809 240.521 287.109 239.835 287.71 239.427C288.322 239.008 289.302 238.798 290.651 238.798H293.66C293.66 237.993 293.456 237.41 293.048 237.047C292.64 236.673 291.988 236.486 291.093 236.486C290.379 236.486 289.829 236.605 289.444 236.843C289.058 237.07 288.798 237.438 288.662 237.948H287.013C287.171 236.928 287.579 236.186 288.237 235.721C288.894 235.256 289.869 235.024 291.161 235.024C292.611 235.024 293.665 235.324 294.323 235.925C294.991 236.514 295.326 237.461 295.326 238.764V244H293.66V242.861C292.991 243.711 291.841 244.136 290.209 244.136ZM288.475 241.416C288.475 241.858 288.645 242.181 288.985 242.385C289.336 242.578 289.874 242.674 290.6 242.674C291.563 242.674 292.283 242.498 292.759 242.147C293.246 241.796 293.546 241.235 293.66 240.464V240.056H291.076C289.342 240.056 288.475 240.509 288.475 241.416ZM297.807 244V235.16H300.51L303.655 242.317L306.8 235.16H309.503V244H307.837V236.656L304.539 244H302.754L299.473 236.656V244H297.807ZM313.157 244.136C312.669 244.136 312.318 244.051 312.103 243.881C311.899 243.711 311.797 243.388 311.797 242.912C311.797 242.481 311.893 242.17 312.086 241.977C312.278 241.784 312.59 241.688 313.021 241.688C313.44 241.688 313.746 241.784 313.939 241.977C314.143 242.17 314.245 242.481 314.245 242.912V243.932C314.245 245.043 314.046 245.847 313.65 246.346C313.253 246.845 312.618 247.094 311.746 247.094V246.312C312.233 246.312 312.59 246.136 312.817 245.785C313.043 245.445 313.157 244.895 313.157 244.136ZM324.175 244.136C322.997 244.136 322.135 243.926 321.591 243.507C321.047 243.088 320.775 242.413 320.775 241.484C320.775 240.521 321.076 239.835 321.676 239.427C322.288 239.008 323.269 238.798 324.617 238.798H327.626C327.626 237.993 327.422 237.41 327.014 237.047C326.606 236.673 325.955 236.486 325.059 236.486C324.345 236.486 323.796 236.605 323.41 236.843C323.025 237.07 322.764 237.438 322.628 237.948H320.979C321.138 236.928 321.546 236.186 322.203 235.721C322.861 235.256 323.835 235.024 325.127 235.024C326.578 235.024 327.632 235.324 328.289 235.925C328.958 236.514 329.292 237.461 329.292 238.764V244H327.626V242.861C326.958 243.711 325.807 244.136 324.175 244.136ZM322.441 241.416C322.441 241.858 322.611 242.181 322.951 242.385C323.303 242.578 323.841 242.674 324.566 242.674C325.53 242.674 326.249 242.498 326.725 242.147C327.213 241.796 327.513 241.235 327.626 240.464V240.056H325.042C323.308 240.056 322.441 240.509 322.441 241.416ZM344.259 236.724H340.723V244H339.057V236.724H335.521V235.16H344.259V236.724ZM348.812 244.136C347.633 244.136 346.772 243.926 346.228 243.507C345.684 243.088 345.412 242.413 345.412 241.484C345.412 240.521 345.712 239.835 346.313 239.427C346.925 239.008 347.905 238.798 349.254 238.798H352.263C352.263 237.993 352.059 237.41 351.651 237.047C351.243 236.673 350.591 236.486 349.696 236.486C348.982 236.486 348.432 236.605 348.047 236.843C347.662 237.07 347.401 237.438 347.265 237.948H345.616C345.775 236.928 346.183 236.186 346.84 235.721C347.497 235.256 348.472 235.024 349.764 235.024C351.215 235.024 352.269 235.324 352.926 235.925C353.595 236.514 353.929 237.461 353.929 238.764V244H352.263V242.861C351.594 243.711 350.444 244.136 348.812 244.136ZM347.078 241.416C347.078 241.858 347.248 242.181 347.588 242.385C347.939 242.578 348.478 242.674 349.203 242.674C350.166 242.674 350.886 242.498 351.362 242.147C351.849 241.796 352.15 241.235 352.263 240.464V240.056H349.679C347.945 240.056 347.078 240.509 347.078 241.416ZM358.076 244H356.41V235.16H358.076V238.713H359.725L362.598 235.16H364.638L361.102 239.478L364.859 244H362.802L359.725 240.277H358.076V244ZM370.37 244L373.787 239.478L370.591 235.16H372.58L375.198 238.713H376.524V235.16H378.19V238.713H379.533L382.151 235.16H384.123L380.927 239.478L384.344 244H382.321L379.516 240.277H378.19V244H376.524V240.277H375.198L372.41 244H370.37ZM386.34 243.048C385.637 242.323 385.286 241.167 385.286 239.58C385.286 237.993 385.637 236.837 386.34 236.112C387.054 235.387 388.204 235.024 389.791 235.024C391.366 235.024 392.5 235.387 393.191 236.112C393.894 236.837 394.245 237.993 394.245 239.58C394.245 239.637 394.239 239.722 394.228 239.835C394.228 239.948 394.228 240.033 394.228 240.09H386.986C387.043 240.974 387.298 241.626 387.751 242.045C388.216 242.464 388.901 242.674 389.808 242.674C391.134 242.674 391.978 242.221 392.341 241.314H394.075C393.837 242.357 393.35 243.088 392.613 243.507C391.888 243.926 390.947 244.136 389.791 244.136C388.204 244.136 387.054 243.773 386.34 243.048ZM389.808 236.486C388.958 236.486 388.301 236.673 387.836 237.047C387.383 237.41 387.111 238.005 387.02 238.832H392.579C392.488 237.993 392.216 237.393 391.763 237.03C391.321 236.667 390.669 236.486 389.808 236.486ZM123.853 257.112C124.578 256.387 125.729 256.024 127.304 256.024C128.879 256.024 130.024 256.387 130.738 257.112C131.463 257.837 131.826 258.993 131.826 260.58C131.826 262.178 131.469 263.34 130.755 264.065C130.041 264.779 128.891 265.136 127.304 265.136C125.717 265.136 124.567 264.779 123.853 264.065C123.139 263.34 122.782 262.178 122.782 260.58C122.782 258.993 123.139 257.837 123.853 257.112ZM124.448 260.58C124.448 261.623 124.675 262.382 125.128 262.858C125.581 263.334 126.307 263.572 127.304 263.572C128.301 263.572 129.027 263.334 129.48 262.858C129.933 262.382 130.16 261.623 130.16 260.58C130.16 259.526 129.933 258.767 129.48 258.302C129.038 257.826 128.313 257.588 127.304 257.588C126.295 257.588 125.564 257.826 125.111 258.302C124.669 258.767 124.448 259.526 124.448 260.58ZM141.588 257.724H138.052V265H136.386V257.724H132.85V256.16H141.588V257.724ZM143.213 265V256.16H147.735C148.857 256.16 149.673 256.347 150.183 256.721C150.693 257.095 150.948 257.696 150.948 258.523C150.948 259.418 150.659 260.047 150.081 260.41C150.931 260.773 151.356 261.487 151.356 262.552C151.356 263.413 151.095 264.037 150.574 264.422C150.053 264.807 149.208 265 148.041 265H143.213ZM147.888 261.141H144.879V263.538H147.888C148.523 263.538 148.982 263.447 149.265 263.266C149.548 263.073 149.69 262.762 149.69 262.331C149.69 261.912 149.548 261.611 149.265 261.43C148.982 261.237 148.523 261.141 147.888 261.141ZM144.879 259.883H147.531C148.154 259.883 148.602 259.792 148.874 259.611C149.146 259.43 149.282 259.141 149.282 258.744C149.282 258.359 149.14 258.075 148.857 257.894C148.585 257.713 148.149 257.622 147.548 257.622H144.879V259.883ZM154.001 264.048C153.298 263.323 152.947 262.167 152.947 260.58C152.947 258.993 153.298 257.837 154.001 257.112C154.715 256.387 155.865 256.024 157.452 256.024C159.027 256.024 160.161 256.387 160.852 257.112C161.555 257.837 161.906 258.993 161.906 260.58C161.906 260.637 161.9 260.722 161.889 260.835C161.889 260.948 161.889 261.033 161.889 261.09H154.647C154.704 261.974 154.959 262.626 155.412 263.045C155.877 263.464 156.562 263.674 157.469 263.674C158.795 263.674 159.639 263.221 160.002 262.314H161.736C161.498 263.357 161.011 264.088 160.274 264.507C159.549 264.926 158.608 265.136 157.452 265.136C155.865 265.136 154.715 264.773 154.001 264.048ZM157.469 257.486C156.619 257.486 155.962 257.673 155.497 258.047C155.044 258.41 154.772 259.005 154.681 259.832H160.24C160.149 258.993 159.877 258.393 159.424 258.03C158.982 257.667 158.33 257.486 157.469 257.486ZM171.67 257.724H168.134V265H166.468V257.724H162.932V256.16H171.67V257.724ZM174.757 265H173.295V256.16H174.961V262.331L180.316 256.16H181.778V265H180.112V258.829L174.757 265ZM192.156 257.724H188.62V265H186.954V257.724H183.418V256.16H192.156V257.724ZM193.781 256.16H195.447V258.88H198.082C199.295 258.88 200.173 259.124 200.717 259.611C201.261 260.098 201.533 260.875 201.533 261.94C201.533 263.005 201.261 263.782 200.717 264.269C200.173 264.756 199.301 265 198.099 265H193.781V256.16ZM197.929 260.444H195.447V263.436H197.946C198.615 263.436 199.102 263.317 199.408 263.079C199.714 262.841 199.867 262.461 199.867 261.94C199.867 261.419 199.714 261.039 199.408 260.801C199.102 260.563 198.609 260.444 197.929 260.444ZM209.824 265H208.158V256.16H209.824V259.798H214.975V256.16H216.641V265H214.975V261.362H209.824V265ZM222.225 265.136C221.047 265.136 220.185 264.926 219.641 264.507C219.097 264.088 218.825 263.413 218.825 262.484C218.825 261.521 219.126 260.835 219.726 260.427C220.338 260.008 221.319 259.798 222.667 259.798H225.676C225.676 258.993 225.472 258.41 225.064 258.047C224.656 257.673 224.005 257.486 223.109 257.486C222.395 257.486 221.846 257.605 221.46 257.843C221.075 258.07 220.814 258.438 220.678 258.948H219.029C219.188 257.928 219.596 257.186 220.253 256.721C220.911 256.256 221.885 256.024 223.177 256.024C224.628 256.024 225.682 256.324 226.339 256.925C227.008 257.514 227.342 258.461 227.342 259.764V265H225.676V263.861C225.008 264.711 223.857 265.136 222.225 265.136ZM220.491 262.416C220.491 262.858 220.661 263.181 221.001 263.385C221.353 263.578 221.891 263.674 222.616 263.674C223.58 263.674 224.299 263.498 224.775 263.147C225.263 262.796 225.563 262.235 225.676 261.464V261.056H223.092C221.358 261.056 220.491 261.509 220.491 262.416ZM234.455 265V256.16H238.977C240.099 256.16 240.915 256.347 241.425 256.721C241.935 257.095 242.19 257.696 242.19 258.523C242.19 259.418 241.901 260.047 241.323 260.41C242.173 260.773 242.598 261.487 242.598 262.552C242.598 263.413 242.338 264.037 241.816 264.422C241.295 264.807 240.451 265 239.283 265H234.455ZM239.13 261.141H236.121V263.538H239.13C239.765 263.538 240.224 263.447 240.507 263.266C240.791 263.073 240.932 262.762 240.932 262.331C240.932 261.912 240.791 261.611 240.507 261.43C240.224 261.237 239.765 261.141 239.13 261.141ZM236.121 259.883H238.773C239.397 259.883 239.844 259.792 240.116 259.611C240.388 259.43 240.524 259.141 240.524 258.744C240.524 258.359 240.383 258.075 240.099 257.894C239.827 257.713 239.391 257.622 238.79 257.622H236.121V259.883ZM247.725 265.136C246.547 265.136 245.685 264.926 245.141 264.507C244.597 264.088 244.325 263.413 244.325 262.484C244.325 261.521 244.626 260.835 245.226 260.427C245.838 260.008 246.819 259.798 248.167 259.798H251.176C251.176 258.993 250.972 258.41 250.564 258.047C250.156 257.673 249.505 257.486 248.609 257.486C247.895 257.486 247.346 257.605 246.96 257.843C246.575 258.07 246.314 258.438 246.178 258.948H244.529C244.688 257.928 245.096 257.186 245.753 256.721C246.411 256.256 247.385 256.024 248.677 256.024C250.128 256.024 251.182 256.324 251.839 256.925C252.508 257.514 252.842 258.461 252.842 259.764V265H251.176V263.861C250.508 264.711 249.357 265.136 247.725 265.136ZM245.991 262.416C245.991 262.858 246.161 263.181 246.501 263.385C246.853 263.578 247.391 263.674 248.116 263.674C249.08 263.674 249.799 263.498 250.275 263.147C250.763 262.796 251.063 262.235 251.176 261.464V261.056H248.592C246.858 261.056 245.991 261.509 245.991 262.416ZM268.362 265H255.323V256.16H256.989V263.436H261.018V256.16H262.684V263.436H266.696V256.16H268.362V265ZM272.341 265H270.879V256.16H272.545V262.331L277.9 256.16H279.362V265H277.696V258.829L272.341 265ZM286.518 265V256.16H291.04C292.162 256.16 292.978 256.347 293.488 256.721C293.998 257.095 294.253 257.696 294.253 258.523C294.253 259.418 293.964 260.047 293.386 260.41C294.236 260.773 294.661 261.487 294.661 262.552C294.661 263.413 294.4 264.037 293.879 264.422C293.357 264.807 292.513 265 291.346 265H286.518ZM291.193 261.141H288.184V263.538H291.193C291.827 263.538 292.286 263.447 292.57 263.266C292.853 263.073 292.995 262.762 292.995 262.331C292.995 261.912 292.853 261.611 292.57 261.43C292.286 261.237 291.827 261.141 291.193 261.141ZM288.184 259.883H290.836C291.459 259.883 291.907 259.792 292.179 259.611C292.451 259.43 292.587 259.141 292.587 258.744C292.587 258.359 292.445 258.075 292.162 257.894C291.89 257.713 291.453 257.622 290.853 257.622H288.184V259.883ZM297.323 257.112C298.048 256.387 299.198 256.024 300.774 256.024C302.349 256.024 303.494 256.387 304.208 257.112C304.933 257.837 305.296 258.993 305.296 260.58C305.296 262.178 304.939 263.34 304.225 264.065C303.511 264.779 302.36 265.136 300.774 265.136C299.187 265.136 298.037 264.779 297.323 264.065C296.609 263.34 296.252 262.178 296.252 260.58C296.252 258.993 296.609 257.837 297.323 257.112ZM297.918 260.58C297.918 261.623 298.144 262.382 298.598 262.858C299.051 263.334 299.776 263.572 300.774 263.572C301.771 263.572 302.496 263.334 302.95 262.858C303.403 262.382 303.63 261.623 303.63 260.58C303.63 259.526 303.403 258.767 302.95 258.302C302.508 257.826 301.782 257.588 300.774 257.588C299.765 257.588 299.034 257.826 298.581 258.302C298.139 258.767 297.918 259.526 297.918 260.58ZM307.336 265V256.16H315.819V265H314.153V257.724H309.002V265H307.336ZM318.343 269.25V256.16H320.009V257.401C320.632 256.483 321.732 256.024 323.307 256.024C324.724 256.024 325.749 256.387 326.384 257.112C327.03 257.826 327.353 258.982 327.353 260.58C327.353 262.167 327.03 263.323 326.384 264.048C325.749 264.773 324.724 265.136 323.307 265.136C321.732 265.136 320.632 264.677 320.009 263.759V269.25H318.343ZM320.706 262.875C321.159 263.34 321.879 263.572 322.865 263.572C323.851 263.572 324.565 263.34 325.007 262.875C325.46 262.399 325.687 261.634 325.687 260.58C325.687 259.537 325.46 258.778 325.007 258.302C324.565 257.826 323.851 257.588 322.865 257.588C321.879 257.588 321.159 257.826 320.706 258.302C320.264 258.778 320.043 259.537 320.043 260.58C320.043 261.634 320.264 262.399 320.706 262.875ZM329.995 257.112C330.72 256.387 331.87 256.024 333.446 256.024C335.021 256.024 336.166 256.387 336.88 257.112C337.605 257.837 337.968 258.993 337.968 260.58C337.968 262.178 337.611 263.34 336.897 264.065C336.183 264.779 335.032 265.136 333.446 265.136C331.859 265.136 330.709 264.779 329.995 264.065C329.281 263.34 328.924 262.178 328.924 260.58C328.924 258.993 329.281 257.837 329.995 257.112ZM330.59 260.58C330.59 261.623 330.816 262.382 331.27 262.858C331.723 263.334 332.448 263.572 333.446 263.572C334.443 263.572 335.168 263.334 335.622 262.858C336.075 262.382 336.302 261.623 336.302 260.58C336.302 259.526 336.075 258.767 335.622 258.302C335.18 257.826 334.454 257.588 333.446 257.588C332.437 257.588 331.706 257.826 331.253 258.302C330.811 258.767 330.59 259.526 330.59 260.58ZM343.935 265.136C342.394 265.136 341.272 264.779 340.569 264.065C339.878 263.34 339.532 262.178 339.532 260.58C339.532 258.993 339.878 257.837 340.569 257.112C341.272 256.387 342.394 256.024 343.935 256.024C345.284 256.024 346.304 256.296 346.995 256.84C347.686 257.373 348.111 258.223 348.27 259.39H346.621C346.474 258.767 346.185 258.313 345.754 258.03C345.335 257.735 344.74 257.588 343.969 257.588C342.994 257.588 342.286 257.826 341.844 258.302C341.413 258.767 341.198 259.526 341.198 260.58C341.198 261.623 341.419 262.382 341.861 262.858C342.303 263.334 343.006 263.572 343.969 263.572C344.74 263.572 345.335 263.43 345.754 263.147C346.185 262.852 346.474 262.393 346.621 261.77H348.27C348.111 262.949 347.686 263.804 346.995 264.337C346.304 264.87 345.284 265.136 343.935 265.136ZM350.268 265V256.16H351.934V258.88H354.569C355.781 258.88 356.66 259.124 357.204 259.611C357.748 260.098 358.02 260.875 358.02 261.94C358.02 263.005 357.748 263.782 357.204 264.269C356.66 264.756 355.787 265 354.586 265H350.268ZM359.703 265V256.16H361.369V265H359.703ZM354.416 260.444H351.934V263.436H354.433C355.101 263.436 355.589 263.317 355.895 263.079C356.201 262.841 356.354 262.461 356.354 261.94C356.354 261.419 356.201 261.039 355.895 260.801C355.589 260.563 355.096 260.444 354.416 260.444Z" fill="white" fill-opacity="0.9"/>
<g clip-path="url(#clip0_66_2444)">
<path fill-rule="evenodd" clip-rule="evenodd" d="M468.329 366.432C468.329 323.97 434.706 291 393.373 291C352.04 291 318.416 323.97 318.416 364.5C305.963 370.769 297 382.308 297 396V417C297 425.354 300.385 433.366 306.409 439.274C312.433 445.181 320.604 448.5 329.124 448.5H339.832C342.672 448.5 345.396 447.394 347.404 445.425C349.412 443.455 350.54 440.785 350.54 438V375C350.54 372.215 349.412 369.545 347.404 367.575C345.396 365.606 342.672 364.5 339.832 364.5C339.832 350.576 345.473 337.223 355.514 327.377C365.555 317.531 379.173 312 393.373 312C407.573 312 421.191 317.531 431.232 327.377C441.272 337.223 446.913 350.576 446.913 364.5C444.073 364.5 441.35 365.606 439.341 367.575C437.333 369.545 436.205 372.215 436.205 375V438C436.205 440.785 437.333 443.455 439.341 445.425C441.35 447.394 444.073 448.5 446.913 448.5V459H419.158C416.952 452.9 411.063 448.5 404.081 448.5H382.665C378.405 448.5 374.319 450.159 371.307 453.113C368.295 456.067 366.603 460.073 366.603 464.25C366.603 468.427 368.295 472.433 371.307 475.387C374.319 478.341 378.405 480 382.665 480H446.913C452.593 480 458.04 477.788 462.057 473.849C466.073 469.911 468.329 464.57 468.329 459V446.579C474.58 444.425 479.996 440.424 483.831 435.126C487.666 429.829 489.733 423.496 489.746 417V396C489.734 389.505 487.668 383.173 483.832 377.877C479.996 372.581 474.58 368.583 468.329 366.432L222.043 942L468.329 366.432Z" fill="url(#paint2_linear_66_2444)"/>
</g>
<defs>
<filter id="filter0_d_66_2444" x="0" y="0" width="560" height="560" filterUnits="userSpaceOnUse" color-interpolation-filters="sRGB">
<feFlood flood-opacity="0" result="BackgroundImageFix"/>
<feColorMatrix in="SourceAlpha" type="matrix" values="0 0 0 0 0 0 0 0 0 0 0 0 0 0 0 0 0 0 127 0" result="hardAlpha"/>
<feOffset/>
<feGaussianBlur stdDeviation="40"/>
<feComposite in2="hardAlpha" operator="out"/>
<feColorMatrix type="matrix" values="0 0 0 0 0.172549 0 0 0 0 0.172549 0 0 0 0 0.176471 0 0 0 0.35 0"/>
<feBlend mode="normal" in2="BackgroundImageFix" result="effect1_dropShadow_66_2444"/>
<feBlend mode="normal" in="SourceGraphic" in2="effect1_dropShadow_66_2444" result="shape"/>
</filter>
<linearGradient id="paint0_linear_66_2444" x1="124.364" y1="116.697" x2="431.61" y2="477.234" gradientUnits="userSpaceOnUse">
<stop stop-color="#303134"/>
<stop offset="0.519792" stop-color="#282828"/>
<stop offset="0.927909" stop-color="#282828"/>
</linearGradient>
<linearGradient id="paint1_linear_66_2444" x1="88" y1="87" x2="462" y2="486" gradientUnits="userSpaceOnUse">
<stop stop-color="white"/>
<stop offset="1" stop-color="white" stop-opacity="0"/>
</linearGradient>
<linearGradient id="paint2_linear_66_2444" x1="331.651" y1="331.576" x2="450.844" y2="484.825" gradientUnits="userSpaceOnUse">
<stop stop-color="#3C3C3C"/>
<stop offset="1" stop-color="#262626"/>
</linearGradient>
<clipPath id="clip0_66_2444">
<rect width="183" height="189" fill="white" transform="translate(297 291)"/>
</clipPath>
</defs>
</svg>
