<svg width="560" height="560" viewBox="0 0 560 560" fill="none" xmlns="http://www.w3.org/2000/svg">
<g filter="url(#filter0_d_66_2443)">
<rect x="80" y="80" width="400" height="400" rx="6" fill="url(#paint0_linear_66_2443)"/>
<rect x="80.5" y="80.5" width="399" height="399" rx="5.5" stroke="url(#paint1_linear_66_2443)" stroke-opacity="0.2"/>
</g>
<path d="M123.002 146V127.8H126.148V135.21H129.268L135.378 127.8H139.2L131.894 136.64L139.798 146H135.872L129.294 138.148H126.148V146H123.002ZM142.29 133.91C143.399 132.801 145.167 132.246 147.594 132.246C150.021 132.246 151.789 132.801 152.898 133.91C154.007 135.019 154.562 136.796 154.562 139.24C154.562 141.684 154.007 143.461 152.898 144.57C151.789 145.679 150.021 146.234 147.594 146.234C145.167 146.234 143.399 145.679 142.29 144.57C141.198 143.461 140.652 141.684 140.652 139.24C140.652 136.796 141.198 135.019 142.29 133.91ZM144.552 136.042C143.928 136.701 143.616 137.767 143.616 139.24C143.616 140.713 143.928 141.788 144.552 142.464C145.193 143.123 146.207 143.452 147.594 143.452C148.998 143.452 150.012 143.123 150.636 142.464C151.277 141.788 151.598 140.713 151.598 139.24C151.598 137.767 151.277 136.701 150.636 136.042C150.012 135.366 148.998 135.028 147.594 135.028C146.207 135.028 145.193 135.366 144.552 136.042ZM157.375 146V132.48H162.185L166.553 142.906L170.921 132.48H175.731V146H172.793V135.184L168.139 146H164.967L160.313 135.184V146H157.375ZM183.839 146.234C182.071 146.234 180.771 145.905 179.939 145.246C179.107 144.57 178.691 143.513 178.691 142.074C178.691 140.583 179.141 139.526 180.043 138.902C180.961 138.261 182.443 137.94 184.489 137.94H188.831C188.796 136.865 188.493 136.085 187.921 135.6C187.366 135.097 186.482 134.846 185.269 134.846C184.281 134.846 183.518 135.011 182.981 135.34C182.443 135.652 182.088 136.163 181.915 136.874H178.977C179.219 135.262 179.843 134.092 180.849 133.364C181.854 132.619 183.362 132.246 185.373 132.246C187.626 132.246 189.255 132.705 190.261 133.624C191.283 134.543 191.795 136.016 191.795 138.044V146H188.831V144.466C187.825 145.645 186.161 146.234 183.839 146.234ZM181.629 141.97C181.629 143.079 182.599 143.634 184.541 143.634C185.875 143.634 186.881 143.391 187.557 142.906C188.233 142.421 188.657 141.658 188.831 140.618V140.15H185.269C182.842 140.15 181.629 140.757 181.629 141.97ZM195.232 146V132.48H198.17V137.862H205.32V132.48H208.284V146H205.32V140.618H198.17V146H195.232ZM213.686 150.056H210.748V143.244H212.672C213.157 142.88 213.512 142.23 213.738 141.294C213.98 140.341 214.162 138.633 214.284 136.172L214.466 132.48H225.62V143.244H228.116V150.056H225.178V146H213.686V150.056ZM216.104 143.244H222.656V135.236H217.222L217.17 136.432C217.014 139.639 216.658 141.909 216.104 143.244ZM235.204 146.234C233.436 146.234 232.136 145.905 231.304 145.246C230.472 144.57 230.056 143.513 230.056 142.074C230.056 140.583 230.507 139.526 231.408 138.902C232.327 138.261 233.809 137.94 235.854 137.94H240.196C240.161 136.865 239.858 136.085 239.286 135.6C238.731 135.097 237.847 134.846 236.634 134.846C235.646 134.846 234.883 135.011 234.346 135.34C233.809 135.652 233.453 136.163 233.28 136.874H230.342C230.585 135.262 231.209 134.092 232.214 133.364C233.219 132.619 234.727 132.246 236.738 132.246C238.991 132.246 240.621 132.705 241.626 133.624C242.649 134.543 243.16 136.016 243.16 138.044V146H240.196V144.466C239.191 145.645 237.527 146.234 235.204 146.234ZM232.994 141.97C232.994 143.079 233.965 143.634 235.906 143.634C237.241 143.634 238.246 143.391 238.922 142.906C239.598 142.421 240.023 141.658 240.196 140.618V140.15H236.634C234.207 140.15 232.994 140.757 232.994 141.97ZM128.826 178.234C126.469 178.234 124.753 177.679 123.678 176.57C122.603 175.461 122.066 173.684 122.066 171.24C122.066 168.796 122.603 167.019 123.678 165.91C124.753 164.801 126.469 164.246 128.826 164.246C130.923 164.246 132.501 164.671 133.558 165.52C134.615 166.369 135.265 167.721 135.508 169.576H132.57C132.379 168.675 131.989 168.025 131.4 167.626C130.811 167.227 129.97 167.028 128.878 167.028C127.526 167.028 126.547 167.366 125.94 168.042C125.333 168.701 125.03 169.767 125.03 171.24C125.03 172.713 125.333 173.788 125.94 174.464C126.547 175.123 127.526 175.452 128.878 175.452C129.953 175.452 130.785 175.253 131.374 174.854C131.981 174.438 132.379 173.788 132.57 172.904H135.508C135.283 174.741 134.633 176.093 133.558 176.96C132.501 177.809 130.923 178.234 128.826 178.234ZM138.281 178V164.48H151.333V178H148.369V167.236H141.219V178H138.281ZM154.134 171.24C154.134 168.813 154.68 167.045 155.772 165.936C156.864 164.809 158.624 164.246 161.05 164.246C163.477 164.246 165.228 164.801 166.302 165.91C167.377 167.019 167.914 168.796 167.914 171.24C167.914 171.431 167.897 171.734 167.862 172.15H157.176C157.28 173.363 157.644 174.247 158.268 174.802C158.91 175.357 159.846 175.634 161.076 175.634C162.896 175.634 164.066 175.019 164.586 173.788H167.654C167.308 175.435 166.571 176.587 165.444 177.246C164.318 177.905 162.853 178.234 161.05 178.234C158.624 178.234 156.864 177.679 155.772 176.57C154.68 175.461 154.134 173.684 154.134 171.24ZM157.202 169.94H164.924C164.768 168.831 164.378 168.042 163.754 167.574C163.13 167.089 162.238 166.846 161.076 166.846C159.915 166.846 159.014 167.089 158.372 167.574C157.748 168.059 157.358 168.848 157.202 169.94ZM170.73 164.48H173.668V175.244H180.558V164.48H183.522V175.244H186.018V182.056H183.08V178H170.73V164.48ZM191.154 178H188.58V164.48H191.518V173.242L199.058 164.48H201.632V178H198.668V169.212L191.154 178ZM209.737 178.234C207.969 178.234 206.669 177.905 205.837 177.246C205.005 176.57 204.589 175.513 204.589 174.074C204.589 172.583 205.04 171.526 205.941 170.902C206.86 170.261 208.342 169.94 210.387 169.94H214.729C214.695 168.865 214.391 168.085 213.819 167.6C213.265 167.097 212.381 166.846 211.167 166.846C210.179 166.846 209.417 167.011 208.879 167.34C208.342 167.652 207.987 168.163 207.813 168.874H204.875C205.118 167.262 205.742 166.092 206.747 165.364C207.753 164.619 209.261 164.246 211.271 164.246C213.525 164.246 215.154 164.705 216.159 165.624C217.182 166.543 217.693 168.016 217.693 170.044V178H214.729V176.466C213.724 177.645 212.06 178.234 209.737 178.234ZM207.527 173.97C207.527 175.079 208.498 175.634 210.439 175.634C211.774 175.634 212.779 175.391 213.455 174.906C214.131 174.421 214.556 173.658 214.729 172.618V172.15H211.167C208.741 172.15 207.527 172.757 207.527 173.97ZM220.351 178V175.036H221.157C221.573 175.036 221.885 174.889 222.093 174.594C222.318 174.282 222.509 173.632 222.665 172.644C222.838 171.639 222.968 170.148 223.055 168.172L223.237 164.48H234.391V178H231.427V167.236H226.019L225.967 168.432C225.845 170.98 225.603 172.947 225.239 174.334C224.875 175.721 224.381 176.683 223.757 177.22C223.15 177.74 222.327 178 221.287 178H220.351ZM240.437 178H237.863V164.48H240.801V173.242L248.341 164.48H250.915V178H247.951V169.212L240.437 178ZM260.476 178.234C258.119 178.234 256.403 177.679 255.328 176.57C254.254 175.461 253.716 173.684 253.716 171.24C253.716 168.796 254.254 167.019 255.328 165.91C256.403 164.801 258.119 164.246 260.476 164.246C262.574 164.246 264.151 164.671 265.208 165.52C266.266 166.369 266.916 167.721 267.158 169.576H264.22C264.03 168.675 263.64 168.025 263.05 167.626C262.461 167.227 261.62 167.028 260.528 167.028C259.176 167.028 258.197 167.366 257.59 168.042C256.984 168.701 256.68 169.767 256.68 171.24C256.68 172.713 256.984 173.788 257.59 174.464C258.197 175.123 259.176 175.452 260.528 175.452C261.603 175.452 262.435 175.253 263.024 174.854C263.631 174.438 264.03 173.788 264.22 172.904H267.158C266.933 174.741 266.283 176.093 265.208 176.96C264.151 177.809 262.574 178.234 260.476 178.234ZM281.843 167.236H276.669V178H273.705V167.236H268.505V164.48H281.843V167.236ZM284.884 165.91C285.993 164.801 287.761 164.246 290.188 164.246C292.614 164.246 294.382 164.801 295.492 165.91C296.601 167.019 297.156 168.796 297.156 171.24C297.156 173.684 296.601 175.461 295.492 176.57C294.382 177.679 292.614 178.234 290.188 178.234C287.761 178.234 285.993 177.679 284.884 176.57C283.792 175.461 283.246 173.684 283.246 171.24C283.246 168.796 283.792 167.019 284.884 165.91ZM287.146 168.042C286.522 168.701 286.21 169.767 286.21 171.24C286.21 172.713 286.522 173.788 287.146 174.464C287.787 175.123 288.801 175.452 290.188 175.452C291.592 175.452 292.606 175.123 293.23 174.464C293.871 173.788 294.192 172.713 294.192 171.24C294.192 169.767 293.871 168.701 293.23 168.042C292.606 167.366 291.592 167.028 290.188 167.028C288.801 167.028 287.787 167.366 287.146 168.042ZM299.969 178V164.48H307.015C308.748 164.48 310.005 164.775 310.785 165.364C311.582 165.936 311.981 166.872 311.981 168.172C311.981 169.472 311.573 170.417 310.759 171.006C311.972 171.561 312.579 172.627 312.579 174.204C312.579 175.539 312.171 176.509 311.357 177.116C310.542 177.705 309.233 178 307.431 178H299.969ZM307.145 172.28H302.907V175.426H307.145C308.029 175.426 308.661 175.305 309.043 175.062C309.424 174.802 309.615 174.395 309.615 173.84C309.615 173.285 309.424 172.887 309.043 172.644C308.661 172.401 308.029 172.28 307.145 172.28ZM302.907 170.07H306.651C307.483 170.07 308.081 169.949 308.445 169.706C308.826 169.463 309.017 169.082 309.017 168.562C309.017 167.557 308.237 167.054 306.677 167.054H302.907V170.07Z" fill="white"/>
<path d="M122.428 223V211.1H128.956C130.259 211.1 131.206 211.349 131.795 211.848C132.396 212.347 132.696 213.134 132.696 214.211C132.696 215.514 132.271 216.393 131.421 216.846C132.543 217.265 133.104 218.24 133.104 219.77C133.104 220.903 132.809 221.725 132.22 222.235C131.631 222.745 130.679 223 129.364 223H122.428ZM124.196 221.334H129.364C130.089 221.334 130.616 221.192 130.945 220.909C131.285 220.614 131.455 220.15 131.455 219.515C131.455 218.892 131.285 218.438 130.945 218.155C130.616 217.86 130.089 217.713 129.364 217.713H124.196V221.334ZM124.196 216.149H128.905C129.687 216.149 130.237 216.019 130.554 215.758C130.883 215.486 131.047 215.05 131.047 214.449C131.047 213.86 130.877 213.435 130.537 213.174C130.208 212.902 129.681 212.766 128.956 212.766H124.196V216.149ZM141.522 223H139.856V214.16H141.522V217.798H146.673V214.16H148.339V223H146.673V219.362H141.522V223ZM153.922 223.136C152.744 223.136 151.882 222.926 151.338 222.507C150.794 222.088 150.522 221.413 150.522 220.484C150.522 219.521 150.823 218.835 151.423 218.427C152.035 218.008 153.016 217.798 154.364 217.798H157.373C157.373 216.993 157.169 216.41 156.761 216.047C156.353 215.673 155.702 215.486 154.806 215.486C154.092 215.486 153.543 215.605 153.157 215.843C152.772 216.07 152.511 216.438 152.375 216.948H150.726C150.885 215.928 151.293 215.186 151.95 214.721C152.608 214.256 153.582 214.024 154.874 214.024C156.325 214.024 157.379 214.324 158.036 214.925C158.705 215.514 159.039 216.461 159.039 217.764V223H157.373V221.861C156.705 222.711 155.554 223.136 153.922 223.136ZM152.188 220.416C152.188 220.858 152.358 221.181 152.698 221.385C153.05 221.578 153.588 221.674 154.313 221.674C155.277 221.674 155.996 221.498 156.472 221.147C156.96 220.796 157.26 220.235 157.373 219.464V219.056H154.789C153.055 219.056 152.188 219.509 152.188 220.416ZM174.56 223H161.521V214.16H163.187V221.436H167.216V214.16H168.882V221.436H172.894V214.16H174.56V223ZM177.654 222.048C176.952 221.323 176.6 220.167 176.6 218.58C176.6 216.993 176.952 215.837 177.654 215.112C178.368 214.387 179.519 214.024 181.105 214.024C182.681 214.024 183.814 214.387 184.505 215.112C185.208 215.837 185.559 216.993 185.559 218.58C185.559 218.637 185.554 218.722 185.542 218.835C185.542 218.948 185.542 219.033 185.542 219.09H178.3C178.357 219.974 178.612 220.626 179.065 221.045C179.53 221.464 180.216 221.674 181.122 221.674C182.448 221.674 183.293 221.221 183.655 220.314H185.389C185.151 221.357 184.664 222.088 183.927 222.507C183.202 222.926 182.261 223.136 181.105 223.136C179.519 223.136 178.368 222.773 177.654 222.048ZM181.122 215.486C180.272 215.486 179.615 215.673 179.15 216.047C178.697 216.41 178.425 217.005 178.334 217.832H183.893C183.803 216.993 183.531 216.393 183.077 216.03C182.635 215.667 181.984 215.486 181.122 215.486ZM187.602 223V214.16H189.268V220.331L194.623 214.16H196.085V223H194.419V216.829L189.064 223H187.602ZM188.809 210.488H190.169C190.169 211.009 190.305 211.389 190.577 211.627C190.849 211.865 191.279 211.984 191.869 211.984C192.458 211.984 192.889 211.865 193.161 211.627C193.433 211.389 193.569 211.009 193.569 210.488H194.929C194.929 211.395 194.685 212.063 194.198 212.494C193.71 212.925 192.934 213.14 191.869 213.14C190.815 213.14 190.038 212.925 189.54 212.494C189.052 212.052 188.809 211.383 188.809 210.488ZM204.906 223H203.24V214.16H204.906V217.713H206.555L209.428 214.16H211.468L207.932 218.478L211.689 223H209.632L206.555 219.277H204.906V223ZM213.697 215.112C214.422 214.387 215.572 214.024 217.148 214.024C218.723 214.024 219.868 214.387 220.582 215.112C221.307 215.837 221.67 216.993 221.67 218.58C221.67 220.178 221.313 221.34 220.599 222.065C219.885 222.779 218.734 223.136 217.148 223.136C215.561 223.136 214.411 222.779 213.697 222.065C212.983 221.34 212.626 220.178 212.626 218.58C212.626 216.993 212.983 215.837 213.697 215.112ZM214.292 218.58C214.292 219.623 214.518 220.382 214.972 220.858C215.425 221.334 216.15 221.572 217.148 221.572C218.145 221.572 218.87 221.334 219.324 220.858C219.777 220.382 220.004 219.623 220.004 218.58C220.004 217.526 219.777 216.767 219.324 216.302C218.882 215.826 218.156 215.588 217.148 215.588C216.139 215.588 215.408 215.826 214.955 216.302C214.513 216.767 214.292 217.526 214.292 218.58ZM223.71 223V214.16H226.413L229.558 221.317L232.703 214.16H235.406V223H233.74V215.656L230.442 223H228.657L225.376 215.656V223H223.71ZM240.981 223.136C239.802 223.136 238.941 222.926 238.397 222.507C237.853 222.088 237.581 221.413 237.581 220.484C237.581 219.521 237.881 218.835 238.482 218.427C239.094 218.008 240.074 217.798 241.423 217.798H244.432C244.432 216.993 244.228 216.41 243.82 216.047C243.412 215.673 242.76 215.486 241.865 215.486C241.151 215.486 240.601 215.605 240.216 215.843C239.831 216.07 239.57 216.438 239.434 216.948H237.785C237.944 215.928 238.352 215.186 239.009 214.721C239.666 214.256 240.641 214.024 241.933 214.024C243.384 214.024 244.438 214.324 245.095 214.925C245.764 215.514 246.098 216.461 246.098 217.764V223H244.432V221.861C243.763 222.711 242.613 223.136 240.981 223.136ZM239.247 220.416C239.247 220.858 239.417 221.181 239.757 221.385C240.108 221.578 240.647 221.674 241.372 221.674C242.335 221.674 243.055 221.498 243.531 221.147C244.018 220.796 244.319 220.235 244.432 219.464V219.056H241.848C240.114 219.056 239.247 219.509 239.247 220.416ZM250.245 223H248.579V214.16H250.245V217.798H255.396V214.16H257.062V223H255.396V219.362H250.245V223ZM260.487 225.686H258.821V221.436H260.045C260.396 221.198 260.651 220.756 260.81 220.11C260.98 219.464 261.11 218.257 261.201 216.489L261.32 214.16H268.494V221.436H270.143V225.686H268.477V223H260.487V225.686ZM262.034 221.436H266.828V215.724H262.867L262.833 216.625C262.72 219.005 262.453 220.609 262.034 221.436ZM272.499 222.048C271.796 221.323 271.445 220.167 271.445 218.58C271.445 216.993 271.796 215.837 272.499 215.112C273.213 214.387 274.363 214.024 275.95 214.024C277.525 214.024 278.659 214.387 279.35 215.112C280.053 215.837 280.404 216.993 280.404 218.58C280.404 218.637 280.398 218.722 280.387 218.835C280.387 218.948 280.387 219.033 280.387 219.09H273.145C273.202 219.974 273.457 220.626 273.91 221.045C274.375 221.464 275.06 221.674 275.967 221.674C277.293 221.674 278.137 221.221 278.5 220.314H280.234C279.996 221.357 279.509 222.088 278.772 222.507C278.047 222.926 277.106 223.136 275.95 223.136C274.363 223.136 273.213 222.773 272.499 222.048ZM275.967 215.486C275.117 215.486 274.46 215.673 273.995 216.047C273.542 216.41 273.27 217.005 273.179 217.832H278.738C278.647 216.993 278.375 216.393 277.922 216.03C277.48 215.667 276.828 215.486 275.967 215.486ZM287.078 223V214.16H289.781L292.926 221.317L296.071 214.16H298.774V223H297.108V215.656L293.81 223H292.025L288.744 215.656V223H287.078ZM302.955 223H301.289V214.16H302.955V217.798H308.106V214.16H309.772V223H308.106V219.362H302.955V223ZM312.891 215.112C313.616 214.387 314.767 214.024 316.342 214.024C317.917 214.024 319.062 214.387 319.776 215.112C320.501 215.837 320.864 216.993 320.864 218.58C320.864 220.178 320.507 221.34 319.793 222.065C319.079 222.779 317.929 223.136 316.342 223.136C314.755 223.136 313.605 222.779 312.891 222.065C312.177 221.34 311.82 220.178 311.82 218.58C311.82 216.993 312.177 215.837 312.891 215.112ZM313.486 218.58C313.486 219.623 313.713 220.382 314.166 220.858C314.619 221.334 315.345 221.572 316.342 221.572C317.339 221.572 318.065 221.334 318.518 220.858C318.971 220.382 319.198 219.623 319.198 218.58C319.198 217.526 318.971 216.767 318.518 216.302C318.076 215.826 317.351 215.588 316.342 215.588C315.333 215.588 314.602 215.826 314.149 216.302C313.707 216.767 313.486 217.526 313.486 218.58ZM321.806 223L325.223 218.478L322.027 214.16H324.016L326.634 217.713H327.96V214.16H329.626V217.713H330.969L333.587 214.16H335.559L332.363 218.478L335.78 223H333.757L330.952 219.277H329.626V223H327.96V219.277H326.634L323.846 223H321.806ZM337.776 222.048C337.074 221.323 336.722 220.167 336.722 218.58C336.722 216.993 337.074 215.837 337.776 215.112C338.49 214.387 339.641 214.024 341.227 214.024C342.803 214.024 343.936 214.387 344.627 215.112C345.33 215.837 345.681 216.993 345.681 218.58C345.681 218.637 345.676 218.722 345.664 218.835C345.664 218.948 345.664 219.033 345.664 219.09H338.422C338.479 219.974 338.734 220.626 339.187 221.045C339.652 221.464 340.338 221.674 341.244 221.674C342.57 221.674 343.415 221.221 343.777 220.314H345.511C345.273 221.357 344.786 222.088 344.049 222.507C343.324 222.926 342.383 223.136 341.227 223.136C339.641 223.136 338.49 222.773 337.776 222.048ZM341.244 215.486C340.394 215.486 339.737 215.673 339.272 216.047C338.819 216.41 338.547 217.005 338.456 217.832H344.015C343.925 216.993 343.653 216.393 343.199 216.03C342.757 215.667 342.106 215.486 341.244 215.486ZM351.651 223.136C350.109 223.136 348.987 222.779 348.285 222.065C347.593 221.34 347.248 220.178 347.248 218.58C347.248 216.993 347.593 215.837 348.285 215.112C348.987 214.387 350.109 214.024 351.651 214.024C352.999 214.024 354.019 214.296 354.711 214.84C355.402 215.373 355.827 216.223 355.986 217.39H354.337C354.189 216.767 353.9 216.313 353.47 216.03C353.05 215.735 352.455 215.588 351.685 215.588C350.71 215.588 350.002 215.826 349.56 216.302C349.129 216.767 348.914 217.526 348.914 218.58C348.914 219.623 349.135 220.382 349.577 220.858C350.019 221.334 350.721 221.572 351.685 221.572C352.455 221.572 353.05 221.43 353.47 221.147C353.9 220.852 354.189 220.393 354.337 219.77H355.986C355.827 220.949 355.402 221.804 354.711 222.337C354.019 222.87 352.999 223.136 351.651 223.136ZM365.705 215.724H362.169V223H360.503V215.724H356.967V214.16H365.705V215.724ZM367.33 223V214.16H371.852C372.974 214.16 373.79 214.347 374.3 214.721C374.81 215.095 375.065 215.696 375.065 216.523C375.065 217.418 374.776 218.047 374.198 218.41C375.048 218.773 375.473 219.487 375.473 220.552C375.473 221.413 375.213 222.037 374.691 222.422C374.17 222.807 373.326 223 372.158 223H367.33ZM372.005 219.141H368.996V221.538H372.005C372.64 221.538 373.099 221.447 373.382 221.266C373.666 221.073 373.807 220.762 373.807 220.331C373.807 219.912 373.666 219.611 373.382 219.43C373.099 219.237 372.64 219.141 372.005 219.141ZM368.996 217.883H371.648C372.272 217.883 372.719 217.792 372.991 217.611C373.263 217.43 373.399 217.141 373.399 216.744C373.399 216.359 373.258 216.075 372.974 215.894C372.702 215.713 372.266 215.622 371.665 215.622H368.996V217.883ZM378.135 215.112C378.861 214.387 380.011 214.024 381.586 214.024C383.162 214.024 384.306 214.387 385.02 215.112C385.746 215.837 386.108 216.993 386.108 218.58C386.108 220.178 385.751 221.34 385.037 222.065C384.323 222.779 383.173 223.136 381.586 223.136C380 223.136 378.849 222.779 378.135 222.065C377.421 221.34 377.064 220.178 377.064 218.58C377.064 216.993 377.421 215.837 378.135 215.112ZM378.73 218.58C378.73 219.623 378.957 220.382 379.41 220.858C379.864 221.334 380.589 221.572 381.586 221.572C382.584 221.572 383.309 221.334 383.762 220.858C384.216 220.382 384.442 219.623 384.442 218.58C384.442 217.526 384.216 216.767 383.762 216.302C383.32 215.826 382.595 215.588 381.586 215.588C380.578 215.588 379.847 215.826 379.393 216.302C378.951 216.767 378.73 217.526 378.73 218.58ZM126.185 244.136C124.644 244.136 123.522 243.779 122.819 243.065C122.128 242.34 121.782 241.178 121.782 239.58C121.782 237.993 122.128 236.837 122.819 236.112C123.522 235.387 124.644 235.024 126.185 235.024C127.534 235.024 128.554 235.296 129.245 235.84C129.936 236.373 130.361 237.223 130.52 238.39H128.871C128.724 237.767 128.435 237.313 128.004 237.03C127.585 236.735 126.99 236.588 126.219 236.588C125.244 236.588 124.536 236.826 124.094 237.302C123.663 237.767 123.448 238.526 123.448 239.58C123.448 240.623 123.669 241.382 124.111 241.858C124.553 242.334 125.256 242.572 126.219 242.572C126.99 242.572 127.585 242.43 128.004 242.147C128.435 241.852 128.724 241.393 128.871 240.77H130.52C130.361 241.949 129.936 242.804 129.245 243.337C128.554 243.87 127.534 244.136 126.185 244.136ZM132.518 244V235.16H141.001V244H139.335V236.724H134.184V244H132.518ZM144.103 243.048C143.4 242.323 143.049 241.167 143.049 239.58C143.049 237.993 143.4 236.837 144.103 236.112C144.817 235.387 145.967 235.024 147.554 235.024C149.129 235.024 150.262 235.387 150.954 236.112C151.656 236.837 152.008 237.993 152.008 239.58C152.008 239.637 152.002 239.722 151.991 239.835C151.991 239.948 151.991 240.033 151.991 240.09H144.749C144.805 240.974 145.06 241.626 145.514 242.045C145.978 242.464 146.664 242.674 147.571 242.674C148.897 242.674 149.741 242.221 150.104 241.314H151.838C151.6 242.357 151.112 243.088 150.376 243.507C149.65 243.926 148.71 244.136 147.554 244.136C145.967 244.136 144.817 243.773 144.103 243.048ZM147.571 236.486C146.721 236.486 146.063 236.673 145.599 237.047C145.145 237.41 144.873 238.005 144.783 238.832H150.342C150.251 237.993 149.979 237.393 149.526 237.03C149.084 236.667 148.432 236.486 147.571 236.486ZM154.05 235.16H155.716V242.436H160.697V235.16H162.363V242.436H164.012V246.686H162.346V244H154.05V235.16ZM167.332 244H165.87V235.16H167.536V241.331L172.891 235.16H174.353V244H172.687V237.829L167.332 244ZM179.937 244.136C178.758 244.136 177.897 243.926 177.353 243.507C176.809 243.088 176.537 242.413 176.537 241.484C176.537 240.521 176.837 239.835 177.438 239.427C178.05 239.008 179.03 238.798 180.379 238.798H183.388C183.388 237.993 183.184 237.41 182.776 237.047C182.368 236.673 181.716 236.486 180.821 236.486C180.107 236.486 179.557 236.605 179.172 236.843C178.787 237.07 178.526 237.438 178.39 237.948H176.741C176.9 236.928 177.308 236.186 177.965 235.721C178.622 235.256 179.597 235.024 180.889 235.024C182.34 235.024 183.394 235.324 184.051 235.925C184.72 236.514 185.054 237.461 185.054 238.764V244H183.388V242.861C182.719 243.711 181.569 244.136 179.937 244.136ZM178.203 241.416C178.203 241.858 178.373 242.181 178.713 242.385C179.064 242.578 179.603 242.674 180.328 242.674C181.291 242.674 182.011 242.498 182.487 242.147C182.974 241.796 183.275 241.235 183.388 240.464V240.056H180.804C179.07 240.056 178.203 240.509 178.203 241.416ZM186.957 244V242.334H187.484C187.768 242.334 187.983 242.226 188.13 242.011C188.289 241.784 188.419 241.325 188.521 240.634C188.635 239.931 188.725 238.883 188.793 237.489L188.912 235.16H196.103V244H194.437V236.724H190.476L190.442 237.625C190.363 239.325 190.204 240.645 189.966 241.586C189.74 242.515 189.439 243.15 189.065 243.49C188.691 243.83 188.187 244 187.552 244H186.957ZM200.087 244H198.625V235.16H200.291V241.331L205.646 235.16H207.108V244H205.442V237.829L200.087 244ZM213.559 244.136C212.018 244.136 210.896 243.779 210.193 243.065C209.502 242.34 209.156 241.178 209.156 239.58C209.156 237.993 209.502 236.837 210.193 236.112C210.896 235.387 212.018 235.024 213.559 235.024C214.908 235.024 215.928 235.296 216.619 235.84C217.31 236.373 217.735 237.223 217.894 238.39H216.245C216.098 237.767 215.809 237.313 215.378 237.03C214.959 236.735 214.364 236.588 213.593 236.588C212.618 236.588 211.91 236.826 211.468 237.302C211.037 237.767 210.822 238.526 210.822 239.58C210.822 240.623 211.043 241.382 211.485 241.858C211.927 242.334 212.63 242.572 213.593 242.572C214.364 242.572 214.959 242.43 215.378 242.147C215.809 241.852 216.098 241.393 216.245 240.77H217.894C217.735 241.949 217.31 242.804 216.619 243.337C215.928 243.87 214.908 244.136 213.559 244.136ZM227.613 236.724H224.077V244H222.411V236.724H218.875V235.16H227.613V236.724ZM229.701 236.112C230.426 235.387 231.576 235.024 233.152 235.024C234.727 235.024 235.872 235.387 236.586 236.112C237.311 236.837 237.674 237.993 237.674 239.58C237.674 241.178 237.317 242.34 236.603 243.065C235.889 243.779 234.738 244.136 233.152 244.136C231.565 244.136 230.415 243.779 229.701 243.065C228.987 242.34 228.63 241.178 228.63 239.58C228.63 237.993 228.987 236.837 229.701 236.112ZM230.296 239.58C230.296 240.623 230.522 241.382 230.976 241.858C231.429 242.334 232.154 242.572 233.152 242.572C234.149 242.572 234.874 242.334 235.328 241.858C235.781 241.382 236.008 240.623 236.008 239.58C236.008 238.526 235.781 237.767 235.328 237.302C234.886 236.826 234.16 236.588 233.152 236.588C232.143 236.588 231.412 236.826 230.959 237.302C230.517 237.767 230.296 238.526 230.296 239.58ZM239.714 244V235.16H244.236C245.358 235.16 246.174 235.347 246.684 235.721C247.194 236.095 247.449 236.696 247.449 237.523C247.449 238.418 247.16 239.047 246.582 239.41C247.432 239.773 247.857 240.487 247.857 241.552C247.857 242.413 247.596 243.037 247.075 243.422C246.554 243.807 245.709 244 244.542 244H239.714ZM244.389 240.141H241.38V242.538H244.389C245.024 242.538 245.483 242.447 245.766 242.266C246.049 242.073 246.191 241.762 246.191 241.331C246.191 240.912 246.049 240.611 245.766 240.43C245.483 240.237 245.024 240.141 244.389 240.141ZM241.38 238.883H244.032C244.655 238.883 245.103 238.792 245.375 238.611C245.647 238.43 245.783 238.141 245.783 237.744C245.783 237.359 245.641 237.075 245.358 236.894C245.086 236.713 244.65 236.622 244.049 236.622H241.38V238.883ZM251.063 244.136C250.576 244.136 250.224 244.051 250.009 243.881C249.805 243.711 249.703 243.388 249.703 242.912C249.703 242.481 249.799 242.17 249.992 241.977C250.185 241.784 250.496 241.688 250.927 241.688C251.346 241.688 251.652 241.784 251.845 241.977C252.049 242.17 252.151 242.481 252.151 242.912V243.932C252.151 245.043 251.953 245.847 251.556 246.346C251.159 246.845 250.525 247.094 249.652 247.094V246.312C250.139 246.312 250.496 246.136 250.723 245.785C250.95 245.445 251.063 244.895 251.063 244.136ZM260.484 244H259.022V235.16H260.688V241.331L266.043 235.16H267.505V244H265.839V237.829L260.484 244ZM276.326 244H274.66V235.16H276.326V238.713H277.975L280.848 235.16H282.888L279.352 239.478L283.109 244H281.052L277.975 240.277H276.326V244ZM287.582 244.136C286.403 244.136 285.542 243.926 284.998 243.507C284.454 243.088 284.182 242.413 284.182 241.484C284.182 240.521 284.482 239.835 285.083 239.427C285.695 239.008 286.675 238.798 288.024 238.798H291.033C291.033 237.993 290.829 237.41 290.421 237.047C290.013 236.673 289.361 236.486 288.466 236.486C287.752 236.486 287.202 236.605 286.817 236.843C286.431 237.07 286.171 237.438 286.035 237.948H284.386C284.544 236.928 284.952 236.186 285.61 235.721C286.267 235.256 287.242 235.024 288.534 235.024C289.984 235.024 291.038 235.324 291.696 235.925C292.364 236.514 292.699 237.461 292.699 238.764V244H291.033V242.861C290.364 243.711 289.214 244.136 287.582 244.136ZM285.848 241.416C285.848 241.858 286.018 242.181 286.358 242.385C286.709 242.578 287.247 242.674 287.973 242.674C288.936 242.674 289.656 242.498 290.132 242.147C290.619 241.796 290.919 241.235 291.033 240.464V240.056H288.449C286.715 240.056 285.848 240.509 285.848 241.416ZM294.264 244L297.681 239.478L294.485 235.16H296.474L299.092 238.713H300.418V235.16H302.084V238.713H303.427L306.045 235.16H308.017L304.821 239.478L308.238 244H306.215L303.41 240.277H302.084V244H300.418V240.277H299.092L296.304 244H294.264ZM310.84 246.686H309.174V242.436H310.398C310.749 242.198 311.004 241.756 311.163 241.11C311.333 240.464 311.463 239.257 311.554 237.489L311.673 235.16H318.847V242.436H320.496V246.686H318.83V244H310.84V246.686ZM312.387 242.436H317.181V236.724H313.22L313.186 237.625C313.072 240.005 312.806 241.609 312.387 242.436ZM322.44 244V235.16H324.106V237.88H326.741C327.953 237.88 328.832 238.124 329.376 238.611C329.92 239.098 330.192 239.875 330.192 240.94C330.192 242.005 329.92 242.782 329.376 243.269C328.832 243.756 327.959 244 326.758 244H322.44ZM331.875 244V235.16H333.541V244H331.875ZM326.588 239.444H324.106V242.436H326.605C327.273 242.436 327.761 242.317 328.067 242.079C328.373 241.841 328.526 241.461 328.526 240.94C328.526 240.419 328.373 240.039 328.067 239.801C327.761 239.563 327.268 239.444 326.588 239.444ZM336.053 244V235.16H337.719V241.331L343.074 235.16H344.536V244H342.87V237.829L337.515 244H336.053ZM337.26 231.488H338.62C338.62 232.009 338.756 232.389 339.028 232.627C339.3 232.865 339.731 232.984 340.32 232.984C340.909 232.984 341.34 232.865 341.612 232.627C341.884 232.389 342.02 232.009 342.02 231.488H343.38C343.38 232.395 343.136 233.063 342.649 233.494C342.162 233.925 341.385 234.14 340.32 234.14C339.266 234.14 338.49 233.925 337.991 233.494C337.504 233.052 337.26 232.383 337.26 231.488ZM353.154 244H351.692V235.16H353.358V241.331L358.713 235.16H360.175V244H358.509V237.829L353.154 244ZM362.205 241.144H363.871C363.996 241.677 364.262 242.068 364.67 242.317C365.09 242.555 365.707 242.674 366.523 242.674C367.294 242.674 367.861 242.572 368.223 242.368C368.586 242.153 368.767 241.807 368.767 241.331C368.767 240.912 368.626 240.611 368.342 240.43C368.07 240.237 367.611 240.141 366.965 240.141H365.299V238.883H366.863C367.475 238.883 367.917 238.792 368.189 238.611C368.461 238.418 368.597 238.129 368.597 237.744C368.597 237.302 368.422 236.985 368.07 236.792C367.73 236.588 367.192 236.486 366.455 236.486C365.651 236.486 365.05 236.605 364.653 236.843C364.257 237.081 364.002 237.472 363.888 238.016H362.205C362.353 236.962 362.761 236.203 363.429 235.738C364.109 235.262 365.141 235.024 366.523 235.024C367.815 235.024 368.762 235.228 369.362 235.636C369.963 236.033 370.263 236.673 370.263 237.557C370.263 238.486 369.901 239.127 369.175 239.478C370.014 239.807 370.433 240.492 370.433 241.535C370.433 242.442 370.122 243.105 369.498 243.524C368.886 243.932 367.917 244.136 366.591 244.136C365.175 244.136 364.121 243.904 363.429 243.439C362.749 242.963 362.341 242.198 362.205 241.144ZM378.808 244H377.142V235.16H378.808V238.798H383.959V235.16H385.625V244H383.959V240.362H378.808V244ZM389.611 244H388.149V235.16H389.815V241.331L395.17 235.16H396.632V244H394.966V237.829L389.611 244ZM398.339 244L402.011 239.529L398.424 235.16H400.515L403.065 238.271L405.615 235.16H407.706L404.136 239.529L407.791 244H405.7L403.065 240.787L400.43 244H398.339ZM121.442 265L125.114 260.529L121.527 256.16H123.618L126.168 259.271L128.718 256.16H130.809L127.239 260.529L130.894 265H128.803L126.168 261.787L123.533 265H121.442ZM132.914 257.112C133.639 256.387 134.789 256.024 136.365 256.024C137.94 256.024 139.085 256.387 139.799 257.112C140.524 257.837 140.887 258.993 140.887 260.58C140.887 262.178 140.53 263.34 139.816 264.065C139.102 264.779 137.951 265.136 136.365 265.136C134.778 265.136 133.628 264.779 132.914 264.065C132.2 263.34 131.843 262.178 131.843 260.58C131.843 258.993 132.2 257.837 132.914 257.112ZM133.509 260.58C133.509 261.623 133.735 262.382 134.189 262.858C134.642 263.334 135.367 263.572 136.365 263.572C137.362 263.572 138.087 263.334 138.541 262.858C138.994 262.382 139.221 261.623 139.221 260.58C139.221 259.526 138.994 258.767 138.541 258.302C138.099 257.826 137.373 257.588 136.365 257.588C135.356 257.588 134.625 257.826 134.172 258.302C133.73 258.767 133.509 259.526 133.509 260.58ZM142.927 269.25V256.16H144.593V257.401C145.216 256.483 146.316 256.024 147.891 256.024C149.308 256.024 150.333 256.387 150.968 257.112C151.614 257.826 151.937 258.982 151.937 260.58C151.937 262.167 151.614 263.323 150.968 264.048C150.333 264.773 149.308 265.136 147.891 265.136C146.316 265.136 145.216 264.677 144.593 263.759V269.25H142.927ZM145.29 262.875C145.743 263.34 146.463 263.572 147.449 263.572C148.435 263.572 149.149 263.34 149.591 262.875C150.044 262.399 150.271 261.634 150.271 260.58C150.271 259.537 150.044 258.778 149.591 258.302C149.149 257.826 148.435 257.588 147.449 257.588C146.463 257.588 145.743 257.826 145.29 258.302C144.848 258.778 144.627 259.537 144.627 260.58C144.627 261.634 144.848 262.399 145.29 262.875ZM154.579 257.112C155.304 256.387 156.454 256.024 158.03 256.024C159.605 256.024 160.75 256.387 161.464 257.112C162.189 257.837 162.552 258.993 162.552 260.58C162.552 262.178 162.195 263.34 161.481 264.065C160.767 264.779 159.616 265.136 158.03 265.136C156.443 265.136 155.293 264.779 154.579 264.065C153.865 263.34 153.508 262.178 153.508 260.58C153.508 258.993 153.865 257.837 154.579 257.112ZM155.174 260.58C155.174 261.623 155.4 262.382 155.854 262.858C156.307 263.334 157.032 263.572 158.03 263.572C159.027 263.572 159.752 263.334 160.206 262.858C160.659 262.382 160.886 261.623 160.886 260.58C160.886 259.526 160.659 258.767 160.206 258.302C159.764 257.826 159.038 257.588 158.03 257.588C157.021 257.588 156.29 257.826 155.837 258.302C155.395 258.767 155.174 259.526 155.174 260.58ZM177.631 265H164.592V256.16H166.258V263.436H170.287V256.16H171.953V263.436H175.965V256.16H177.631V265ZM180.743 257.112C181.468 256.387 182.618 256.024 184.194 256.024C185.769 256.024 186.914 256.387 187.628 257.112C188.353 257.837 188.716 258.993 188.716 260.58C188.716 262.178 188.359 263.34 187.645 264.065C186.931 264.779 185.78 265.136 184.194 265.136C182.607 265.136 181.457 264.779 180.743 264.065C180.029 263.34 179.672 262.178 179.672 260.58C179.672 258.993 180.029 257.837 180.743 257.112ZM181.338 260.58C181.338 261.623 181.564 262.382 182.018 262.858C182.471 263.334 183.196 263.572 184.194 263.572C185.191 263.572 185.916 263.334 186.37 262.858C186.823 262.382 187.05 261.623 187.05 260.58C187.05 259.526 186.823 258.767 186.37 258.302C185.928 257.826 185.202 257.588 184.194 257.588C183.185 257.588 182.454 257.826 182.001 258.302C181.559 258.767 181.338 259.526 181.338 260.58ZM194.895 262.144H196.561C196.686 262.677 196.952 263.068 197.36 263.317C197.779 263.555 198.397 263.674 199.213 263.674C199.984 263.674 200.55 263.572 200.913 263.368C201.276 263.153 201.457 262.807 201.457 262.331C201.457 261.912 201.315 261.611 201.032 261.43C200.76 261.237 200.301 261.141 199.655 261.141H197.989V259.883H199.553C200.165 259.883 200.607 259.792 200.879 259.611C201.151 259.418 201.287 259.129 201.287 258.744C201.287 258.302 201.111 257.985 200.76 257.792C200.42 257.588 199.882 257.486 199.145 257.486C198.34 257.486 197.74 257.605 197.343 257.843C196.946 258.081 196.691 258.472 196.578 259.016H194.895C195.042 257.962 195.45 257.203 196.119 256.738C196.799 256.262 197.83 256.024 199.213 256.024C200.505 256.024 201.451 256.228 202.052 256.636C202.653 257.033 202.953 257.673 202.953 258.557C202.953 259.486 202.59 260.127 201.865 260.478C202.704 260.807 203.123 261.492 203.123 262.535C203.123 263.442 202.811 264.105 202.188 264.524C201.576 264.932 200.607 265.136 199.281 265.136C197.864 265.136 196.81 264.904 196.119 264.439C195.439 263.963 195.031 263.198 194.895 262.144ZM206.865 265H205.199V256.16H206.865V259.798H212.016V256.16H213.682V265H212.016V261.362H206.865V265ZM219.266 265.136C218.088 265.136 217.226 264.926 216.682 264.507C216.138 264.088 215.866 263.413 215.866 262.484C215.866 261.521 216.167 260.835 216.767 260.427C217.379 260.008 218.36 259.798 219.708 259.798H222.717C222.717 258.993 222.513 258.41 222.105 258.047C221.697 257.673 221.046 257.486 220.15 257.486C219.436 257.486 218.887 257.605 218.501 257.843C218.116 258.07 217.855 258.438 217.719 258.948H216.07C216.229 257.928 216.637 257.186 217.294 256.721C217.952 256.256 218.926 256.024 220.218 256.024C221.669 256.024 222.723 256.324 223.38 256.925C224.049 257.514 224.383 258.461 224.383 259.764V265H222.717V263.861C222.049 264.711 220.898 265.136 219.266 265.136ZM217.532 262.416C217.532 262.858 217.702 263.181 218.042 263.385C218.394 263.578 218.932 263.674 219.657 263.674C220.621 263.674 221.34 263.498 221.816 263.147C222.304 262.796 222.604 262.235 222.717 261.464V261.056H220.133C218.399 261.056 217.532 261.509 217.532 262.416ZM227.442 264.048C226.74 263.323 226.388 262.167 226.388 260.58C226.388 258.993 226.74 257.837 227.442 257.112C228.156 256.387 229.307 256.024 230.893 256.024C232.469 256.024 233.602 256.387 234.293 257.112C234.996 257.837 235.347 258.993 235.347 260.58C235.347 260.637 235.342 260.722 235.33 260.835C235.33 260.948 235.33 261.033 235.33 261.09H228.088C228.145 261.974 228.4 262.626 228.853 263.045C229.318 263.464 230.004 263.674 230.91 263.674C232.236 263.674 233.081 263.221 233.443 262.314H235.177C234.939 263.357 234.452 264.088 233.715 264.507C232.99 264.926 232.049 265.136 230.893 265.136C229.307 265.136 228.156 264.773 227.442 264.048ZM230.91 257.486C230.06 257.486 229.403 257.673 228.938 258.047C228.485 258.41 228.213 259.005 228.122 259.832H233.681C233.591 258.993 233.319 258.393 232.865 258.03C232.423 257.667 231.772 257.486 230.91 257.486ZM245.111 257.724H241.575V265H239.909V257.724H236.373V256.16H245.111V257.724ZM255.295 265.136C253.754 265.136 252.632 264.779 251.929 264.065C251.238 263.34 250.892 262.178 250.892 260.58C250.892 258.993 251.238 257.837 251.929 257.112C252.632 256.387 253.754 256.024 255.295 256.024C256.644 256.024 257.664 256.296 258.355 256.84C259.047 257.373 259.472 258.223 259.63 259.39H257.981C257.834 258.767 257.545 258.313 257.114 258.03C256.695 257.735 256.1 257.588 255.329 257.588C254.355 257.588 253.646 257.826 253.204 258.302C252.774 258.767 252.558 259.526 252.558 260.58C252.558 261.623 252.779 262.382 253.221 262.858C253.663 263.334 254.366 263.572 255.329 263.572C256.1 263.572 256.695 263.43 257.114 263.147C257.545 262.852 257.834 262.393 257.981 261.77H259.63C259.472 262.949 259.047 263.804 258.355 264.337C257.664 264.87 256.644 265.136 255.295 265.136ZM261.628 265V256.16H266.15C267.272 256.16 268.088 256.347 268.598 256.721C269.108 257.095 269.363 257.696 269.363 258.523C269.363 259.418 269.074 260.047 268.496 260.41C269.346 260.773 269.771 261.487 269.771 262.552C269.771 263.413 269.51 264.037 268.989 264.422C268.468 264.807 267.623 265 266.456 265H261.628ZM266.303 261.141H263.294V263.538H266.303C266.938 263.538 267.397 263.447 267.68 263.266C267.963 263.073 268.105 262.762 268.105 262.331C268.105 261.912 267.963 261.611 267.68 261.43C267.397 261.237 266.938 261.141 266.303 261.141ZM263.294 259.883H265.946C266.569 259.883 267.017 259.792 267.289 259.611C267.561 259.43 267.697 259.141 267.697 258.744C267.697 258.359 267.555 258.075 267.272 257.894C267 257.713 266.564 257.622 265.963 257.622H263.294V259.883ZM272.433 257.112C273.158 256.387 274.309 256.024 275.884 256.024C277.459 256.024 278.604 256.387 279.318 257.112C280.043 257.837 280.406 258.993 280.406 260.58C280.406 262.178 280.049 263.34 279.335 264.065C278.621 264.779 277.471 265.136 275.884 265.136C274.297 265.136 273.147 264.779 272.433 264.065C271.719 263.34 271.362 262.178 271.362 260.58C271.362 258.993 271.719 257.837 272.433 257.112ZM273.028 260.58C273.028 261.623 273.255 262.382 273.708 262.858C274.161 263.334 274.887 263.572 275.884 263.572C276.881 263.572 277.607 263.334 278.06 262.858C278.513 262.382 278.74 261.623 278.74 260.58C278.74 259.526 278.513 258.767 278.06 258.302C277.618 257.826 276.893 257.588 275.884 257.588C274.875 257.588 274.144 257.826 273.691 258.302C273.249 258.767 273.028 259.526 273.028 260.58ZM283.024 264.048C282.322 263.323 281.97 262.167 281.97 260.58C281.97 258.993 282.322 257.837 283.024 257.112C283.738 256.387 284.889 256.024 286.475 256.024C288.051 256.024 289.184 256.387 289.875 257.112C290.578 257.837 290.929 258.993 290.929 260.58C290.929 260.637 290.924 260.722 290.912 260.835C290.912 260.948 290.912 261.033 290.912 261.09H283.67C283.727 261.974 283.982 262.626 284.435 263.045C284.9 263.464 285.586 263.674 286.492 263.674C287.818 263.674 288.663 263.221 289.025 262.314H290.759C290.521 263.357 290.034 264.088 289.297 264.507C288.572 264.926 287.631 265.136 286.475 265.136C284.889 265.136 283.738 264.773 283.024 264.048ZM286.492 257.486C285.642 257.486 284.985 257.673 284.52 258.047C284.067 258.41 283.795 259.005 283.704 259.832H289.263C289.173 258.993 288.901 258.393 288.447 258.03C288.005 257.667 287.354 257.486 286.492 257.486ZM298.505 267.686H296.839V263.436H298.063C298.414 263.198 298.669 262.756 298.828 262.11C298.998 261.464 299.128 260.257 299.219 258.489L299.338 256.16H306.512V263.436H308.161V267.686H306.495V265H298.505V267.686ZM300.052 263.436H304.846V257.724H300.885L300.851 258.625C300.737 261.005 300.471 262.609 300.052 263.436ZM310.517 264.048C309.814 263.323 309.463 262.167 309.463 260.58C309.463 258.993 309.814 257.837 310.517 257.112C311.231 256.387 312.381 256.024 313.968 256.024C315.543 256.024 316.676 256.387 317.368 257.112C318.07 257.837 318.422 258.993 318.422 260.58C318.422 260.637 318.416 260.722 318.405 260.835C318.405 260.948 318.405 261.033 318.405 261.09H311.163C311.219 261.974 311.474 262.626 311.928 263.045C312.392 263.464 313.078 263.674 313.985 263.674C315.311 263.674 316.155 263.221 316.518 262.314H318.252C318.014 263.357 317.526 264.088 316.79 264.507C316.064 264.926 315.124 265.136 313.968 265.136C312.381 265.136 311.231 264.773 310.517 264.048ZM313.985 257.486C313.135 257.486 312.477 257.673 312.013 258.047C311.559 258.41 311.287 259.005 311.197 259.832H316.756C316.665 258.993 316.393 258.393 315.94 258.03C315.498 257.667 314.846 257.486 313.985 257.486ZM319.654 265V263.334H320.181C320.464 263.334 320.679 263.226 320.827 263.011C320.985 262.784 321.116 262.325 321.218 261.634C321.331 260.931 321.422 259.883 321.49 258.489L321.609 256.16H328.8V265H327.134V257.724H323.173L323.139 258.625C323.059 260.325 322.901 261.645 322.663 262.586C322.436 263.515 322.136 264.15 321.762 264.49C321.388 264.83 320.883 265 320.249 265H319.654ZM331.916 257.112C332.642 256.387 333.792 256.024 335.367 256.024C336.943 256.024 338.087 256.387 338.801 257.112C339.527 257.837 339.889 258.993 339.889 260.58C339.889 262.178 339.532 263.34 338.818 264.065C338.104 264.779 336.954 265.136 335.367 265.136C333.781 265.136 332.63 264.779 331.916 264.065C331.202 263.34 330.845 262.178 330.845 260.58C330.845 258.993 331.202 257.837 331.916 257.112ZM332.511 260.58C332.511 261.623 332.738 262.382 333.191 262.858C333.645 263.334 334.37 263.572 335.367 263.572C336.365 263.572 337.09 263.334 337.543 262.858C337.997 262.382 338.223 261.623 338.223 260.58C338.223 259.526 337.997 258.767 337.543 258.302C337.101 257.826 336.376 257.588 335.367 257.588C334.359 257.588 333.628 257.826 333.174 258.302C332.732 258.767 332.511 259.526 332.511 260.58Z" fill="white" fill-opacity="0.9"/>
<g clip-path="url(#clip0_66_2443)">
<path d="M469.738 361.687L447.868 333.042C445.562 330.019 442.015 328.25 438.26 328.25H404.463C400.709 328.25 397.161 330.019 394.855 333.042L372.985 361.687C374.5 384.602 385.307 403.711 403.106 411.434V411.428C408.65 413.824 414.765 415.165 421.362 415.165C427.958 415.165 434.074 413.824 439.617 411.422V411.428C457.416 403.711 468.217 384.602 469.738 361.687ZM403.106 377.916C399.747 377.916 397.021 375.135 397.021 371.708C397.021 368.281 399.747 365.499 403.106 365.499C406.465 365.499 409.192 368.281 409.192 371.708C409.192 375.135 406.465 377.916 403.106 377.916ZM439.617 377.916C436.258 377.916 433.532 375.135 433.532 371.708C433.532 368.281 436.258 365.499 439.617 365.499C442.976 365.499 445.702 368.281 445.702 371.708C445.702 375.135 442.976 377.916 439.617 377.916ZM372.681 351.978V322.041C372.681 308.327 383.579 297.208 397.021 297.208H445.702C459.144 297.208 470.043 308.327 470.043 322.041V351.978L452.67 329.231C449.213 324.692 443.895 322.041 438.26 322.041H404.457C398.822 322.041 393.504 324.692 390.048 329.231L372.681 351.978ZM492.637 468.401L490.58 458.748C488.931 449.516 482.45 442.109 473.821 439.477L445.002 428.762L439.769 433.381C434.652 437.919 428.08 440.427 421.264 440.427C414.473 440.427 407.926 437.937 402.82 433.405L397.636 428.836L369.097 439.415C360.292 442.116 353.793 449.522 352.15 458.76L350.349 468.817C348.985 476.441 354.724 483.456 362.318 483.456H480.74C488.505 483.456 494.286 476.143 492.637 468.401ZM470.043 464.832C470.043 468.259 467.316 471.04 463.957 471.04H445.702C442.343 471.04 439.617 468.259 439.617 464.832V458.623C439.617 455.196 442.343 452.415 445.702 452.415H463.957C467.316 452.415 470.043 455.196 470.043 458.623V464.832ZM421.362 421.374C427.891 421.374 433.994 420.225 439.617 418.152V425.304L435.783 428.693C427.763 435.802 414.826 435.82 406.812 428.718L403.106 425.453V418.158C408.729 420.225 414.832 421.374 421.362 421.374ZM445.702 458.623H463.957V464.832H445.702V458.623Z" fill="url(#paint2_linear_66_2443)"/>
</g>
<defs>
<filter id="filter0_d_66_2443" x="0" y="0" width="560" height="560" filterUnits="userSpaceOnUse" color-interpolation-filters="sRGB">
<feFlood flood-opacity="0" result="BackgroundImageFix"/>
<feColorMatrix in="SourceAlpha" type="matrix" values="0 0 0 0 0 0 0 0 0 0 0 0 0 0 0 0 0 0 127 0" result="hardAlpha"/>
<feOffset/>
<feGaussianBlur stdDeviation="40"/>
<feComposite in2="hardAlpha" operator="out"/>
<feColorMatrix type="matrix" values="0 0 0 0 0.172549 0 0 0 0 0.172549 0 0 0 0 0.176471 0 0 0 0.35 0"/>
<feBlend mode="normal" in2="BackgroundImageFix" result="effect1_dropShadow_66_2443"/>
<feBlend mode="normal" in="SourceGraphic" in2="effect1_dropShadow_66_2443" result="shape"/>
</filter>
<linearGradient id="paint0_linear_66_2443" x1="124.364" y1="116.697" x2="431.61" y2="477.234" gradientUnits="userSpaceOnUse">
<stop stop-color="#303134"/>
<stop offset="0.519792" stop-color="#282828"/>
<stop offset="0.927909" stop-color="#282828"/>
</linearGradient>
<linearGradient id="paint1_linear_66_2443" x1="80" y1="86" x2="480" y2="480" gradientUnits="userSpaceOnUse">
<stop stop-color="white"/>
<stop offset="1" stop-color="white" stop-opacity="0"/>
</linearGradient>
<linearGradient id="paint2_linear_66_2443" x1="313" y1="320" x2="458" y2="483" gradientUnits="userSpaceOnUse">
<stop stop-color="#414141"/>
<stop offset="1" stop-color="#262626"/>
</linearGradient>
<clipPath id="clip0_66_2443">
<rect width="156" height="189" fill="white" transform="translate(324 291)"/>
</clipPath>
</defs>
</svg>
